%TF.GenerationSoftware,KiCad,Pcbnew,(5.99.0-7597-g9f5b12c7f7)*%
%TF.CreationDate,2021-12-15T12:43:45+01:00*%
%TF.ProjectId,controller,636f6e74-726f-46c6-9c65-722e6b696361,rev?*%
%TF.SameCoordinates,Original*%
%TF.FileFunction,Soldermask,Bot*%
%TF.FilePolarity,Negative*%
%FSLAX46Y46*%
G04 Gerber Fmt 4.6, Leading zero omitted, Abs format (unit mm)*
G04 Created by KiCad (PCBNEW (5.99.0-7597-g9f5b12c7f7)) date 2021-12-15 12:43:45*
%MOMM*%
%LPD*%
G01*
G04 APERTURE LIST*
G04 Aperture macros list*
%AMRoundRect*
0 Rectangle with rounded corners*
0 $1 Rounding radius*
0 $2 $3 $4 $5 $6 $7 $8 $9 X,Y pos of 4 corners*
0 Add a 4 corners polygon primitive as box body*
4,1,4,$2,$3,$4,$5,$6,$7,$8,$9,$2,$3,0*
0 Add four circle primitives for the rounded corners*
1,1,$1+$1,$2,$3,0*
1,1,$1+$1,$4,$5,0*
1,1,$1+$1,$6,$7,0*
1,1,$1+$1,$8,$9,0*
0 Add four rect primitives between the rounded corners*
20,1,$1+$1,$2,$3,$4,$5,0*
20,1,$1+$1,$4,$5,$6,$7,0*
20,1,$1+$1,$6,$7,$8,$9,0*
20,1,$1+$1,$8,$9,$2,$3,0*%
G04 Aperture macros list end*
%ADD10O,1.850000X3.048000*%
%ADD11C,4.000000*%
%ADD12R,1.600000X1.600000*%
%ADD13C,1.600000*%
%ADD14RoundRect,0.250000X0.600000X0.750000X-0.600000X0.750000X-0.600000X-0.750000X0.600000X-0.750000X0*%
%ADD15O,1.700000X2.000000*%
%ADD16C,3.500000*%
%ADD17C,1.440000*%
%ADD18R,1.700000X1.700000*%
%ADD19O,1.700000X1.700000*%
%ADD20R,1.750000X1.750000*%
%ADD21C,1.750000*%
%ADD22C,2.700000*%
G04 APERTURE END LIST*
D10*
%TO.C,SW2*%
X83820000Y-95450000D03*
X83820000Y-107950000D03*
X88820000Y-107950000D03*
X88820000Y-95450000D03*
%TD*%
%TO.C,SW1*%
X69850000Y-95450000D03*
X69850000Y-107950000D03*
X74850000Y-95450000D03*
X74850000Y-107950000D03*
%TD*%
%TO.C,SW3*%
X97790000Y-107950000D03*
X97790000Y-95450000D03*
X102790000Y-107950000D03*
X102790000Y-95450000D03*
%TD*%
D11*
%TO.C,J20*%
X228920000Y-121955000D03*
X228920000Y-88655000D03*
D12*
X227500000Y-115000000D03*
D13*
X227500000Y-112230000D03*
X227500000Y-109460000D03*
X227500000Y-106690000D03*
X227500000Y-103920000D03*
X227500000Y-101150000D03*
X227500000Y-98380000D03*
X227500000Y-95610000D03*
X230340000Y-113615000D03*
X230340000Y-110845000D03*
X230340000Y-108075000D03*
X230340000Y-105305000D03*
X230340000Y-102535000D03*
X230340000Y-99765000D03*
X230340000Y-96995000D03*
%TD*%
D10*
%TO.C,SW5*%
X125730000Y-107950000D03*
X125730000Y-95450000D03*
X130730000Y-107950000D03*
X130730000Y-95450000D03*
%TD*%
D14*
%TO.C,J23*%
X146000000Y-93500000D03*
D15*
X143500000Y-93500000D03*
%TD*%
D16*
%TO.C,H4*%
X40000000Y-85000000D03*
%TD*%
D17*
%TO.C,RV2*%
X192800000Y-105100000D03*
X190260000Y-105100000D03*
X187720000Y-105100000D03*
%TD*%
D16*
%TO.C,H6*%
X220000000Y-125000000D03*
%TD*%
%TO.C,H5*%
X220000000Y-85000000D03*
%TD*%
%TO.C,H3*%
X40000000Y-125000000D03*
%TD*%
D18*
%TO.C,J22*%
X201930000Y-100330000D03*
D19*
X199390000Y-100330000D03*
X196850000Y-100330000D03*
X194310000Y-100330000D03*
X191770000Y-100330000D03*
X189230000Y-100330000D03*
X186690000Y-100330000D03*
X184150000Y-100330000D03*
X181610000Y-100330000D03*
X179070000Y-100330000D03*
X176530000Y-100330000D03*
X173990000Y-100330000D03*
X171450000Y-100330000D03*
X168910000Y-100330000D03*
X166370000Y-100330000D03*
X163830000Y-100330000D03*
X161290000Y-100330000D03*
X158750000Y-100330000D03*
X156210000Y-100330000D03*
X153670000Y-100330000D03*
%TD*%
D10*
%TO.C,SW4*%
X111760000Y-107950000D03*
X111760000Y-95450000D03*
X116760000Y-107950000D03*
X116760000Y-95450000D03*
%TD*%
D18*
%TO.C,J21*%
X201930000Y-82550000D03*
D19*
X199390000Y-82550000D03*
X196850000Y-82550000D03*
X194310000Y-82550000D03*
X191770000Y-82550000D03*
X189230000Y-82550000D03*
X186690000Y-82550000D03*
X184150000Y-82550000D03*
X181610000Y-82550000D03*
X179070000Y-82550000D03*
X176530000Y-82550000D03*
X173990000Y-82550000D03*
X171450000Y-82550000D03*
X168910000Y-82550000D03*
X166370000Y-82550000D03*
X163830000Y-82550000D03*
X161290000Y-82550000D03*
X158750000Y-82550000D03*
X156210000Y-82550000D03*
X153670000Y-82550000D03*
%TD*%
D14*
%TO.C,J24*%
X146000000Y-85600000D03*
D15*
X143500000Y-85600000D03*
%TD*%
D20*
%TO.C,RV1*%
X71120000Y-85025000D03*
D21*
X71120000Y-88525000D03*
X129620000Y-85025000D03*
D22*
X125470000Y-90975000D03*
X124270000Y-82575000D03*
X75270000Y-90975000D03*
X76470000Y-82575000D03*
%TD*%
D16*
%TO.C,H1*%
X135000000Y-85000000D03*
%TD*%
%TO.C,H2*%
X135000000Y-125000000D03*
%TD*%
M02*
