%TF.GenerationSoftware,KiCad,Pcbnew,(5.99.0-7597-g9f5b12c7f7)*%
%TF.CreationDate,2021-12-15T12:43:45+01:00*%
%TF.ProjectId,controller,636f6e74-726f-46c6-9c65-722e6b696361,rev?*%
%TF.SameCoordinates,Original*%
%TF.FileFunction,Legend,Top*%
%TF.FilePolarity,Positive*%
%FSLAX46Y46*%
G04 Gerber Fmt 4.6, Leading zero omitted, Abs format (unit mm)*
G04 Created by KiCad (PCBNEW (5.99.0-7597-g9f5b12c7f7)) date 2021-12-15 12:43:45*
%MOMM*%
%LPD*%
G01*
G04 APERTURE LIST*
G04 Aperture macros list*
%AMRoundRect*
0 Rectangle with rounded corners*
0 $1 Rounding radius*
0 $2 $3 $4 $5 $6 $7 $8 $9 X,Y pos of 4 corners*
0 Add a 4 corners polygon primitive as box body*
4,1,4,$2,$3,$4,$5,$6,$7,$8,$9,$2,$3,0*
0 Add four circle primitives for the rounded corners*
1,1,$1+$1,$2,$3,0*
1,1,$1+$1,$4,$5,0*
1,1,$1+$1,$6,$7,0*
1,1,$1+$1,$8,$9,0*
0 Add four rect primitives between the rounded corners*
20,1,$1+$1,$2,$3,$4,$5,0*
20,1,$1+$1,$4,$5,$6,$7,0*
20,1,$1+$1,$6,$7,$8,$9,0*
20,1,$1+$1,$8,$9,$2,$3,0*%
%AMRotRect*
0 Rectangle, with rotation*
0 The origin of the aperture is its center*
0 $1 length*
0 $2 width*
0 $3 Rotation angle, in degrees counterclockwise*
0 Add horizontal line*
21,1,$1,$2,0,0,$3*%
G04 Aperture macros list end*
%ADD10C,0.300000*%
%ADD11C,0.150000*%
%ADD12C,0.120000*%
%ADD13RoundRect,0.237500X-0.344715X0.008839X0.008839X-0.344715X0.344715X-0.008839X-0.008839X0.344715X0*%
%ADD14RoundRect,0.237500X-0.237500X0.250000X-0.237500X-0.250000X0.237500X-0.250000X0.237500X0.250000X0*%
%ADD15RoundRect,0.237500X-0.250000X-0.237500X0.250000X-0.237500X0.250000X0.237500X-0.250000X0.237500X0*%
%ADD16R,0.900000X0.800000*%
%ADD17RoundRect,0.237500X0.237500X-0.250000X0.237500X0.250000X-0.237500X0.250000X-0.237500X-0.250000X0*%
%ADD18R,5.400000X2.900000*%
%ADD19RoundRect,0.250000X0.412500X0.650000X-0.412500X0.650000X-0.412500X-0.650000X0.412500X-0.650000X0*%
%ADD20RoundRect,0.250000X-0.650000X0.412500X-0.650000X-0.412500X0.650000X-0.412500X0.650000X0.412500X0*%
%ADD21R,1.500000X0.700000*%
%ADD22RoundRect,0.237500X0.250000X0.237500X-0.250000X0.237500X-0.250000X-0.237500X0.250000X-0.237500X0*%
%ADD23C,3.000000*%
%ADD24RoundRect,0.150000X-0.671751X0.459619X0.459619X-0.671751X0.671751X-0.459619X-0.459619X0.671751X0*%
%ADD25O,1.850000X3.048000*%
%ADD26RoundRect,0.237500X0.344715X-0.008839X-0.008839X0.344715X-0.344715X0.008839X0.008839X-0.344715X0*%
%ADD27R,2.500000X1.800000*%
%ADD28C,4.000000*%
%ADD29R,1.600000X1.600000*%
%ADD30C,1.600000*%
%ADD31R,1.100000X4.600000*%
%ADD32R,10.800000X9.400000*%
%ADD33RoundRect,0.250000X-0.625000X0.312500X-0.625000X-0.312500X0.625000X-0.312500X0.625000X0.312500X0*%
%ADD34RoundRect,0.150000X0.150000X-0.825000X0.150000X0.825000X-0.150000X0.825000X-0.150000X-0.825000X0*%
%ADD35RoundRect,0.200000X0.335876X0.053033X0.053033X0.335876X-0.335876X-0.053033X-0.053033X-0.335876X0*%
%ADD36RotRect,2.500000X1.800000X135.000000*%
%ADD37RoundRect,0.250000X-0.220971X0.662913X-0.662913X0.220971X0.220971X-0.662913X0.662913X-0.220971X0*%
%ADD38RoundRect,0.237500X-0.008839X-0.344715X0.344715X0.008839X0.008839X0.344715X-0.344715X-0.008839X0*%
%ADD39RoundRect,0.250000X0.600000X0.750000X-0.600000X0.750000X-0.600000X-0.750000X0.600000X-0.750000X0*%
%ADD40O,1.700000X2.000000*%
%ADD41C,3.500000*%
%ADD42C,1.440000*%
%ADD43RotRect,1.500000X0.700000X315.000000*%
%ADD44R,1.500000X2.000000*%
%ADD45R,3.800000X2.000000*%
%ADD46RoundRect,0.237500X-0.237500X0.300000X-0.237500X-0.300000X0.237500X-0.300000X0.237500X0.300000X0*%
%ADD47RoundRect,0.250000X-0.412500X-0.650000X0.412500X-0.650000X0.412500X0.650000X-0.412500X0.650000X0*%
%ADD48RoundRect,0.250000X0.167938X-0.751301X0.751301X-0.167938X-0.167938X0.751301X-0.751301X0.167938X0*%
%ADD49RoundRect,0.237500X-0.380070X0.044194X0.044194X-0.380070X0.380070X-0.044194X-0.044194X0.380070X0*%
%ADD50R,1.700000X1.700000*%
%ADD51O,1.700000X1.700000*%
%ADD52RoundRect,0.237500X0.008839X0.344715X-0.344715X-0.008839X-0.008839X-0.344715X0.344715X0.008839X0*%
%ADD53R,2.900000X5.400000*%
%ADD54R,1.750000X1.750000*%
%ADD55C,1.750000*%
%ADD56C,2.700000*%
%ADD57RoundRect,0.250000X-0.167938X0.751301X-0.751301X0.167938X0.167938X-0.751301X0.751301X-0.167938X0*%
G04 APERTURE END LIST*
D10*
X84280714Y-114949642D02*
X84495000Y-115021071D01*
X84852142Y-115021071D01*
X84995000Y-114949642D01*
X85066428Y-114878214D01*
X85137857Y-114735357D01*
X85137857Y-114592500D01*
X85066428Y-114449642D01*
X84995000Y-114378214D01*
X84852142Y-114306785D01*
X84566428Y-114235357D01*
X84423571Y-114163928D01*
X84352142Y-114092500D01*
X84280714Y-113949642D01*
X84280714Y-113806785D01*
X84352142Y-113663928D01*
X84423571Y-113592500D01*
X84566428Y-113521071D01*
X84923571Y-113521071D01*
X85137857Y-113592500D01*
X86066428Y-113521071D02*
X86352142Y-113521071D01*
X86495000Y-113592500D01*
X86637857Y-113735357D01*
X86709285Y-114021071D01*
X86709285Y-114521071D01*
X86637857Y-114806785D01*
X86495000Y-114949642D01*
X86352142Y-115021071D01*
X86066428Y-115021071D01*
X85923571Y-114949642D01*
X85780714Y-114806785D01*
X85709285Y-114521071D01*
X85709285Y-114021071D01*
X85780714Y-113735357D01*
X85923571Y-113592500D01*
X86066428Y-113521071D01*
X88066428Y-115021071D02*
X87352142Y-115021071D01*
X87352142Y-113521071D01*
X89209285Y-114949642D02*
X89066428Y-115021071D01*
X88780714Y-115021071D01*
X88637857Y-114949642D01*
X88566428Y-114878214D01*
X88495000Y-114735357D01*
X88495000Y-114306785D01*
X88566428Y-114163928D01*
X88637857Y-114092500D01*
X88780714Y-114021071D01*
X89066428Y-114021071D01*
X89209285Y-114092500D01*
X90066428Y-115021071D02*
X89923571Y-114949642D01*
X89852142Y-114878214D01*
X89780714Y-114735357D01*
X89780714Y-114306785D01*
X89852142Y-114163928D01*
X89923571Y-114092500D01*
X90066428Y-114021071D01*
X90280714Y-114021071D01*
X90423571Y-114092500D01*
X90495000Y-114163928D01*
X90566428Y-114306785D01*
X90566428Y-114735357D01*
X90495000Y-114878214D01*
X90423571Y-114949642D01*
X90280714Y-115021071D01*
X90066428Y-115021071D01*
X91209285Y-114021071D02*
X91209285Y-115021071D01*
X91209285Y-114163928D02*
X91280714Y-114092500D01*
X91423571Y-114021071D01*
X91637857Y-114021071D01*
X91780714Y-114092500D01*
X91852142Y-114235357D01*
X91852142Y-115021071D01*
X92352142Y-114021071D02*
X92923571Y-114021071D01*
X92566428Y-113521071D02*
X92566428Y-114806785D01*
X92637857Y-114949642D01*
X92780714Y-115021071D01*
X92923571Y-115021071D01*
X93423571Y-115021071D02*
X93423571Y-114021071D01*
X93423571Y-114306785D02*
X93495000Y-114163928D01*
X93566428Y-114092500D01*
X93709285Y-114021071D01*
X93852142Y-114021071D01*
X94566428Y-115021071D02*
X94423571Y-114949642D01*
X94352142Y-114878214D01*
X94280714Y-114735357D01*
X94280714Y-114306785D01*
X94352142Y-114163928D01*
X94423571Y-114092500D01*
X94566428Y-114021071D01*
X94780714Y-114021071D01*
X94923571Y-114092500D01*
X94995000Y-114163928D01*
X95066428Y-114306785D01*
X95066428Y-114735357D01*
X94995000Y-114878214D01*
X94923571Y-114949642D01*
X94780714Y-115021071D01*
X94566428Y-115021071D01*
X95923571Y-115021071D02*
X95780714Y-114949642D01*
X95709285Y-114806785D01*
X95709285Y-113521071D01*
X96709285Y-115021071D02*
X96566428Y-114949642D01*
X96495000Y-114806785D01*
X96495000Y-113521071D01*
X97852142Y-114949642D02*
X97709285Y-115021071D01*
X97423571Y-115021071D01*
X97280714Y-114949642D01*
X97209285Y-114806785D01*
X97209285Y-114235357D01*
X97280714Y-114092500D01*
X97423571Y-114021071D01*
X97709285Y-114021071D01*
X97852142Y-114092500D01*
X97923571Y-114235357D01*
X97923571Y-114378214D01*
X97209285Y-114521071D01*
X98566428Y-115021071D02*
X98566428Y-114021071D01*
X98566428Y-114306785D02*
X98637857Y-114163928D01*
X98709285Y-114092500D01*
X98852142Y-114021071D01*
X98995000Y-114021071D01*
X100637857Y-115021071D02*
X100637857Y-114021071D01*
X100637857Y-114306785D02*
X100709285Y-114163928D01*
X100780714Y-114092500D01*
X100923571Y-114021071D01*
X101066428Y-114021071D01*
X102137857Y-114949642D02*
X101995000Y-115021071D01*
X101709285Y-115021071D01*
X101566428Y-114949642D01*
X101495000Y-114806785D01*
X101495000Y-114235357D01*
X101566428Y-114092500D01*
X101709285Y-114021071D01*
X101995000Y-114021071D01*
X102137857Y-114092500D01*
X102209285Y-114235357D01*
X102209285Y-114378214D01*
X101495000Y-114521071D01*
X102709285Y-114021071D02*
X103066428Y-115021071D01*
X103423571Y-114021071D01*
X104280714Y-113521071D02*
X104423571Y-113521071D01*
X104566428Y-113592500D01*
X104637857Y-113663928D01*
X104709285Y-113806785D01*
X104780714Y-114092500D01*
X104780714Y-114449642D01*
X104709285Y-114735357D01*
X104637857Y-114878214D01*
X104566428Y-114949642D01*
X104423571Y-115021071D01*
X104280714Y-115021071D01*
X104137857Y-114949642D01*
X104066428Y-114878214D01*
X103995000Y-114735357D01*
X103923571Y-114449642D01*
X103923571Y-114092500D01*
X103995000Y-113806785D01*
X104066428Y-113663928D01*
X104137857Y-113592500D01*
X104280714Y-113521071D01*
X105423571Y-114878214D02*
X105495000Y-114949642D01*
X105423571Y-115021071D01*
X105352142Y-114949642D01*
X105423571Y-114878214D01*
X105423571Y-115021071D01*
X106923571Y-115021071D02*
X106066428Y-115021071D01*
X106495000Y-115021071D02*
X106495000Y-113521071D01*
X106352142Y-113735357D01*
X106209285Y-113878214D01*
X106066428Y-113949642D01*
X84209285Y-116436071D02*
X84995000Y-116436071D01*
X84209285Y-117436071D01*
X84995000Y-117436071D01*
X85566428Y-117436071D02*
X85566428Y-115936071D01*
X85566428Y-116507500D02*
X85709285Y-116436071D01*
X85995000Y-116436071D01*
X86137857Y-116507500D01*
X86209285Y-116578928D01*
X86280714Y-116721785D01*
X86280714Y-117150357D01*
X86209285Y-117293214D01*
X86137857Y-117364642D01*
X85995000Y-117436071D01*
X85709285Y-117436071D01*
X85566428Y-117364642D01*
X86923571Y-117436071D02*
X86923571Y-116436071D01*
X86923571Y-115936071D02*
X86852142Y-116007500D01*
X86923571Y-116078928D01*
X86995000Y-116007500D01*
X86923571Y-115936071D01*
X86923571Y-116078928D01*
X88280714Y-116436071D02*
X88280714Y-117650357D01*
X88209285Y-117793214D01*
X88137857Y-117864642D01*
X87995000Y-117936071D01*
X87780714Y-117936071D01*
X87637857Y-117864642D01*
X88280714Y-117364642D02*
X88137857Y-117436071D01*
X87852142Y-117436071D01*
X87709285Y-117364642D01*
X87637857Y-117293214D01*
X87566428Y-117150357D01*
X87566428Y-116721785D01*
X87637857Y-116578928D01*
X87709285Y-116507500D01*
X87852142Y-116436071D01*
X88137857Y-116436071D01*
X88280714Y-116507500D01*
X89209285Y-117436071D02*
X89066428Y-117364642D01*
X88995000Y-117293214D01*
X88923571Y-117150357D01*
X88923571Y-116721785D01*
X88995000Y-116578928D01*
X89066428Y-116507500D01*
X89209285Y-116436071D01*
X89423571Y-116436071D01*
X89566428Y-116507500D01*
X89637857Y-116578928D01*
X89709285Y-116721785D01*
X89709285Y-117150357D01*
X89637857Y-117293214D01*
X89566428Y-117364642D01*
X89423571Y-117436071D01*
X89209285Y-117436071D01*
X90280714Y-117364642D02*
X90423571Y-117436071D01*
X90709285Y-117436071D01*
X90852142Y-117364642D01*
X90923571Y-117221785D01*
X90923571Y-117150357D01*
X90852142Y-117007500D01*
X90709285Y-116936071D01*
X90495000Y-116936071D01*
X90352142Y-116864642D01*
X90280714Y-116721785D01*
X90280714Y-116650357D01*
X90352142Y-116507500D01*
X90495000Y-116436071D01*
X90709285Y-116436071D01*
X90852142Y-116507500D01*
X93495000Y-117436071D02*
X92637857Y-117436071D01*
X93066428Y-117436071D02*
X93066428Y-115936071D01*
X92923571Y-116150357D01*
X92780714Y-116293214D01*
X92637857Y-116364642D01*
X94852142Y-115936071D02*
X94137857Y-115936071D01*
X94066428Y-116650357D01*
X94137857Y-116578928D01*
X94280714Y-116507500D01*
X94637857Y-116507500D01*
X94780714Y-116578928D01*
X94852142Y-116650357D01*
X94923571Y-116793214D01*
X94923571Y-117150357D01*
X94852142Y-117293214D01*
X94780714Y-117364642D01*
X94637857Y-117436071D01*
X94280714Y-117436071D01*
X94137857Y-117364642D01*
X94066428Y-117293214D01*
X95566428Y-116864642D02*
X96709285Y-116864642D01*
X98209285Y-117436071D02*
X97352142Y-117436071D01*
X97780714Y-117436071D02*
X97780714Y-115936071D01*
X97637857Y-116150357D01*
X97495000Y-116293214D01*
X97352142Y-116364642D01*
X98780714Y-116078928D02*
X98852142Y-116007500D01*
X98995000Y-115936071D01*
X99352142Y-115936071D01*
X99495000Y-116007500D01*
X99566428Y-116078928D01*
X99637857Y-116221785D01*
X99637857Y-116364642D01*
X99566428Y-116578928D01*
X98709285Y-117436071D01*
X99637857Y-117436071D01*
X100280714Y-116864642D02*
X101423571Y-116864642D01*
X102066428Y-116078928D02*
X102137857Y-116007500D01*
X102280714Y-115936071D01*
X102637857Y-115936071D01*
X102780714Y-116007500D01*
X102852142Y-116078928D01*
X102923571Y-116221785D01*
X102923571Y-116364642D01*
X102852142Y-116578928D01*
X101995000Y-117436071D01*
X102923571Y-117436071D01*
X103852142Y-115936071D02*
X103995000Y-115936071D01*
X104137857Y-116007500D01*
X104209285Y-116078928D01*
X104280714Y-116221785D01*
X104352142Y-116507500D01*
X104352142Y-116864642D01*
X104280714Y-117150357D01*
X104209285Y-117293214D01*
X104137857Y-117364642D01*
X103995000Y-117436071D01*
X103852142Y-117436071D01*
X103709285Y-117364642D01*
X103637857Y-117293214D01*
X103566428Y-117150357D01*
X103495000Y-116864642D01*
X103495000Y-116507500D01*
X103566428Y-116221785D01*
X103637857Y-116078928D01*
X103709285Y-116007500D01*
X103852142Y-115936071D01*
X104923571Y-116078928D02*
X104995000Y-116007500D01*
X105137857Y-115936071D01*
X105495000Y-115936071D01*
X105637857Y-116007500D01*
X105709285Y-116078928D01*
X105780714Y-116221785D01*
X105780714Y-116364642D01*
X105709285Y-116578928D01*
X104852142Y-117436071D01*
X105780714Y-117436071D01*
X107209285Y-117436071D02*
X106352142Y-117436071D01*
X106780714Y-117436071D02*
X106780714Y-115936071D01*
X106637857Y-116150357D01*
X106495000Y-116293214D01*
X106352142Y-116364642D01*
D11*
%TO.C,R11*%
X202085613Y-90223524D02*
X201984598Y-90795943D01*
X202489674Y-90627585D02*
X201782567Y-91334691D01*
X201513193Y-91065317D01*
X201479521Y-90964302D01*
X201479521Y-90896959D01*
X201513193Y-90795943D01*
X201614208Y-90694928D01*
X201715224Y-90661256D01*
X201782567Y-90661256D01*
X201883582Y-90694928D01*
X202152956Y-90964302D01*
X201412178Y-89550088D02*
X201816239Y-89954149D01*
X201614208Y-89752119D02*
X200907101Y-90459226D01*
X201075460Y-90425554D01*
X201210147Y-90425554D01*
X201311163Y-90459226D01*
X200738743Y-88876653D02*
X201142804Y-89280714D01*
X200940773Y-89078684D02*
X200233666Y-89785791D01*
X200402025Y-89752119D01*
X200536712Y-89752119D01*
X200637727Y-89785791D01*
%TO.C,R32*%
X198682380Y-92492857D02*
X198206190Y-92826190D01*
X198682380Y-93064285D02*
X197682380Y-93064285D01*
X197682380Y-92683333D01*
X197730000Y-92588095D01*
X197777619Y-92540476D01*
X197872857Y-92492857D01*
X198015714Y-92492857D01*
X198110952Y-92540476D01*
X198158571Y-92588095D01*
X198206190Y-92683333D01*
X198206190Y-93064285D01*
X197682380Y-92159523D02*
X197682380Y-91540476D01*
X198063333Y-91873809D01*
X198063333Y-91730952D01*
X198110952Y-91635714D01*
X198158571Y-91588095D01*
X198253809Y-91540476D01*
X198491904Y-91540476D01*
X198587142Y-91588095D01*
X198634761Y-91635714D01*
X198682380Y-91730952D01*
X198682380Y-92016666D01*
X198634761Y-92111904D01*
X198587142Y-92159523D01*
X197777619Y-91159523D02*
X197730000Y-91111904D01*
X197682380Y-91016666D01*
X197682380Y-90778571D01*
X197730000Y-90683333D01*
X197777619Y-90635714D01*
X197872857Y-90588095D01*
X197968095Y-90588095D01*
X198110952Y-90635714D01*
X198682380Y-91207142D01*
X198682380Y-90588095D01*
%TO.C,R31*%
X189607142Y-92872380D02*
X189273809Y-92396190D01*
X189035714Y-92872380D02*
X189035714Y-91872380D01*
X189416666Y-91872380D01*
X189511904Y-91920000D01*
X189559523Y-91967619D01*
X189607142Y-92062857D01*
X189607142Y-92205714D01*
X189559523Y-92300952D01*
X189511904Y-92348571D01*
X189416666Y-92396190D01*
X189035714Y-92396190D01*
X189940476Y-91872380D02*
X190559523Y-91872380D01*
X190226190Y-92253333D01*
X190369047Y-92253333D01*
X190464285Y-92300952D01*
X190511904Y-92348571D01*
X190559523Y-92443809D01*
X190559523Y-92681904D01*
X190511904Y-92777142D01*
X190464285Y-92824761D01*
X190369047Y-92872380D01*
X190083333Y-92872380D01*
X189988095Y-92824761D01*
X189940476Y-92777142D01*
X191511904Y-92872380D02*
X190940476Y-92872380D01*
X191226190Y-92872380D02*
X191226190Y-91872380D01*
X191130952Y-92015238D01*
X191035714Y-92110476D01*
X190940476Y-92158095D01*
%TO.C,R30*%
X198732380Y-87042857D02*
X198256190Y-87376190D01*
X198732380Y-87614285D02*
X197732380Y-87614285D01*
X197732380Y-87233333D01*
X197780000Y-87138095D01*
X197827619Y-87090476D01*
X197922857Y-87042857D01*
X198065714Y-87042857D01*
X198160952Y-87090476D01*
X198208571Y-87138095D01*
X198256190Y-87233333D01*
X198256190Y-87614285D01*
X197732380Y-86709523D02*
X197732380Y-86090476D01*
X198113333Y-86423809D01*
X198113333Y-86280952D01*
X198160952Y-86185714D01*
X198208571Y-86138095D01*
X198303809Y-86090476D01*
X198541904Y-86090476D01*
X198637142Y-86138095D01*
X198684761Y-86185714D01*
X198732380Y-86280952D01*
X198732380Y-86566666D01*
X198684761Y-86661904D01*
X198637142Y-86709523D01*
X197732380Y-85471428D02*
X197732380Y-85376190D01*
X197780000Y-85280952D01*
X197827619Y-85233333D01*
X197922857Y-85185714D01*
X198113333Y-85138095D01*
X198351428Y-85138095D01*
X198541904Y-85185714D01*
X198637142Y-85233333D01*
X198684761Y-85280952D01*
X198732380Y-85376190D01*
X198732380Y-85471428D01*
X198684761Y-85566666D01*
X198637142Y-85614285D01*
X198541904Y-85661904D01*
X198351428Y-85709523D01*
X198113333Y-85709523D01*
X197922857Y-85661904D01*
X197827619Y-85614285D01*
X197780000Y-85566666D01*
X197732380Y-85471428D01*
%TO.C,R29*%
X189507142Y-87372380D02*
X189173809Y-86896190D01*
X188935714Y-87372380D02*
X188935714Y-86372380D01*
X189316666Y-86372380D01*
X189411904Y-86420000D01*
X189459523Y-86467619D01*
X189507142Y-86562857D01*
X189507142Y-86705714D01*
X189459523Y-86800952D01*
X189411904Y-86848571D01*
X189316666Y-86896190D01*
X188935714Y-86896190D01*
X189888095Y-86467619D02*
X189935714Y-86420000D01*
X190030952Y-86372380D01*
X190269047Y-86372380D01*
X190364285Y-86420000D01*
X190411904Y-86467619D01*
X190459523Y-86562857D01*
X190459523Y-86658095D01*
X190411904Y-86800952D01*
X189840476Y-87372380D01*
X190459523Y-87372380D01*
X190935714Y-87372380D02*
X191126190Y-87372380D01*
X191221428Y-87324761D01*
X191269047Y-87277142D01*
X191364285Y-87134285D01*
X191411904Y-86943809D01*
X191411904Y-86562857D01*
X191364285Y-86467619D01*
X191316666Y-86420000D01*
X191221428Y-86372380D01*
X191030952Y-86372380D01*
X190935714Y-86420000D01*
X190888095Y-86467619D01*
X190840476Y-86562857D01*
X190840476Y-86800952D01*
X190888095Y-86896190D01*
X190935714Y-86943809D01*
X191030952Y-86991428D01*
X191221428Y-86991428D01*
X191316666Y-86943809D01*
X191364285Y-86896190D01*
X191411904Y-86800952D01*
%TO.C,Q3*%
X193854761Y-90897619D02*
X193759523Y-90850000D01*
X193664285Y-90754761D01*
X193521428Y-90611904D01*
X193426190Y-90564285D01*
X193330952Y-90564285D01*
X193378571Y-90802380D02*
X193283333Y-90754761D01*
X193188095Y-90659523D01*
X193140476Y-90469047D01*
X193140476Y-90135714D01*
X193188095Y-89945238D01*
X193283333Y-89850000D01*
X193378571Y-89802380D01*
X193569047Y-89802380D01*
X193664285Y-89850000D01*
X193759523Y-89945238D01*
X193807142Y-90135714D01*
X193807142Y-90469047D01*
X193759523Y-90659523D01*
X193664285Y-90754761D01*
X193569047Y-90802380D01*
X193378571Y-90802380D01*
X194140476Y-89802380D02*
X194759523Y-89802380D01*
X194426190Y-90183333D01*
X194569047Y-90183333D01*
X194664285Y-90230952D01*
X194711904Y-90278571D01*
X194759523Y-90373809D01*
X194759523Y-90611904D01*
X194711904Y-90707142D01*
X194664285Y-90754761D01*
X194569047Y-90802380D01*
X194283333Y-90802380D01*
X194188095Y-90754761D01*
X194140476Y-90707142D01*
%TO.C,Q2*%
X194004761Y-85447619D02*
X193909523Y-85400000D01*
X193814285Y-85304761D01*
X193671428Y-85161904D01*
X193576190Y-85114285D01*
X193480952Y-85114285D01*
X193528571Y-85352380D02*
X193433333Y-85304761D01*
X193338095Y-85209523D01*
X193290476Y-85019047D01*
X193290476Y-84685714D01*
X193338095Y-84495238D01*
X193433333Y-84400000D01*
X193528571Y-84352380D01*
X193719047Y-84352380D01*
X193814285Y-84400000D01*
X193909523Y-84495238D01*
X193957142Y-84685714D01*
X193957142Y-85019047D01*
X193909523Y-85209523D01*
X193814285Y-85304761D01*
X193719047Y-85352380D01*
X193528571Y-85352380D01*
X194338095Y-84447619D02*
X194385714Y-84400000D01*
X194480952Y-84352380D01*
X194719047Y-84352380D01*
X194814285Y-84400000D01*
X194861904Y-84447619D01*
X194909523Y-84542857D01*
X194909523Y-84638095D01*
X194861904Y-84780952D01*
X194290476Y-85352380D01*
X194909523Y-85352380D01*
%TO.C,R28*%
X137822380Y-95942857D02*
X137346190Y-96276190D01*
X137822380Y-96514285D02*
X136822380Y-96514285D01*
X136822380Y-96133333D01*
X136870000Y-96038095D01*
X136917619Y-95990476D01*
X137012857Y-95942857D01*
X137155714Y-95942857D01*
X137250952Y-95990476D01*
X137298571Y-96038095D01*
X137346190Y-96133333D01*
X137346190Y-96514285D01*
X136917619Y-95561904D02*
X136870000Y-95514285D01*
X136822380Y-95419047D01*
X136822380Y-95180952D01*
X136870000Y-95085714D01*
X136917619Y-95038095D01*
X137012857Y-94990476D01*
X137108095Y-94990476D01*
X137250952Y-95038095D01*
X137822380Y-95609523D01*
X137822380Y-94990476D01*
X137250952Y-94419047D02*
X137203333Y-94514285D01*
X137155714Y-94561904D01*
X137060476Y-94609523D01*
X137012857Y-94609523D01*
X136917619Y-94561904D01*
X136870000Y-94514285D01*
X136822380Y-94419047D01*
X136822380Y-94228571D01*
X136870000Y-94133333D01*
X136917619Y-94085714D01*
X137012857Y-94038095D01*
X137060476Y-94038095D01*
X137155714Y-94085714D01*
X137203333Y-94133333D01*
X137250952Y-94228571D01*
X137250952Y-94419047D01*
X137298571Y-94514285D01*
X137346190Y-94561904D01*
X137441428Y-94609523D01*
X137631904Y-94609523D01*
X137727142Y-94561904D01*
X137774761Y-94514285D01*
X137822380Y-94419047D01*
X137822380Y-94228571D01*
X137774761Y-94133333D01*
X137727142Y-94085714D01*
X137631904Y-94038095D01*
X137441428Y-94038095D01*
X137346190Y-94085714D01*
X137298571Y-94133333D01*
X137250952Y-94228571D01*
%TO.C,R27*%
X137822380Y-92542857D02*
X137346190Y-92876190D01*
X137822380Y-93114285D02*
X136822380Y-93114285D01*
X136822380Y-92733333D01*
X136870000Y-92638095D01*
X136917619Y-92590476D01*
X137012857Y-92542857D01*
X137155714Y-92542857D01*
X137250952Y-92590476D01*
X137298571Y-92638095D01*
X137346190Y-92733333D01*
X137346190Y-93114285D01*
X136917619Y-92161904D02*
X136870000Y-92114285D01*
X136822380Y-92019047D01*
X136822380Y-91780952D01*
X136870000Y-91685714D01*
X136917619Y-91638095D01*
X137012857Y-91590476D01*
X137108095Y-91590476D01*
X137250952Y-91638095D01*
X137822380Y-92209523D01*
X137822380Y-91590476D01*
X136822380Y-91257142D02*
X136822380Y-90590476D01*
X137822380Y-91019047D01*
%TO.C,L3*%
X58852380Y-120166666D02*
X58852380Y-120642857D01*
X57852380Y-120642857D01*
X57852380Y-119928571D02*
X57852380Y-119309523D01*
X58233333Y-119642857D01*
X58233333Y-119500000D01*
X58280952Y-119404761D01*
X58328571Y-119357142D01*
X58423809Y-119309523D01*
X58661904Y-119309523D01*
X58757142Y-119357142D01*
X58804761Y-119404761D01*
X58852380Y-119500000D01*
X58852380Y-119785714D01*
X58804761Y-119880952D01*
X58757142Y-119928571D01*
%TO.C,C10*%
X134257142Y-122007142D02*
X134209523Y-122054761D01*
X134066666Y-122102380D01*
X133971428Y-122102380D01*
X133828571Y-122054761D01*
X133733333Y-121959523D01*
X133685714Y-121864285D01*
X133638095Y-121673809D01*
X133638095Y-121530952D01*
X133685714Y-121340476D01*
X133733333Y-121245238D01*
X133828571Y-121150000D01*
X133971428Y-121102380D01*
X134066666Y-121102380D01*
X134209523Y-121150000D01*
X134257142Y-121197619D01*
X135209523Y-122102380D02*
X134638095Y-122102380D01*
X134923809Y-122102380D02*
X134923809Y-121102380D01*
X134828571Y-121245238D01*
X134733333Y-121340476D01*
X134638095Y-121388095D01*
X135828571Y-121102380D02*
X135923809Y-121102380D01*
X136019047Y-121150000D01*
X136066666Y-121197619D01*
X136114285Y-121292857D01*
X136161904Y-121483333D01*
X136161904Y-121721428D01*
X136114285Y-121911904D01*
X136066666Y-122007142D01*
X136019047Y-122054761D01*
X135923809Y-122102380D01*
X135828571Y-122102380D01*
X135733333Y-122054761D01*
X135685714Y-122007142D01*
X135638095Y-121911904D01*
X135590476Y-121721428D01*
X135590476Y-121483333D01*
X135638095Y-121292857D01*
X135685714Y-121197619D01*
X135733333Y-121150000D01*
X135828571Y-121102380D01*
%TO.C,C3*%
X219333333Y-115207142D02*
X219285714Y-115254761D01*
X219142857Y-115302380D01*
X219047619Y-115302380D01*
X218904761Y-115254761D01*
X218809523Y-115159523D01*
X218761904Y-115064285D01*
X218714285Y-114873809D01*
X218714285Y-114730952D01*
X218761904Y-114540476D01*
X218809523Y-114445238D01*
X218904761Y-114350000D01*
X219047619Y-114302380D01*
X219142857Y-114302380D01*
X219285714Y-114350000D01*
X219333333Y-114397619D01*
X219666666Y-114302380D02*
X220285714Y-114302380D01*
X219952380Y-114683333D01*
X220095238Y-114683333D01*
X220190476Y-114730952D01*
X220238095Y-114778571D01*
X220285714Y-114873809D01*
X220285714Y-115111904D01*
X220238095Y-115207142D01*
X220190476Y-115254761D01*
X220095238Y-115302380D01*
X219809523Y-115302380D01*
X219714285Y-115254761D01*
X219666666Y-115207142D01*
%TO.C,C12*%
X176019342Y-122410457D02*
X176066961Y-122458076D01*
X176114580Y-122600933D01*
X176114580Y-122696171D01*
X176066961Y-122839028D01*
X175971723Y-122934266D01*
X175876485Y-122981885D01*
X175686009Y-123029504D01*
X175543152Y-123029504D01*
X175352676Y-122981885D01*
X175257438Y-122934266D01*
X175162200Y-122839028D01*
X175114580Y-122696171D01*
X175114580Y-122600933D01*
X175162200Y-122458076D01*
X175209819Y-122410457D01*
X176114580Y-121458076D02*
X176114580Y-122029504D01*
X176114580Y-121743790D02*
X175114580Y-121743790D01*
X175257438Y-121839028D01*
X175352676Y-121934266D01*
X175400295Y-122029504D01*
X175209819Y-121077123D02*
X175162200Y-121029504D01*
X175114580Y-120934266D01*
X175114580Y-120696171D01*
X175162200Y-120600933D01*
X175209819Y-120553314D01*
X175305057Y-120505695D01*
X175400295Y-120505695D01*
X175543152Y-120553314D01*
X176114580Y-121124742D01*
X176114580Y-120505695D01*
%TO.C,U5*%
X52088095Y-95477380D02*
X52088095Y-96286904D01*
X52135714Y-96382142D01*
X52183333Y-96429761D01*
X52278571Y-96477380D01*
X52469047Y-96477380D01*
X52564285Y-96429761D01*
X52611904Y-96382142D01*
X52659523Y-96286904D01*
X52659523Y-95477380D01*
X53611904Y-95477380D02*
X53135714Y-95477380D01*
X53088095Y-95953571D01*
X53135714Y-95905952D01*
X53230952Y-95858333D01*
X53469047Y-95858333D01*
X53564285Y-95905952D01*
X53611904Y-95953571D01*
X53659523Y-96048809D01*
X53659523Y-96286904D01*
X53611904Y-96382142D01*
X53564285Y-96429761D01*
X53469047Y-96477380D01*
X53230952Y-96477380D01*
X53135714Y-96429761D01*
X53088095Y-96382142D01*
%TO.C,R18*%
X145094642Y-102407380D02*
X144761309Y-101931190D01*
X144523214Y-102407380D02*
X144523214Y-101407380D01*
X144904166Y-101407380D01*
X144999404Y-101455000D01*
X145047023Y-101502619D01*
X145094642Y-101597857D01*
X145094642Y-101740714D01*
X145047023Y-101835952D01*
X144999404Y-101883571D01*
X144904166Y-101931190D01*
X144523214Y-101931190D01*
X146047023Y-102407380D02*
X145475595Y-102407380D01*
X145761309Y-102407380D02*
X145761309Y-101407380D01*
X145666071Y-101550238D01*
X145570833Y-101645476D01*
X145475595Y-101693095D01*
X146618452Y-101835952D02*
X146523214Y-101788333D01*
X146475595Y-101740714D01*
X146427976Y-101645476D01*
X146427976Y-101597857D01*
X146475595Y-101502619D01*
X146523214Y-101455000D01*
X146618452Y-101407380D01*
X146808928Y-101407380D01*
X146904166Y-101455000D01*
X146951785Y-101502619D01*
X146999404Y-101597857D01*
X146999404Y-101645476D01*
X146951785Y-101740714D01*
X146904166Y-101788333D01*
X146808928Y-101835952D01*
X146618452Y-101835952D01*
X146523214Y-101883571D01*
X146475595Y-101931190D01*
X146427976Y-102026428D01*
X146427976Y-102216904D01*
X146475595Y-102312142D01*
X146523214Y-102359761D01*
X146618452Y-102407380D01*
X146808928Y-102407380D01*
X146904166Y-102359761D01*
X146951785Y-102312142D01*
X146999404Y-102216904D01*
X146999404Y-102026428D01*
X146951785Y-101931190D01*
X146904166Y-101883571D01*
X146808928Y-101835952D01*
%TO.C,J1*%
X164666666Y-122054380D02*
X164666666Y-122768666D01*
X164619047Y-122911523D01*
X164523809Y-123006761D01*
X164380952Y-123054380D01*
X164285714Y-123054380D01*
X165666666Y-123054380D02*
X165095238Y-123054380D01*
X165380952Y-123054380D02*
X165380952Y-122054380D01*
X165285714Y-122197238D01*
X165190476Y-122292476D01*
X165095238Y-122340095D01*
%TO.C,U1*%
X218015304Y-89062191D02*
X218587724Y-88489771D01*
X218621396Y-88388756D01*
X218621396Y-88321412D01*
X218587724Y-88220397D01*
X218453037Y-88085710D01*
X218352022Y-88052038D01*
X218284678Y-88052038D01*
X218183663Y-88085710D01*
X217611243Y-88658130D01*
X217611243Y-87243916D02*
X218015304Y-87647977D01*
X217813274Y-87445947D02*
X217106167Y-88153053D01*
X217274526Y-88119382D01*
X217409213Y-88119382D01*
X217510228Y-88153053D01*
%TO.C,SW2*%
X79564761Y-103203333D02*
X79612380Y-103060476D01*
X79612380Y-102822380D01*
X79564761Y-102727142D01*
X79517142Y-102679523D01*
X79421904Y-102631904D01*
X79326666Y-102631904D01*
X79231428Y-102679523D01*
X79183809Y-102727142D01*
X79136190Y-102822380D01*
X79088571Y-103012857D01*
X79040952Y-103108095D01*
X78993333Y-103155714D01*
X78898095Y-103203333D01*
X78802857Y-103203333D01*
X78707619Y-103155714D01*
X78660000Y-103108095D01*
X78612380Y-103012857D01*
X78612380Y-102774761D01*
X78660000Y-102631904D01*
X78612380Y-102298571D02*
X79612380Y-102060476D01*
X78898095Y-101870000D01*
X79612380Y-101679523D01*
X78612380Y-101441428D01*
X78707619Y-101108095D02*
X78660000Y-101060476D01*
X78612380Y-100965238D01*
X78612380Y-100727142D01*
X78660000Y-100631904D01*
X78707619Y-100584285D01*
X78802857Y-100536666D01*
X78898095Y-100536666D01*
X79040952Y-100584285D01*
X79612380Y-101155714D01*
X79612380Y-100536666D01*
%TO.C,SW1*%
X65594761Y-103203333D02*
X65642380Y-103060476D01*
X65642380Y-102822380D01*
X65594761Y-102727142D01*
X65547142Y-102679523D01*
X65451904Y-102631904D01*
X65356666Y-102631904D01*
X65261428Y-102679523D01*
X65213809Y-102727142D01*
X65166190Y-102822380D01*
X65118571Y-103012857D01*
X65070952Y-103108095D01*
X65023333Y-103155714D01*
X64928095Y-103203333D01*
X64832857Y-103203333D01*
X64737619Y-103155714D01*
X64690000Y-103108095D01*
X64642380Y-103012857D01*
X64642380Y-102774761D01*
X64690000Y-102631904D01*
X64642380Y-102298571D02*
X65642380Y-102060476D01*
X64928095Y-101870000D01*
X65642380Y-101679523D01*
X64642380Y-101441428D01*
X65642380Y-100536666D02*
X65642380Y-101108095D01*
X65642380Y-100822380D02*
X64642380Y-100822380D01*
X64785238Y-100917619D01*
X64880476Y-101012857D01*
X64928095Y-101108095D01*
%TO.C,J7*%
X104666666Y-122054380D02*
X104666666Y-122768666D01*
X104619047Y-122911523D01*
X104523809Y-123006761D01*
X104380952Y-123054380D01*
X104285714Y-123054380D01*
X105047619Y-122054380D02*
X105714285Y-122054380D01*
X105285714Y-123054380D01*
%TO.C,R8*%
X203226569Y-88409132D02*
X203125554Y-88981552D01*
X203630630Y-88813193D02*
X202923524Y-89520300D01*
X202654149Y-89250926D01*
X202620478Y-89149911D01*
X202620478Y-89082567D01*
X202654149Y-88981552D01*
X202755165Y-88880537D01*
X202856180Y-88846865D01*
X202923524Y-88846865D01*
X203024539Y-88880537D01*
X203293913Y-89149911D01*
X202418447Y-88409132D02*
X202452119Y-88510147D01*
X202452119Y-88577491D01*
X202418447Y-88678506D01*
X202384775Y-88712178D01*
X202283760Y-88745850D01*
X202216417Y-88745850D01*
X202115401Y-88712178D01*
X201980714Y-88577491D01*
X201947043Y-88476475D01*
X201947043Y-88409132D01*
X201980714Y-88308117D01*
X202014386Y-88274445D01*
X202115401Y-88240773D01*
X202182745Y-88240773D01*
X202283760Y-88274445D01*
X202418447Y-88409132D01*
X202519462Y-88442804D01*
X202586806Y-88442804D01*
X202687821Y-88409132D01*
X202822508Y-88274445D01*
X202856180Y-88173430D01*
X202856180Y-88106086D01*
X202822508Y-88005071D01*
X202687821Y-87870384D01*
X202586806Y-87836712D01*
X202519462Y-87836712D01*
X202418447Y-87870384D01*
X202283760Y-88005071D01*
X202250088Y-88106086D01*
X202250088Y-88173430D01*
X202283760Y-88274445D01*
%TO.C,J3*%
X204666666Y-122054380D02*
X204666666Y-122768666D01*
X204619047Y-122911523D01*
X204523809Y-123006761D01*
X204380952Y-123054380D01*
X204285714Y-123054380D01*
X205047619Y-122054380D02*
X205666666Y-122054380D01*
X205333333Y-122435333D01*
X205476190Y-122435333D01*
X205571428Y-122482952D01*
X205619047Y-122530571D01*
X205666666Y-122625809D01*
X205666666Y-122863904D01*
X205619047Y-122959142D01*
X205571428Y-123006761D01*
X205476190Y-123054380D01*
X205190476Y-123054380D01*
X205095238Y-123006761D01*
X205047619Y-122959142D01*
%TO.C,R26*%
X154057142Y-98382380D02*
X153723809Y-97906190D01*
X153485714Y-98382380D02*
X153485714Y-97382380D01*
X153866666Y-97382380D01*
X153961904Y-97430000D01*
X154009523Y-97477619D01*
X154057142Y-97572857D01*
X154057142Y-97715714D01*
X154009523Y-97810952D01*
X153961904Y-97858571D01*
X153866666Y-97906190D01*
X153485714Y-97906190D01*
X154438095Y-97477619D02*
X154485714Y-97430000D01*
X154580952Y-97382380D01*
X154819047Y-97382380D01*
X154914285Y-97430000D01*
X154961904Y-97477619D01*
X155009523Y-97572857D01*
X155009523Y-97668095D01*
X154961904Y-97810952D01*
X154390476Y-98382380D01*
X155009523Y-98382380D01*
X155866666Y-97382380D02*
X155676190Y-97382380D01*
X155580952Y-97430000D01*
X155533333Y-97477619D01*
X155438095Y-97620476D01*
X155390476Y-97810952D01*
X155390476Y-98191904D01*
X155438095Y-98287142D01*
X155485714Y-98334761D01*
X155580952Y-98382380D01*
X155771428Y-98382380D01*
X155866666Y-98334761D01*
X155914285Y-98287142D01*
X155961904Y-98191904D01*
X155961904Y-97953809D01*
X155914285Y-97858571D01*
X155866666Y-97810952D01*
X155771428Y-97763333D01*
X155580952Y-97763333D01*
X155485714Y-97810952D01*
X155438095Y-97858571D01*
X155390476Y-97953809D01*
%TO.C,R22*%
X145697380Y-103867857D02*
X145221190Y-104201190D01*
X145697380Y-104439285D02*
X144697380Y-104439285D01*
X144697380Y-104058333D01*
X144745000Y-103963095D01*
X144792619Y-103915476D01*
X144887857Y-103867857D01*
X145030714Y-103867857D01*
X145125952Y-103915476D01*
X145173571Y-103963095D01*
X145221190Y-104058333D01*
X145221190Y-104439285D01*
X144792619Y-103486904D02*
X144745000Y-103439285D01*
X144697380Y-103344047D01*
X144697380Y-103105952D01*
X144745000Y-103010714D01*
X144792619Y-102963095D01*
X144887857Y-102915476D01*
X144983095Y-102915476D01*
X145125952Y-102963095D01*
X145697380Y-103534523D01*
X145697380Y-102915476D01*
X144792619Y-102534523D02*
X144745000Y-102486904D01*
X144697380Y-102391666D01*
X144697380Y-102153571D01*
X144745000Y-102058333D01*
X144792619Y-102010714D01*
X144887857Y-101963095D01*
X144983095Y-101963095D01*
X145125952Y-102010714D01*
X145697380Y-102582142D01*
X145697380Y-101963095D01*
%TO.C,L4*%
X50702380Y-103191666D02*
X50702380Y-103667857D01*
X49702380Y-103667857D01*
X50035714Y-102429761D02*
X50702380Y-102429761D01*
X49654761Y-102667857D02*
X50369047Y-102905952D01*
X50369047Y-102286904D01*
%TO.C,D4*%
X52611904Y-94977380D02*
X52611904Y-93977380D01*
X52850000Y-93977380D01*
X52992857Y-94025000D01*
X53088095Y-94120238D01*
X53135714Y-94215476D01*
X53183333Y-94405952D01*
X53183333Y-94548809D01*
X53135714Y-94739285D01*
X53088095Y-94834523D01*
X52992857Y-94929761D01*
X52850000Y-94977380D01*
X52611904Y-94977380D01*
X54040476Y-94310714D02*
X54040476Y-94977380D01*
X53802380Y-93929761D02*
X53564285Y-94644047D01*
X54183333Y-94644047D01*
%TO.C,SW3*%
X93534761Y-103203333D02*
X93582380Y-103060476D01*
X93582380Y-102822380D01*
X93534761Y-102727142D01*
X93487142Y-102679523D01*
X93391904Y-102631904D01*
X93296666Y-102631904D01*
X93201428Y-102679523D01*
X93153809Y-102727142D01*
X93106190Y-102822380D01*
X93058571Y-103012857D01*
X93010952Y-103108095D01*
X92963333Y-103155714D01*
X92868095Y-103203333D01*
X92772857Y-103203333D01*
X92677619Y-103155714D01*
X92630000Y-103108095D01*
X92582380Y-103012857D01*
X92582380Y-102774761D01*
X92630000Y-102631904D01*
X92582380Y-102298571D02*
X93582380Y-102060476D01*
X92868095Y-101870000D01*
X93582380Y-101679523D01*
X92582380Y-101441428D01*
X92582380Y-101155714D02*
X92582380Y-100536666D01*
X92963333Y-100870000D01*
X92963333Y-100727142D01*
X93010952Y-100631904D01*
X93058571Y-100584285D01*
X93153809Y-100536666D01*
X93391904Y-100536666D01*
X93487142Y-100584285D01*
X93534761Y-100631904D01*
X93582380Y-100727142D01*
X93582380Y-101012857D01*
X93534761Y-101108095D01*
X93487142Y-101155714D01*
%TO.C,J20*%
X224152380Y-106114523D02*
X224866666Y-106114523D01*
X225009523Y-106162142D01*
X225104761Y-106257380D01*
X225152380Y-106400238D01*
X225152380Y-106495476D01*
X224247619Y-105685952D02*
X224200000Y-105638333D01*
X224152380Y-105543095D01*
X224152380Y-105305000D01*
X224200000Y-105209761D01*
X224247619Y-105162142D01*
X224342857Y-105114523D01*
X224438095Y-105114523D01*
X224580952Y-105162142D01*
X225152380Y-105733571D01*
X225152380Y-105114523D01*
X224152380Y-104495476D02*
X224152380Y-104400238D01*
X224200000Y-104305000D01*
X224247619Y-104257380D01*
X224342857Y-104209761D01*
X224533333Y-104162142D01*
X224771428Y-104162142D01*
X224961904Y-104209761D01*
X225057142Y-104257380D01*
X225104761Y-104305000D01*
X225152380Y-104400238D01*
X225152380Y-104495476D01*
X225104761Y-104590714D01*
X225057142Y-104638333D01*
X224961904Y-104685952D01*
X224771428Y-104733571D01*
X224533333Y-104733571D01*
X224342857Y-104685952D01*
X224247619Y-104638333D01*
X224200000Y-104590714D01*
X224152380Y-104495476D01*
%TO.C,SW5*%
X121474761Y-103203333D02*
X121522380Y-103060476D01*
X121522380Y-102822380D01*
X121474761Y-102727142D01*
X121427142Y-102679523D01*
X121331904Y-102631904D01*
X121236666Y-102631904D01*
X121141428Y-102679523D01*
X121093809Y-102727142D01*
X121046190Y-102822380D01*
X120998571Y-103012857D01*
X120950952Y-103108095D01*
X120903333Y-103155714D01*
X120808095Y-103203333D01*
X120712857Y-103203333D01*
X120617619Y-103155714D01*
X120570000Y-103108095D01*
X120522380Y-103012857D01*
X120522380Y-102774761D01*
X120570000Y-102631904D01*
X120522380Y-102298571D02*
X121522380Y-102060476D01*
X120808095Y-101870000D01*
X121522380Y-101679523D01*
X120522380Y-101441428D01*
X120522380Y-100584285D02*
X120522380Y-101060476D01*
X120998571Y-101108095D01*
X120950952Y-101060476D01*
X120903333Y-100965238D01*
X120903333Y-100727142D01*
X120950952Y-100631904D01*
X120998571Y-100584285D01*
X121093809Y-100536666D01*
X121331904Y-100536666D01*
X121427142Y-100584285D01*
X121474761Y-100631904D01*
X121522380Y-100727142D01*
X121522380Y-100965238D01*
X121474761Y-101060476D01*
X121427142Y-101108095D01*
%TO.C,C13*%
X197257142Y-106107142D02*
X197209523Y-106154761D01*
X197066666Y-106202380D01*
X196971428Y-106202380D01*
X196828571Y-106154761D01*
X196733333Y-106059523D01*
X196685714Y-105964285D01*
X196638095Y-105773809D01*
X196638095Y-105630952D01*
X196685714Y-105440476D01*
X196733333Y-105345238D01*
X196828571Y-105250000D01*
X196971428Y-105202380D01*
X197066666Y-105202380D01*
X197209523Y-105250000D01*
X197257142Y-105297619D01*
X198209523Y-106202380D02*
X197638095Y-106202380D01*
X197923809Y-106202380D02*
X197923809Y-105202380D01*
X197828571Y-105345238D01*
X197733333Y-105440476D01*
X197638095Y-105488095D01*
X198542857Y-105202380D02*
X199161904Y-105202380D01*
X198828571Y-105583333D01*
X198971428Y-105583333D01*
X199066666Y-105630952D01*
X199114285Y-105678571D01*
X199161904Y-105773809D01*
X199161904Y-106011904D01*
X199114285Y-106107142D01*
X199066666Y-106154761D01*
X198971428Y-106202380D01*
X198685714Y-106202380D01*
X198590476Y-106154761D01*
X198542857Y-106107142D01*
%TO.C,U7*%
X170602380Y-111461904D02*
X171411904Y-111461904D01*
X171507142Y-111414285D01*
X171554761Y-111366666D01*
X171602380Y-111271428D01*
X171602380Y-111080952D01*
X171554761Y-110985714D01*
X171507142Y-110938095D01*
X171411904Y-110890476D01*
X170602380Y-110890476D01*
X170602380Y-110509523D02*
X170602380Y-109842857D01*
X171602380Y-110271428D01*
%TO.C,R19*%
X167857142Y-106482380D02*
X167523809Y-106006190D01*
X167285714Y-106482380D02*
X167285714Y-105482380D01*
X167666666Y-105482380D01*
X167761904Y-105530000D01*
X167809523Y-105577619D01*
X167857142Y-105672857D01*
X167857142Y-105815714D01*
X167809523Y-105910952D01*
X167761904Y-105958571D01*
X167666666Y-106006190D01*
X167285714Y-106006190D01*
X168809523Y-106482380D02*
X168238095Y-106482380D01*
X168523809Y-106482380D02*
X168523809Y-105482380D01*
X168428571Y-105625238D01*
X168333333Y-105720476D01*
X168238095Y-105768095D01*
X169285714Y-106482380D02*
X169476190Y-106482380D01*
X169571428Y-106434761D01*
X169619047Y-106387142D01*
X169714285Y-106244285D01*
X169761904Y-106053809D01*
X169761904Y-105672857D01*
X169714285Y-105577619D01*
X169666666Y-105530000D01*
X169571428Y-105482380D01*
X169380952Y-105482380D01*
X169285714Y-105530000D01*
X169238095Y-105577619D01*
X169190476Y-105672857D01*
X169190476Y-105910952D01*
X169238095Y-106006190D01*
X169285714Y-106053809D01*
X169380952Y-106101428D01*
X169571428Y-106101428D01*
X169666666Y-106053809D01*
X169714285Y-106006190D01*
X169761904Y-105910952D01*
%TO.C,R2*%
X224772380Y-117166666D02*
X224296190Y-117500000D01*
X224772380Y-117738095D02*
X223772380Y-117738095D01*
X223772380Y-117357142D01*
X223820000Y-117261904D01*
X223867619Y-117214285D01*
X223962857Y-117166666D01*
X224105714Y-117166666D01*
X224200952Y-117214285D01*
X224248571Y-117261904D01*
X224296190Y-117357142D01*
X224296190Y-117738095D01*
X223867619Y-116785714D02*
X223820000Y-116738095D01*
X223772380Y-116642857D01*
X223772380Y-116404761D01*
X223820000Y-116309523D01*
X223867619Y-116261904D01*
X223962857Y-116214285D01*
X224058095Y-116214285D01*
X224200952Y-116261904D01*
X224772380Y-116833333D01*
X224772380Y-116214285D01*
%TO.C,J13*%
X84190476Y-122054380D02*
X84190476Y-122768666D01*
X84142857Y-122911523D01*
X84047619Y-123006761D01*
X83904761Y-123054380D01*
X83809523Y-123054380D01*
X85190476Y-123054380D02*
X84619047Y-123054380D01*
X84904761Y-123054380D02*
X84904761Y-122054380D01*
X84809523Y-122197238D01*
X84714285Y-122292476D01*
X84619047Y-122340095D01*
X85523809Y-122054380D02*
X86142857Y-122054380D01*
X85809523Y-122435333D01*
X85952380Y-122435333D01*
X86047619Y-122482952D01*
X86095238Y-122530571D01*
X86142857Y-122625809D01*
X86142857Y-122863904D01*
X86095238Y-122959142D01*
X86047619Y-123006761D01*
X85952380Y-123054380D01*
X85666666Y-123054380D01*
X85571428Y-123006761D01*
X85523809Y-122959142D01*
%TO.C,D3*%
X60761904Y-111952380D02*
X60761904Y-110952380D01*
X61000000Y-110952380D01*
X61142857Y-111000000D01*
X61238095Y-111095238D01*
X61285714Y-111190476D01*
X61333333Y-111380952D01*
X61333333Y-111523809D01*
X61285714Y-111714285D01*
X61238095Y-111809523D01*
X61142857Y-111904761D01*
X61000000Y-111952380D01*
X60761904Y-111952380D01*
X61666666Y-110952380D02*
X62285714Y-110952380D01*
X61952380Y-111333333D01*
X62095238Y-111333333D01*
X62190476Y-111380952D01*
X62238095Y-111428571D01*
X62285714Y-111523809D01*
X62285714Y-111761904D01*
X62238095Y-111857142D01*
X62190476Y-111904761D01*
X62095238Y-111952380D01*
X61809523Y-111952380D01*
X61714285Y-111904761D01*
X61666666Y-111857142D01*
%TO.C,J16*%
X184190476Y-122054380D02*
X184190476Y-122768666D01*
X184142857Y-122911523D01*
X184047619Y-123006761D01*
X183904761Y-123054380D01*
X183809523Y-123054380D01*
X185190476Y-123054380D02*
X184619047Y-123054380D01*
X184904761Y-123054380D02*
X184904761Y-122054380D01*
X184809523Y-122197238D01*
X184714285Y-122292476D01*
X184619047Y-122340095D01*
X186047619Y-122054380D02*
X185857142Y-122054380D01*
X185761904Y-122102000D01*
X185714285Y-122149619D01*
X185619047Y-122292476D01*
X185571428Y-122482952D01*
X185571428Y-122863904D01*
X185619047Y-122959142D01*
X185666666Y-123006761D01*
X185761904Y-123054380D01*
X185952380Y-123054380D01*
X186047619Y-123006761D01*
X186095238Y-122959142D01*
X186142857Y-122863904D01*
X186142857Y-122625809D01*
X186095238Y-122530571D01*
X186047619Y-122482952D01*
X185952380Y-122435333D01*
X185761904Y-122435333D01*
X185666666Y-122482952D01*
X185619047Y-122530571D01*
X185571428Y-122625809D01*
%TO.C,U8*%
X149872380Y-107961904D02*
X150681904Y-107961904D01*
X150777142Y-107914285D01*
X150824761Y-107866666D01*
X150872380Y-107771428D01*
X150872380Y-107580952D01*
X150824761Y-107485714D01*
X150777142Y-107438095D01*
X150681904Y-107390476D01*
X149872380Y-107390476D01*
X150300952Y-106771428D02*
X150253333Y-106866666D01*
X150205714Y-106914285D01*
X150110476Y-106961904D01*
X150062857Y-106961904D01*
X149967619Y-106914285D01*
X149920000Y-106866666D01*
X149872380Y-106771428D01*
X149872380Y-106580952D01*
X149920000Y-106485714D01*
X149967619Y-106438095D01*
X150062857Y-106390476D01*
X150110476Y-106390476D01*
X150205714Y-106438095D01*
X150253333Y-106485714D01*
X150300952Y-106580952D01*
X150300952Y-106771428D01*
X150348571Y-106866666D01*
X150396190Y-106914285D01*
X150491428Y-106961904D01*
X150681904Y-106961904D01*
X150777142Y-106914285D01*
X150824761Y-106866666D01*
X150872380Y-106771428D01*
X150872380Y-106580952D01*
X150824761Y-106485714D01*
X150777142Y-106438095D01*
X150681904Y-106390476D01*
X150491428Y-106390476D01*
X150396190Y-106438095D01*
X150348571Y-106485714D01*
X150300952Y-106580952D01*
%TO.C,J19*%
X119190476Y-124054380D02*
X119190476Y-124768666D01*
X119142857Y-124911523D01*
X119047619Y-125006761D01*
X118904761Y-125054380D01*
X118809523Y-125054380D01*
X120190476Y-125054380D02*
X119619047Y-125054380D01*
X119904761Y-125054380D02*
X119904761Y-124054380D01*
X119809523Y-124197238D01*
X119714285Y-124292476D01*
X119619047Y-124340095D01*
X120666666Y-125054380D02*
X120857142Y-125054380D01*
X120952380Y-125006761D01*
X121000000Y-124959142D01*
X121095238Y-124816285D01*
X121142857Y-124625809D01*
X121142857Y-124244857D01*
X121095238Y-124149619D01*
X121047619Y-124102000D01*
X120952380Y-124054380D01*
X120761904Y-124054380D01*
X120666666Y-124102000D01*
X120619047Y-124149619D01*
X120571428Y-124244857D01*
X120571428Y-124482952D01*
X120619047Y-124578190D01*
X120666666Y-124625809D01*
X120761904Y-124673428D01*
X120952380Y-124673428D01*
X121047619Y-124625809D01*
X121095238Y-124578190D01*
X121142857Y-124482952D01*
%TO.C,J4*%
X209666666Y-122054380D02*
X209666666Y-122768666D01*
X209619047Y-122911523D01*
X209523809Y-123006761D01*
X209380952Y-123054380D01*
X209285714Y-123054380D01*
X210571428Y-122387714D02*
X210571428Y-123054380D01*
X210333333Y-122006761D02*
X210095238Y-122721047D01*
X210714285Y-122721047D01*
%TO.C,C8*%
X97807142Y-121166666D02*
X97854761Y-121214285D01*
X97902380Y-121357142D01*
X97902380Y-121452380D01*
X97854761Y-121595238D01*
X97759523Y-121690476D01*
X97664285Y-121738095D01*
X97473809Y-121785714D01*
X97330952Y-121785714D01*
X97140476Y-121738095D01*
X97045238Y-121690476D01*
X96950000Y-121595238D01*
X96902380Y-121452380D01*
X96902380Y-121357142D01*
X96950000Y-121214285D01*
X96997619Y-121166666D01*
X97330952Y-120595238D02*
X97283333Y-120690476D01*
X97235714Y-120738095D01*
X97140476Y-120785714D01*
X97092857Y-120785714D01*
X96997619Y-120738095D01*
X96950000Y-120690476D01*
X96902380Y-120595238D01*
X96902380Y-120404761D01*
X96950000Y-120309523D01*
X96997619Y-120261904D01*
X97092857Y-120214285D01*
X97140476Y-120214285D01*
X97235714Y-120261904D01*
X97283333Y-120309523D01*
X97330952Y-120404761D01*
X97330952Y-120595238D01*
X97378571Y-120690476D01*
X97426190Y-120738095D01*
X97521428Y-120785714D01*
X97711904Y-120785714D01*
X97807142Y-120738095D01*
X97854761Y-120690476D01*
X97902380Y-120595238D01*
X97902380Y-120404761D01*
X97854761Y-120309523D01*
X97807142Y-120261904D01*
X97711904Y-120214285D01*
X97521428Y-120214285D01*
X97426190Y-120261904D01*
X97378571Y-120309523D01*
X97330952Y-120404761D01*
%TO.C,J6*%
X59666666Y-122054380D02*
X59666666Y-122768666D01*
X59619047Y-122911523D01*
X59523809Y-123006761D01*
X59380952Y-123054380D01*
X59285714Y-123054380D01*
X60571428Y-122054380D02*
X60380952Y-122054380D01*
X60285714Y-122102000D01*
X60238095Y-122149619D01*
X60142857Y-122292476D01*
X60095238Y-122482952D01*
X60095238Y-122863904D01*
X60142857Y-122959142D01*
X60190476Y-123006761D01*
X60285714Y-123054380D01*
X60476190Y-123054380D01*
X60571428Y-123006761D01*
X60619047Y-122959142D01*
X60666666Y-122863904D01*
X60666666Y-122625809D01*
X60619047Y-122530571D01*
X60571428Y-122482952D01*
X60476190Y-122435333D01*
X60285714Y-122435333D01*
X60190476Y-122482952D01*
X60142857Y-122530571D01*
X60095238Y-122625809D01*
%TO.C,C5*%
X62333333Y-114707142D02*
X62285714Y-114754761D01*
X62142857Y-114802380D01*
X62047619Y-114802380D01*
X61904761Y-114754761D01*
X61809523Y-114659523D01*
X61761904Y-114564285D01*
X61714285Y-114373809D01*
X61714285Y-114230952D01*
X61761904Y-114040476D01*
X61809523Y-113945238D01*
X61904761Y-113850000D01*
X62047619Y-113802380D01*
X62142857Y-113802380D01*
X62285714Y-113850000D01*
X62333333Y-113897619D01*
X63238095Y-113802380D02*
X62761904Y-113802380D01*
X62714285Y-114278571D01*
X62761904Y-114230952D01*
X62857142Y-114183333D01*
X63095238Y-114183333D01*
X63190476Y-114230952D01*
X63238095Y-114278571D01*
X63285714Y-114373809D01*
X63285714Y-114611904D01*
X63238095Y-114707142D01*
X63190476Y-114754761D01*
X63095238Y-114802380D01*
X62857142Y-114802380D01*
X62761904Y-114754761D01*
X62714285Y-114707142D01*
%TO.C,R6*%
X220426569Y-95809132D02*
X220325554Y-96381552D01*
X220830630Y-96213193D02*
X220123524Y-96920300D01*
X219854149Y-96650926D01*
X219820478Y-96549911D01*
X219820478Y-96482567D01*
X219854149Y-96381552D01*
X219955165Y-96280537D01*
X220056180Y-96246865D01*
X220123524Y-96246865D01*
X220224539Y-96280537D01*
X220493913Y-96549911D01*
X219113371Y-95910147D02*
X219248058Y-96044834D01*
X219349073Y-96078506D01*
X219416417Y-96078506D01*
X219584775Y-96044834D01*
X219753134Y-95943819D01*
X220022508Y-95674445D01*
X220056180Y-95573430D01*
X220056180Y-95506086D01*
X220022508Y-95405071D01*
X219887821Y-95270384D01*
X219786806Y-95236712D01*
X219719462Y-95236712D01*
X219618447Y-95270384D01*
X219450088Y-95438743D01*
X219416417Y-95539758D01*
X219416417Y-95607101D01*
X219450088Y-95708117D01*
X219584775Y-95842804D01*
X219685791Y-95876475D01*
X219753134Y-95876475D01*
X219854149Y-95842804D01*
%TO.C,J18*%
X189190476Y-122054380D02*
X189190476Y-122768666D01*
X189142857Y-122911523D01*
X189047619Y-123006761D01*
X188904761Y-123054380D01*
X188809523Y-123054380D01*
X190190476Y-123054380D02*
X189619047Y-123054380D01*
X189904761Y-123054380D02*
X189904761Y-122054380D01*
X189809523Y-122197238D01*
X189714285Y-122292476D01*
X189619047Y-122340095D01*
X190761904Y-122482952D02*
X190666666Y-122435333D01*
X190619047Y-122387714D01*
X190571428Y-122292476D01*
X190571428Y-122244857D01*
X190619047Y-122149619D01*
X190666666Y-122102000D01*
X190761904Y-122054380D01*
X190952380Y-122054380D01*
X191047619Y-122102000D01*
X191095238Y-122149619D01*
X191142857Y-122244857D01*
X191142857Y-122292476D01*
X191095238Y-122387714D01*
X191047619Y-122435333D01*
X190952380Y-122482952D01*
X190761904Y-122482952D01*
X190666666Y-122530571D01*
X190619047Y-122578190D01*
X190571428Y-122673428D01*
X190571428Y-122863904D01*
X190619047Y-122959142D01*
X190666666Y-123006761D01*
X190761904Y-123054380D01*
X190952380Y-123054380D01*
X191047619Y-123006761D01*
X191095238Y-122959142D01*
X191142857Y-122863904D01*
X191142857Y-122673428D01*
X191095238Y-122578190D01*
X191047619Y-122530571D01*
X190952380Y-122482952D01*
%TO.C,J5*%
X64666666Y-122054380D02*
X64666666Y-122768666D01*
X64619047Y-122911523D01*
X64523809Y-123006761D01*
X64380952Y-123054380D01*
X64285714Y-123054380D01*
X65619047Y-122054380D02*
X65142857Y-122054380D01*
X65095238Y-122530571D01*
X65142857Y-122482952D01*
X65238095Y-122435333D01*
X65476190Y-122435333D01*
X65571428Y-122482952D01*
X65619047Y-122530571D01*
X65666666Y-122625809D01*
X65666666Y-122863904D01*
X65619047Y-122959142D01*
X65571428Y-123006761D01*
X65476190Y-123054380D01*
X65238095Y-123054380D01*
X65142857Y-123006761D01*
X65095238Y-122959142D01*
%TO.C,R14*%
X104857142Y-112882380D02*
X104523809Y-112406190D01*
X104285714Y-112882380D02*
X104285714Y-111882380D01*
X104666666Y-111882380D01*
X104761904Y-111930000D01*
X104809523Y-111977619D01*
X104857142Y-112072857D01*
X104857142Y-112215714D01*
X104809523Y-112310952D01*
X104761904Y-112358571D01*
X104666666Y-112406190D01*
X104285714Y-112406190D01*
X105809523Y-112882380D02*
X105238095Y-112882380D01*
X105523809Y-112882380D02*
X105523809Y-111882380D01*
X105428571Y-112025238D01*
X105333333Y-112120476D01*
X105238095Y-112168095D01*
X106666666Y-112215714D02*
X106666666Y-112882380D01*
X106428571Y-111834761D02*
X106190476Y-112549047D01*
X106809523Y-112549047D01*
%TO.C,D5*%
X143074026Y-117369797D02*
X142366920Y-118076904D01*
X142198561Y-117908545D01*
X142131217Y-117773858D01*
X142131217Y-117639171D01*
X142164889Y-117538156D01*
X142265904Y-117369797D01*
X142366920Y-117268782D01*
X142535278Y-117167766D01*
X142636294Y-117134095D01*
X142770981Y-117134095D01*
X142905668Y-117201438D01*
X143074026Y-117369797D01*
X141323095Y-117033079D02*
X141659813Y-117369797D01*
X142030202Y-117066751D01*
X141962858Y-117066751D01*
X141861843Y-117033079D01*
X141693484Y-116864721D01*
X141659813Y-116763705D01*
X141659813Y-116696362D01*
X141693484Y-116595347D01*
X141861843Y-116426988D01*
X141962858Y-116393316D01*
X142030202Y-116393316D01*
X142131217Y-116426988D01*
X142299576Y-116595347D01*
X142333248Y-116696362D01*
X142333248Y-116763705D01*
%TO.C,J12*%
X74190476Y-122054380D02*
X74190476Y-122768666D01*
X74142857Y-122911523D01*
X74047619Y-123006761D01*
X73904761Y-123054380D01*
X73809523Y-123054380D01*
X75190476Y-123054380D02*
X74619047Y-123054380D01*
X74904761Y-123054380D02*
X74904761Y-122054380D01*
X74809523Y-122197238D01*
X74714285Y-122292476D01*
X74619047Y-122340095D01*
X75571428Y-122149619D02*
X75619047Y-122102000D01*
X75714285Y-122054380D01*
X75952380Y-122054380D01*
X76047619Y-122102000D01*
X76095238Y-122149619D01*
X76142857Y-122244857D01*
X76142857Y-122340095D01*
X76095238Y-122482952D01*
X75523809Y-123054380D01*
X76142857Y-123054380D01*
%TO.C,R5*%
X147388964Y-122124666D02*
X146816544Y-122023651D01*
X146984903Y-122528727D02*
X146277796Y-121821621D01*
X146547170Y-121552246D01*
X146648185Y-121518575D01*
X146715529Y-121518575D01*
X146816544Y-121552246D01*
X146917559Y-121653262D01*
X146951231Y-121754277D01*
X146951231Y-121821621D01*
X146917559Y-121922636D01*
X146648185Y-122192010D01*
X147321621Y-120777796D02*
X146984903Y-121114514D01*
X147287949Y-121484903D01*
X147287949Y-121417559D01*
X147321621Y-121316544D01*
X147489979Y-121148185D01*
X147590995Y-121114514D01*
X147658338Y-121114514D01*
X147759353Y-121148185D01*
X147927712Y-121316544D01*
X147961384Y-121417559D01*
X147961384Y-121484903D01*
X147927712Y-121585918D01*
X147759353Y-121754277D01*
X147658338Y-121787949D01*
X147590995Y-121787949D01*
%TO.C,R10*%
X199154149Y-87363287D02*
X198581730Y-87262272D01*
X198750088Y-87767348D02*
X198042982Y-87060241D01*
X198312356Y-86790867D01*
X198413371Y-86757195D01*
X198480714Y-86757195D01*
X198581730Y-86790867D01*
X198682745Y-86891882D01*
X198716417Y-86992898D01*
X198716417Y-87060241D01*
X198682745Y-87161256D01*
X198413371Y-87430630D01*
X199827585Y-86689852D02*
X199423524Y-87093913D01*
X199625554Y-86891882D02*
X198918447Y-86184775D01*
X198952119Y-86353134D01*
X198952119Y-86487821D01*
X198918447Y-86588837D01*
X199558211Y-85545012D02*
X199625554Y-85477669D01*
X199726569Y-85443997D01*
X199793913Y-85443997D01*
X199894928Y-85477669D01*
X200063287Y-85578684D01*
X200231646Y-85747043D01*
X200332661Y-85915401D01*
X200366333Y-86016417D01*
X200366333Y-86083760D01*
X200332661Y-86184775D01*
X200265317Y-86252119D01*
X200164302Y-86285791D01*
X200096959Y-86285791D01*
X199995943Y-86252119D01*
X199827585Y-86151104D01*
X199659226Y-85982745D01*
X199558211Y-85814386D01*
X199524539Y-85713371D01*
X199524539Y-85646027D01*
X199558211Y-85545012D01*
%TO.C,D1*%
X165261904Y-112952380D02*
X165261904Y-111952380D01*
X165500000Y-111952380D01*
X165642857Y-112000000D01*
X165738095Y-112095238D01*
X165785714Y-112190476D01*
X165833333Y-112380952D01*
X165833333Y-112523809D01*
X165785714Y-112714285D01*
X165738095Y-112809523D01*
X165642857Y-112904761D01*
X165500000Y-112952380D01*
X165261904Y-112952380D01*
X166785714Y-112952380D02*
X166214285Y-112952380D01*
X166500000Y-112952380D02*
X166500000Y-111952380D01*
X166404761Y-112095238D01*
X166309523Y-112190476D01*
X166214285Y-112238095D01*
%TO.C,R4*%
X59622380Y-99691666D02*
X59146190Y-100025000D01*
X59622380Y-100263095D02*
X58622380Y-100263095D01*
X58622380Y-99882142D01*
X58670000Y-99786904D01*
X58717619Y-99739285D01*
X58812857Y-99691666D01*
X58955714Y-99691666D01*
X59050952Y-99739285D01*
X59098571Y-99786904D01*
X59146190Y-99882142D01*
X59146190Y-100263095D01*
X58955714Y-98834523D02*
X59622380Y-98834523D01*
X58574761Y-99072619D02*
X59289047Y-99310714D01*
X59289047Y-98691666D01*
%TO.C,J8*%
X99666666Y-122054380D02*
X99666666Y-122768666D01*
X99619047Y-122911523D01*
X99523809Y-123006761D01*
X99380952Y-123054380D01*
X99285714Y-123054380D01*
X100285714Y-122482952D02*
X100190476Y-122435333D01*
X100142857Y-122387714D01*
X100095238Y-122292476D01*
X100095238Y-122244857D01*
X100142857Y-122149619D01*
X100190476Y-122102000D01*
X100285714Y-122054380D01*
X100476190Y-122054380D01*
X100571428Y-122102000D01*
X100619047Y-122149619D01*
X100666666Y-122244857D01*
X100666666Y-122292476D01*
X100619047Y-122387714D01*
X100571428Y-122435333D01*
X100476190Y-122482952D01*
X100285714Y-122482952D01*
X100190476Y-122530571D01*
X100142857Y-122578190D01*
X100095238Y-122673428D01*
X100095238Y-122863904D01*
X100142857Y-122959142D01*
X100190476Y-123006761D01*
X100285714Y-123054380D01*
X100476190Y-123054380D01*
X100571428Y-123006761D01*
X100619047Y-122959142D01*
X100666666Y-122863904D01*
X100666666Y-122673428D01*
X100619047Y-122578190D01*
X100571428Y-122530571D01*
X100476190Y-122482952D01*
%TO.C,J23*%
X143940476Y-96502380D02*
X143940476Y-97216666D01*
X143892857Y-97359523D01*
X143797619Y-97454761D01*
X143654761Y-97502380D01*
X143559523Y-97502380D01*
X144369047Y-96597619D02*
X144416666Y-96550000D01*
X144511904Y-96502380D01*
X144750000Y-96502380D01*
X144845238Y-96550000D01*
X144892857Y-96597619D01*
X144940476Y-96692857D01*
X144940476Y-96788095D01*
X144892857Y-96930952D01*
X144321428Y-97502380D01*
X144940476Y-97502380D01*
X145273809Y-96502380D02*
X145892857Y-96502380D01*
X145559523Y-96883333D01*
X145702380Y-96883333D01*
X145797619Y-96930952D01*
X145845238Y-96978571D01*
X145892857Y-97073809D01*
X145892857Y-97311904D01*
X145845238Y-97407142D01*
X145797619Y-97454761D01*
X145702380Y-97502380D01*
X145416666Y-97502380D01*
X145321428Y-97454761D01*
X145273809Y-97407142D01*
%TO.C,H4*%
X39238095Y-80952380D02*
X39238095Y-79952380D01*
X39238095Y-80428571D02*
X39809523Y-80428571D01*
X39809523Y-80952380D02*
X39809523Y-79952380D01*
X40714285Y-80285714D02*
X40714285Y-80952380D01*
X40476190Y-79904761D02*
X40238095Y-80619047D01*
X40857142Y-80619047D01*
%TO.C,RV2*%
X189664761Y-101892380D02*
X189331428Y-101416190D01*
X189093333Y-101892380D02*
X189093333Y-100892380D01*
X189474285Y-100892380D01*
X189569523Y-100940000D01*
X189617142Y-100987619D01*
X189664761Y-101082857D01*
X189664761Y-101225714D01*
X189617142Y-101320952D01*
X189569523Y-101368571D01*
X189474285Y-101416190D01*
X189093333Y-101416190D01*
X189950476Y-100892380D02*
X190283809Y-101892380D01*
X190617142Y-100892380D01*
X190902857Y-100987619D02*
X190950476Y-100940000D01*
X191045714Y-100892380D01*
X191283809Y-100892380D01*
X191379047Y-100940000D01*
X191426666Y-100987619D01*
X191474285Y-101082857D01*
X191474285Y-101178095D01*
X191426666Y-101320952D01*
X190855238Y-101892380D01*
X191474285Y-101892380D01*
%TO.C,J9*%
X144666666Y-122054380D02*
X144666666Y-122768666D01*
X144619047Y-122911523D01*
X144523809Y-123006761D01*
X144380952Y-123054380D01*
X144285714Y-123054380D01*
X145190476Y-123054380D02*
X145380952Y-123054380D01*
X145476190Y-123006761D01*
X145523809Y-122959142D01*
X145619047Y-122816285D01*
X145666666Y-122625809D01*
X145666666Y-122244857D01*
X145619047Y-122149619D01*
X145571428Y-122102000D01*
X145476190Y-122054380D01*
X145285714Y-122054380D01*
X145190476Y-122102000D01*
X145142857Y-122149619D01*
X145095238Y-122244857D01*
X145095238Y-122482952D01*
X145142857Y-122578190D01*
X145190476Y-122625809D01*
X145285714Y-122673428D01*
X145476190Y-122673428D01*
X145571428Y-122625809D01*
X145619047Y-122578190D01*
X145666666Y-122482952D01*
%TO.C,U6*%
X143836447Y-117475363D02*
X144408867Y-116902943D01*
X144442539Y-116801928D01*
X144442539Y-116734584D01*
X144408867Y-116633569D01*
X144274180Y-116498882D01*
X144173165Y-116465210D01*
X144105821Y-116465210D01*
X144004806Y-116498882D01*
X143432386Y-117071302D01*
X142792623Y-116431538D02*
X142927310Y-116566225D01*
X143028325Y-116599897D01*
X143095669Y-116599897D01*
X143264028Y-116566225D01*
X143432386Y-116465210D01*
X143701760Y-116195836D01*
X143735432Y-116094821D01*
X143735432Y-116027477D01*
X143701760Y-115926462D01*
X143567073Y-115791775D01*
X143466058Y-115758103D01*
X143398715Y-115758103D01*
X143297699Y-115791775D01*
X143129341Y-115960134D01*
X143095669Y-116061149D01*
X143095669Y-116128493D01*
X143129341Y-116229508D01*
X143264028Y-116364195D01*
X143365043Y-116397867D01*
X143432386Y-116397867D01*
X143533402Y-116364195D01*
%TO.C,H6*%
X219238095Y-120952380D02*
X219238095Y-119952380D01*
X219238095Y-120428571D02*
X219809523Y-120428571D01*
X219809523Y-120952380D02*
X219809523Y-119952380D01*
X220714285Y-119952380D02*
X220523809Y-119952380D01*
X220428571Y-120000000D01*
X220380952Y-120047619D01*
X220285714Y-120190476D01*
X220238095Y-120380952D01*
X220238095Y-120761904D01*
X220285714Y-120857142D01*
X220333333Y-120904761D01*
X220428571Y-120952380D01*
X220619047Y-120952380D01*
X220714285Y-120904761D01*
X220761904Y-120857142D01*
X220809523Y-120761904D01*
X220809523Y-120523809D01*
X220761904Y-120428571D01*
X220714285Y-120380952D01*
X220619047Y-120333333D01*
X220428571Y-120333333D01*
X220333333Y-120380952D01*
X220285714Y-120428571D01*
X220238095Y-120523809D01*
%TO.C,C2*%
X167333333Y-115707142D02*
X167285714Y-115754761D01*
X167142857Y-115802380D01*
X167047619Y-115802380D01*
X166904761Y-115754761D01*
X166809523Y-115659523D01*
X166761904Y-115564285D01*
X166714285Y-115373809D01*
X166714285Y-115230952D01*
X166761904Y-115040476D01*
X166809523Y-114945238D01*
X166904761Y-114850000D01*
X167047619Y-114802380D01*
X167142857Y-114802380D01*
X167285714Y-114850000D01*
X167333333Y-114897619D01*
X167714285Y-114897619D02*
X167761904Y-114850000D01*
X167857142Y-114802380D01*
X168095238Y-114802380D01*
X168190476Y-114850000D01*
X168238095Y-114897619D01*
X168285714Y-114992857D01*
X168285714Y-115088095D01*
X168238095Y-115230952D01*
X167666666Y-115802380D01*
X168285714Y-115802380D01*
%TO.C,Q1*%
X150647619Y-90995238D02*
X150600000Y-91090476D01*
X150504761Y-91185714D01*
X150361904Y-91328571D01*
X150314285Y-91423809D01*
X150314285Y-91519047D01*
X150552380Y-91471428D02*
X150504761Y-91566666D01*
X150409523Y-91661904D01*
X150219047Y-91709523D01*
X149885714Y-91709523D01*
X149695238Y-91661904D01*
X149600000Y-91566666D01*
X149552380Y-91471428D01*
X149552380Y-91280952D01*
X149600000Y-91185714D01*
X149695238Y-91090476D01*
X149885714Y-91042857D01*
X150219047Y-91042857D01*
X150409523Y-91090476D01*
X150504761Y-91185714D01*
X150552380Y-91280952D01*
X150552380Y-91471428D01*
X150552380Y-90090476D02*
X150552380Y-90661904D01*
X150552380Y-90376190D02*
X149552380Y-90376190D01*
X149695238Y-90471428D01*
X149790476Y-90566666D01*
X149838095Y-90661904D01*
%TO.C,J11*%
X79190476Y-122054380D02*
X79190476Y-122768666D01*
X79142857Y-122911523D01*
X79047619Y-123006761D01*
X78904761Y-123054380D01*
X78809523Y-123054380D01*
X80190476Y-123054380D02*
X79619047Y-123054380D01*
X79904761Y-123054380D02*
X79904761Y-122054380D01*
X79809523Y-122197238D01*
X79714285Y-122292476D01*
X79619047Y-122340095D01*
X81142857Y-123054380D02*
X80571428Y-123054380D01*
X80857142Y-123054380D02*
X80857142Y-122054380D01*
X80761904Y-122197238D01*
X80666666Y-122292476D01*
X80571428Y-122340095D01*
%TO.C,R7*%
X218426569Y-97809132D02*
X218325554Y-98381552D01*
X218830630Y-98213193D02*
X218123524Y-98920300D01*
X217854149Y-98650926D01*
X217820478Y-98549911D01*
X217820478Y-98482567D01*
X217854149Y-98381552D01*
X217955165Y-98280537D01*
X218056180Y-98246865D01*
X218123524Y-98246865D01*
X218224539Y-98280537D01*
X218493913Y-98549911D01*
X217483760Y-98280537D02*
X217012356Y-97809132D01*
X218022508Y-97405071D01*
%TO.C,L6*%
X184852380Y-114966666D02*
X184852380Y-115442857D01*
X183852380Y-115442857D01*
X183852380Y-114204761D02*
X183852380Y-114395238D01*
X183900000Y-114490476D01*
X183947619Y-114538095D01*
X184090476Y-114633333D01*
X184280952Y-114680952D01*
X184661904Y-114680952D01*
X184757142Y-114633333D01*
X184804761Y-114585714D01*
X184852380Y-114490476D01*
X184852380Y-114300000D01*
X184804761Y-114204761D01*
X184757142Y-114157142D01*
X184661904Y-114109523D01*
X184423809Y-114109523D01*
X184328571Y-114157142D01*
X184280952Y-114204761D01*
X184233333Y-114300000D01*
X184233333Y-114490476D01*
X184280952Y-114585714D01*
X184328571Y-114633333D01*
X184423809Y-114680952D01*
%TO.C,U4*%
X60238095Y-112452380D02*
X60238095Y-113261904D01*
X60285714Y-113357142D01*
X60333333Y-113404761D01*
X60428571Y-113452380D01*
X60619047Y-113452380D01*
X60714285Y-113404761D01*
X60761904Y-113357142D01*
X60809523Y-113261904D01*
X60809523Y-112452380D01*
X61714285Y-112785714D02*
X61714285Y-113452380D01*
X61476190Y-112404761D02*
X61238095Y-113119047D01*
X61857142Y-113119047D01*
%TO.C,H5*%
X219238095Y-80952380D02*
X219238095Y-79952380D01*
X219238095Y-80428571D02*
X219809523Y-80428571D01*
X219809523Y-80952380D02*
X219809523Y-79952380D01*
X220761904Y-79952380D02*
X220285714Y-79952380D01*
X220238095Y-80428571D01*
X220285714Y-80380952D01*
X220380952Y-80333333D01*
X220619047Y-80333333D01*
X220714285Y-80380952D01*
X220761904Y-80428571D01*
X220809523Y-80523809D01*
X220809523Y-80761904D01*
X220761904Y-80857142D01*
X220714285Y-80904761D01*
X220619047Y-80952380D01*
X220380952Y-80952380D01*
X220285714Y-80904761D01*
X220238095Y-80857142D01*
%TO.C,D6*%
X178161904Y-119052380D02*
X178161904Y-118052380D01*
X178400000Y-118052380D01*
X178542857Y-118100000D01*
X178638095Y-118195238D01*
X178685714Y-118290476D01*
X178733333Y-118480952D01*
X178733333Y-118623809D01*
X178685714Y-118814285D01*
X178638095Y-118909523D01*
X178542857Y-119004761D01*
X178400000Y-119052380D01*
X178161904Y-119052380D01*
X179590476Y-118052380D02*
X179400000Y-118052380D01*
X179304761Y-118100000D01*
X179257142Y-118147619D01*
X179161904Y-118290476D01*
X179114285Y-118480952D01*
X179114285Y-118861904D01*
X179161904Y-118957142D01*
X179209523Y-119004761D01*
X179304761Y-119052380D01*
X179495238Y-119052380D01*
X179590476Y-119004761D01*
X179638095Y-118957142D01*
X179685714Y-118861904D01*
X179685714Y-118623809D01*
X179638095Y-118528571D01*
X179590476Y-118480952D01*
X179495238Y-118433333D01*
X179304761Y-118433333D01*
X179209523Y-118480952D01*
X179161904Y-118528571D01*
X179114285Y-118623809D01*
%TO.C,R1*%
X172772380Y-117666666D02*
X172296190Y-118000000D01*
X172772380Y-118238095D02*
X171772380Y-118238095D01*
X171772380Y-117857142D01*
X171820000Y-117761904D01*
X171867619Y-117714285D01*
X171962857Y-117666666D01*
X172105714Y-117666666D01*
X172200952Y-117714285D01*
X172248571Y-117761904D01*
X172296190Y-117857142D01*
X172296190Y-118238095D01*
X172772380Y-116714285D02*
X172772380Y-117285714D01*
X172772380Y-117000000D02*
X171772380Y-117000000D01*
X171915238Y-117095238D01*
X172010476Y-117190476D01*
X172058095Y-117285714D01*
%TO.C,J15*%
X179190476Y-122054380D02*
X179190476Y-122768666D01*
X179142857Y-122911523D01*
X179047619Y-123006761D01*
X178904761Y-123054380D01*
X178809523Y-123054380D01*
X180190476Y-123054380D02*
X179619047Y-123054380D01*
X179904761Y-123054380D02*
X179904761Y-122054380D01*
X179809523Y-122197238D01*
X179714285Y-122292476D01*
X179619047Y-122340095D01*
X181095238Y-122054380D02*
X180619047Y-122054380D01*
X180571428Y-122530571D01*
X180619047Y-122482952D01*
X180714285Y-122435333D01*
X180952380Y-122435333D01*
X181047619Y-122482952D01*
X181095238Y-122530571D01*
X181142857Y-122625809D01*
X181142857Y-122863904D01*
X181095238Y-122959142D01*
X181047619Y-123006761D01*
X180952380Y-123054380D01*
X180714285Y-123054380D01*
X180619047Y-123006761D01*
X180571428Y-122959142D01*
%TO.C,C14*%
X186087142Y-113642857D02*
X186134761Y-113690476D01*
X186182380Y-113833333D01*
X186182380Y-113928571D01*
X186134761Y-114071428D01*
X186039523Y-114166666D01*
X185944285Y-114214285D01*
X185753809Y-114261904D01*
X185610952Y-114261904D01*
X185420476Y-114214285D01*
X185325238Y-114166666D01*
X185230000Y-114071428D01*
X185182380Y-113928571D01*
X185182380Y-113833333D01*
X185230000Y-113690476D01*
X185277619Y-113642857D01*
X186182380Y-112690476D02*
X186182380Y-113261904D01*
X186182380Y-112976190D02*
X185182380Y-112976190D01*
X185325238Y-113071428D01*
X185420476Y-113166666D01*
X185468095Y-113261904D01*
X185515714Y-111833333D02*
X186182380Y-111833333D01*
X185134761Y-112071428D02*
X185849047Y-112309523D01*
X185849047Y-111690476D01*
%TO.C,R20*%
X164257142Y-109282380D02*
X163923809Y-108806190D01*
X163685714Y-109282380D02*
X163685714Y-108282380D01*
X164066666Y-108282380D01*
X164161904Y-108330000D01*
X164209523Y-108377619D01*
X164257142Y-108472857D01*
X164257142Y-108615714D01*
X164209523Y-108710952D01*
X164161904Y-108758571D01*
X164066666Y-108806190D01*
X163685714Y-108806190D01*
X164638095Y-108377619D02*
X164685714Y-108330000D01*
X164780952Y-108282380D01*
X165019047Y-108282380D01*
X165114285Y-108330000D01*
X165161904Y-108377619D01*
X165209523Y-108472857D01*
X165209523Y-108568095D01*
X165161904Y-108710952D01*
X164590476Y-109282380D01*
X165209523Y-109282380D01*
X165828571Y-108282380D02*
X165923809Y-108282380D01*
X166019047Y-108330000D01*
X166066666Y-108377619D01*
X166114285Y-108472857D01*
X166161904Y-108663333D01*
X166161904Y-108901428D01*
X166114285Y-109091904D01*
X166066666Y-109187142D01*
X166019047Y-109234761D01*
X165923809Y-109282380D01*
X165828571Y-109282380D01*
X165733333Y-109234761D01*
X165685714Y-109187142D01*
X165638095Y-109091904D01*
X165590476Y-108901428D01*
X165590476Y-108663333D01*
X165638095Y-108472857D01*
X165685714Y-108377619D01*
X165733333Y-108330000D01*
X165828571Y-108282380D01*
%TO.C,R24*%
X167757142Y-109282380D02*
X167423809Y-108806190D01*
X167185714Y-109282380D02*
X167185714Y-108282380D01*
X167566666Y-108282380D01*
X167661904Y-108330000D01*
X167709523Y-108377619D01*
X167757142Y-108472857D01*
X167757142Y-108615714D01*
X167709523Y-108710952D01*
X167661904Y-108758571D01*
X167566666Y-108806190D01*
X167185714Y-108806190D01*
X168138095Y-108377619D02*
X168185714Y-108330000D01*
X168280952Y-108282380D01*
X168519047Y-108282380D01*
X168614285Y-108330000D01*
X168661904Y-108377619D01*
X168709523Y-108472857D01*
X168709523Y-108568095D01*
X168661904Y-108710952D01*
X168090476Y-109282380D01*
X168709523Y-109282380D01*
X169566666Y-108615714D02*
X169566666Y-109282380D01*
X169328571Y-108234761D02*
X169090476Y-108949047D01*
X169709523Y-108949047D01*
%TO.C,C1*%
X167333333Y-120007142D02*
X167285714Y-120054761D01*
X167142857Y-120102380D01*
X167047619Y-120102380D01*
X166904761Y-120054761D01*
X166809523Y-119959523D01*
X166761904Y-119864285D01*
X166714285Y-119673809D01*
X166714285Y-119530952D01*
X166761904Y-119340476D01*
X166809523Y-119245238D01*
X166904761Y-119150000D01*
X167047619Y-119102380D01*
X167142857Y-119102380D01*
X167285714Y-119150000D01*
X167333333Y-119197619D01*
X168285714Y-120102380D02*
X167714285Y-120102380D01*
X168000000Y-120102380D02*
X168000000Y-119102380D01*
X167904761Y-119245238D01*
X167809523Y-119340476D01*
X167714285Y-119388095D01*
%TO.C,H3*%
X39238095Y-120952380D02*
X39238095Y-119952380D01*
X39238095Y-120428571D02*
X39809523Y-120428571D01*
X39809523Y-120952380D02*
X39809523Y-119952380D01*
X40190476Y-119952380D02*
X40809523Y-119952380D01*
X40476190Y-120333333D01*
X40619047Y-120333333D01*
X40714285Y-120380952D01*
X40761904Y-120428571D01*
X40809523Y-120523809D01*
X40809523Y-120761904D01*
X40761904Y-120857142D01*
X40714285Y-120904761D01*
X40619047Y-120952380D01*
X40333333Y-120952380D01*
X40238095Y-120904761D01*
X40190476Y-120857142D01*
%TO.C,L1*%
X163852380Y-121666666D02*
X163852380Y-122142857D01*
X162852380Y-122142857D01*
X163852380Y-120809523D02*
X163852380Y-121380952D01*
X163852380Y-121095238D02*
X162852380Y-121095238D01*
X162995238Y-121190476D01*
X163090476Y-121285714D01*
X163138095Y-121380952D01*
%TO.C,C9*%
X146026539Y-109762241D02*
X146026539Y-109829584D01*
X145959195Y-109964271D01*
X145891852Y-110031615D01*
X145757164Y-110098958D01*
X145622477Y-110098958D01*
X145521462Y-110065287D01*
X145353103Y-109964271D01*
X145252088Y-109863256D01*
X145151073Y-109694897D01*
X145117401Y-109593882D01*
X145117401Y-109459195D01*
X145184745Y-109324508D01*
X145252088Y-109257164D01*
X145386775Y-109189821D01*
X145454119Y-109189821D01*
X146430600Y-109492867D02*
X146565287Y-109358180D01*
X146598958Y-109257164D01*
X146598958Y-109189821D01*
X146565287Y-109021462D01*
X146464271Y-108853103D01*
X146194897Y-108583729D01*
X146093882Y-108550058D01*
X146026539Y-108550058D01*
X145925523Y-108583729D01*
X145790836Y-108718416D01*
X145757164Y-108819432D01*
X145757164Y-108886775D01*
X145790836Y-108987790D01*
X145959195Y-109156149D01*
X146060210Y-109189821D01*
X146127554Y-109189821D01*
X146228569Y-109156149D01*
X146363256Y-109021462D01*
X146396928Y-108920447D01*
X146396928Y-108853103D01*
X146363256Y-108752088D01*
%TO.C,R12*%
X76857142Y-112882380D02*
X76523809Y-112406190D01*
X76285714Y-112882380D02*
X76285714Y-111882380D01*
X76666666Y-111882380D01*
X76761904Y-111930000D01*
X76809523Y-111977619D01*
X76857142Y-112072857D01*
X76857142Y-112215714D01*
X76809523Y-112310952D01*
X76761904Y-112358571D01*
X76666666Y-112406190D01*
X76285714Y-112406190D01*
X77809523Y-112882380D02*
X77238095Y-112882380D01*
X77523809Y-112882380D02*
X77523809Y-111882380D01*
X77428571Y-112025238D01*
X77333333Y-112120476D01*
X77238095Y-112168095D01*
X78190476Y-111977619D02*
X78238095Y-111930000D01*
X78333333Y-111882380D01*
X78571428Y-111882380D01*
X78666666Y-111930000D01*
X78714285Y-111977619D01*
X78761904Y-112072857D01*
X78761904Y-112168095D01*
X78714285Y-112310952D01*
X78142857Y-112882380D01*
X78761904Y-112882380D01*
%TO.C,R15*%
X108357142Y-110022380D02*
X108023809Y-109546190D01*
X107785714Y-110022380D02*
X107785714Y-109022380D01*
X108166666Y-109022380D01*
X108261904Y-109070000D01*
X108309523Y-109117619D01*
X108357142Y-109212857D01*
X108357142Y-109355714D01*
X108309523Y-109450952D01*
X108261904Y-109498571D01*
X108166666Y-109546190D01*
X107785714Y-109546190D01*
X109309523Y-110022380D02*
X108738095Y-110022380D01*
X109023809Y-110022380D02*
X109023809Y-109022380D01*
X108928571Y-109165238D01*
X108833333Y-109260476D01*
X108738095Y-109308095D01*
X110214285Y-109022380D02*
X109738095Y-109022380D01*
X109690476Y-109498571D01*
X109738095Y-109450952D01*
X109833333Y-109403333D01*
X110071428Y-109403333D01*
X110166666Y-109450952D01*
X110214285Y-109498571D01*
X110261904Y-109593809D01*
X110261904Y-109831904D01*
X110214285Y-109927142D01*
X110166666Y-109974761D01*
X110071428Y-110022380D01*
X109833333Y-110022380D01*
X109738095Y-109974761D01*
X109690476Y-109927142D01*
%TO.C,U3*%
X217238095Y-112952380D02*
X217238095Y-113761904D01*
X217285714Y-113857142D01*
X217333333Y-113904761D01*
X217428571Y-113952380D01*
X217619047Y-113952380D01*
X217714285Y-113904761D01*
X217761904Y-113857142D01*
X217809523Y-113761904D01*
X217809523Y-112952380D01*
X218190476Y-112952380D02*
X218809523Y-112952380D01*
X218476190Y-113333333D01*
X218619047Y-113333333D01*
X218714285Y-113380952D01*
X218761904Y-113428571D01*
X218809523Y-113523809D01*
X218809523Y-113761904D01*
X218761904Y-113857142D01*
X218714285Y-113904761D01*
X218619047Y-113952380D01*
X218333333Y-113952380D01*
X218238095Y-113904761D01*
X218190476Y-113857142D01*
%TO.C,J2*%
X169666666Y-122054380D02*
X169666666Y-122768666D01*
X169619047Y-122911523D01*
X169523809Y-123006761D01*
X169380952Y-123054380D01*
X169285714Y-123054380D01*
X170095238Y-122149619D02*
X170142857Y-122102000D01*
X170238095Y-122054380D01*
X170476190Y-122054380D01*
X170571428Y-122102000D01*
X170619047Y-122149619D01*
X170666666Y-122244857D01*
X170666666Y-122340095D01*
X170619047Y-122482952D01*
X170047619Y-123054380D01*
X170666666Y-123054380D01*
%TO.C,C15*%
X151718269Y-100290867D02*
X151785613Y-100290867D01*
X151920300Y-100358211D01*
X151987643Y-100425554D01*
X152054987Y-100560241D01*
X152054987Y-100694928D01*
X152021315Y-100795943D01*
X151920300Y-100964302D01*
X151819285Y-101065317D01*
X151650926Y-101166333D01*
X151549911Y-101200004D01*
X151415224Y-101200004D01*
X151280537Y-101132661D01*
X151213193Y-101065317D01*
X151145850Y-100930630D01*
X151145850Y-100863287D01*
X151112178Y-99550088D02*
X151516239Y-99954149D01*
X151314208Y-99752119D02*
X150607101Y-100459226D01*
X150775460Y-100425554D01*
X150910147Y-100425554D01*
X151011163Y-100459226D01*
X149765308Y-99617432D02*
X150102025Y-99954149D01*
X150472414Y-99651104D01*
X150405071Y-99651104D01*
X150304056Y-99617432D01*
X150135697Y-99449073D01*
X150102025Y-99348058D01*
X150102025Y-99280714D01*
X150135697Y-99179699D01*
X150304056Y-99011340D01*
X150405071Y-98977669D01*
X150472414Y-98977669D01*
X150573430Y-99011340D01*
X150741788Y-99179699D01*
X150775460Y-99280714D01*
X150775460Y-99348058D01*
%TO.C,J22*%
X203712380Y-101139523D02*
X204426666Y-101139523D01*
X204569523Y-101187142D01*
X204664761Y-101282380D01*
X204712380Y-101425238D01*
X204712380Y-101520476D01*
X203807619Y-100710952D02*
X203760000Y-100663333D01*
X203712380Y-100568095D01*
X203712380Y-100330000D01*
X203760000Y-100234761D01*
X203807619Y-100187142D01*
X203902857Y-100139523D01*
X203998095Y-100139523D01*
X204140952Y-100187142D01*
X204712380Y-100758571D01*
X204712380Y-100139523D01*
X203807619Y-99758571D02*
X203760000Y-99710952D01*
X203712380Y-99615714D01*
X203712380Y-99377619D01*
X203760000Y-99282380D01*
X203807619Y-99234761D01*
X203902857Y-99187142D01*
X203998095Y-99187142D01*
X204140952Y-99234761D01*
X204712380Y-99806190D01*
X204712380Y-99187142D01*
%TO.C,SW4*%
X107504761Y-103203333D02*
X107552380Y-103060476D01*
X107552380Y-102822380D01*
X107504761Y-102727142D01*
X107457142Y-102679523D01*
X107361904Y-102631904D01*
X107266666Y-102631904D01*
X107171428Y-102679523D01*
X107123809Y-102727142D01*
X107076190Y-102822380D01*
X107028571Y-103012857D01*
X106980952Y-103108095D01*
X106933333Y-103155714D01*
X106838095Y-103203333D01*
X106742857Y-103203333D01*
X106647619Y-103155714D01*
X106600000Y-103108095D01*
X106552380Y-103012857D01*
X106552380Y-102774761D01*
X106600000Y-102631904D01*
X106552380Y-102298571D02*
X107552380Y-102060476D01*
X106838095Y-101870000D01*
X107552380Y-101679523D01*
X106552380Y-101441428D01*
X106885714Y-100631904D02*
X107552380Y-100631904D01*
X106504761Y-100870000D02*
X107219047Y-101108095D01*
X107219047Y-100489047D01*
%TO.C,R9*%
X205013193Y-92548895D02*
X204440773Y-92447880D01*
X204609132Y-92952956D02*
X203902025Y-92245850D01*
X204171399Y-91976475D01*
X204272414Y-91942804D01*
X204339758Y-91942804D01*
X204440773Y-91976475D01*
X204541788Y-92077491D01*
X204575460Y-92178506D01*
X204575460Y-92245850D01*
X204541788Y-92346865D01*
X204272414Y-92616239D01*
X205349911Y-92212178D02*
X205484598Y-92077491D01*
X205518269Y-91976475D01*
X205518269Y-91909132D01*
X205484598Y-91740773D01*
X205383582Y-91572414D01*
X205114208Y-91303040D01*
X205013193Y-91269369D01*
X204945850Y-91269369D01*
X204844834Y-91303040D01*
X204710147Y-91437727D01*
X204676475Y-91538743D01*
X204676475Y-91606086D01*
X204710147Y-91707101D01*
X204878506Y-91875460D01*
X204979521Y-91909132D01*
X205046865Y-91909132D01*
X205147880Y-91875460D01*
X205282567Y-91740773D01*
X205316239Y-91639758D01*
X205316239Y-91572414D01*
X205282567Y-91471399D01*
%TO.C,J21*%
X203712380Y-83359523D02*
X204426666Y-83359523D01*
X204569523Y-83407142D01*
X204664761Y-83502380D01*
X204712380Y-83645238D01*
X204712380Y-83740476D01*
X203807619Y-82930952D02*
X203760000Y-82883333D01*
X203712380Y-82788095D01*
X203712380Y-82550000D01*
X203760000Y-82454761D01*
X203807619Y-82407142D01*
X203902857Y-82359523D01*
X203998095Y-82359523D01*
X204140952Y-82407142D01*
X204712380Y-82978571D01*
X204712380Y-82359523D01*
X204712380Y-81407142D02*
X204712380Y-81978571D01*
X204712380Y-81692857D02*
X203712380Y-81692857D01*
X203855238Y-81788095D01*
X203950476Y-81883333D01*
X203998095Y-81978571D01*
%TO.C,R3*%
X67772380Y-116666666D02*
X67296190Y-117000000D01*
X67772380Y-117238095D02*
X66772380Y-117238095D01*
X66772380Y-116857142D01*
X66820000Y-116761904D01*
X66867619Y-116714285D01*
X66962857Y-116666666D01*
X67105714Y-116666666D01*
X67200952Y-116714285D01*
X67248571Y-116761904D01*
X67296190Y-116857142D01*
X67296190Y-117238095D01*
X66772380Y-116333333D02*
X66772380Y-115714285D01*
X67153333Y-116047619D01*
X67153333Y-115904761D01*
X67200952Y-115809523D01*
X67248571Y-115761904D01*
X67343809Y-115714285D01*
X67581904Y-115714285D01*
X67677142Y-115761904D01*
X67724761Y-115809523D01*
X67772380Y-115904761D01*
X67772380Y-116190476D01*
X67724761Y-116285714D01*
X67677142Y-116333333D01*
%TO.C,R23*%
X167957142Y-104882380D02*
X167623809Y-104406190D01*
X167385714Y-104882380D02*
X167385714Y-103882380D01*
X167766666Y-103882380D01*
X167861904Y-103930000D01*
X167909523Y-103977619D01*
X167957142Y-104072857D01*
X167957142Y-104215714D01*
X167909523Y-104310952D01*
X167861904Y-104358571D01*
X167766666Y-104406190D01*
X167385714Y-104406190D01*
X168338095Y-103977619D02*
X168385714Y-103930000D01*
X168480952Y-103882380D01*
X168719047Y-103882380D01*
X168814285Y-103930000D01*
X168861904Y-103977619D01*
X168909523Y-104072857D01*
X168909523Y-104168095D01*
X168861904Y-104310952D01*
X168290476Y-104882380D01*
X168909523Y-104882380D01*
X169242857Y-103882380D02*
X169861904Y-103882380D01*
X169528571Y-104263333D01*
X169671428Y-104263333D01*
X169766666Y-104310952D01*
X169814285Y-104358571D01*
X169861904Y-104453809D01*
X169861904Y-104691904D01*
X169814285Y-104787142D01*
X169766666Y-104834761D01*
X169671428Y-104882380D01*
X169385714Y-104882380D01*
X169290476Y-104834761D01*
X169242857Y-104787142D01*
%TO.C,U2*%
X165238095Y-113452380D02*
X165238095Y-114261904D01*
X165285714Y-114357142D01*
X165333333Y-114404761D01*
X165428571Y-114452380D01*
X165619047Y-114452380D01*
X165714285Y-114404761D01*
X165761904Y-114357142D01*
X165809523Y-114261904D01*
X165809523Y-113452380D01*
X166238095Y-113547619D02*
X166285714Y-113500000D01*
X166380952Y-113452380D01*
X166619047Y-113452380D01*
X166714285Y-113500000D01*
X166761904Y-113547619D01*
X166809523Y-113642857D01*
X166809523Y-113738095D01*
X166761904Y-113880952D01*
X166190476Y-114452380D01*
X166809523Y-114452380D01*
%TO.C,C7*%
X54183333Y-97732142D02*
X54135714Y-97779761D01*
X53992857Y-97827380D01*
X53897619Y-97827380D01*
X53754761Y-97779761D01*
X53659523Y-97684523D01*
X53611904Y-97589285D01*
X53564285Y-97398809D01*
X53564285Y-97255952D01*
X53611904Y-97065476D01*
X53659523Y-96970238D01*
X53754761Y-96875000D01*
X53897619Y-96827380D01*
X53992857Y-96827380D01*
X54135714Y-96875000D01*
X54183333Y-96922619D01*
X54516666Y-96827380D02*
X55183333Y-96827380D01*
X54754761Y-97827380D01*
%TO.C,C4*%
X207333333Y-120007142D02*
X207285714Y-120054761D01*
X207142857Y-120102380D01*
X207047619Y-120102380D01*
X206904761Y-120054761D01*
X206809523Y-119959523D01*
X206761904Y-119864285D01*
X206714285Y-119673809D01*
X206714285Y-119530952D01*
X206761904Y-119340476D01*
X206809523Y-119245238D01*
X206904761Y-119150000D01*
X207047619Y-119102380D01*
X207142857Y-119102380D01*
X207285714Y-119150000D01*
X207333333Y-119197619D01*
X208190476Y-119435714D02*
X208190476Y-120102380D01*
X207952380Y-119054761D02*
X207714285Y-119769047D01*
X208333333Y-119769047D01*
%TO.C,L5*%
X121833333Y-125852380D02*
X121357142Y-125852380D01*
X121357142Y-124852380D01*
X122642857Y-124852380D02*
X122166666Y-124852380D01*
X122119047Y-125328571D01*
X122166666Y-125280952D01*
X122261904Y-125233333D01*
X122500000Y-125233333D01*
X122595238Y-125280952D01*
X122642857Y-125328571D01*
X122690476Y-125423809D01*
X122690476Y-125661904D01*
X122642857Y-125757142D01*
X122595238Y-125804761D01*
X122500000Y-125852380D01*
X122261904Y-125852380D01*
X122166666Y-125804761D01*
X122119047Y-125757142D01*
%TO.C,R16*%
X131857142Y-112882380D02*
X131523809Y-112406190D01*
X131285714Y-112882380D02*
X131285714Y-111882380D01*
X131666666Y-111882380D01*
X131761904Y-111930000D01*
X131809523Y-111977619D01*
X131857142Y-112072857D01*
X131857142Y-112215714D01*
X131809523Y-112310952D01*
X131761904Y-112358571D01*
X131666666Y-112406190D01*
X131285714Y-112406190D01*
X132809523Y-112882380D02*
X132238095Y-112882380D01*
X132523809Y-112882380D02*
X132523809Y-111882380D01*
X132428571Y-112025238D01*
X132333333Y-112120476D01*
X132238095Y-112168095D01*
X133666666Y-111882380D02*
X133476190Y-111882380D01*
X133380952Y-111930000D01*
X133333333Y-111977619D01*
X133238095Y-112120476D01*
X133190476Y-112310952D01*
X133190476Y-112691904D01*
X133238095Y-112787142D01*
X133285714Y-112834761D01*
X133380952Y-112882380D01*
X133571428Y-112882380D01*
X133666666Y-112834761D01*
X133714285Y-112787142D01*
X133761904Y-112691904D01*
X133761904Y-112453809D01*
X133714285Y-112358571D01*
X133666666Y-112310952D01*
X133571428Y-112263333D01*
X133380952Y-112263333D01*
X133285714Y-112310952D01*
X133238095Y-112358571D01*
X133190476Y-112453809D01*
%TO.C,J24*%
X143940476Y-88602380D02*
X143940476Y-89316666D01*
X143892857Y-89459523D01*
X143797619Y-89554761D01*
X143654761Y-89602380D01*
X143559523Y-89602380D01*
X144369047Y-88697619D02*
X144416666Y-88650000D01*
X144511904Y-88602380D01*
X144750000Y-88602380D01*
X144845238Y-88650000D01*
X144892857Y-88697619D01*
X144940476Y-88792857D01*
X144940476Y-88888095D01*
X144892857Y-89030952D01*
X144321428Y-89602380D01*
X144940476Y-89602380D01*
X145797619Y-88935714D02*
X145797619Y-89602380D01*
X145559523Y-88554761D02*
X145321428Y-89269047D01*
X145940476Y-89269047D01*
%TO.C,RV1*%
X99774761Y-81477380D02*
X99441428Y-81001190D01*
X99203333Y-81477380D02*
X99203333Y-80477380D01*
X99584285Y-80477380D01*
X99679523Y-80525000D01*
X99727142Y-80572619D01*
X99774761Y-80667857D01*
X99774761Y-80810714D01*
X99727142Y-80905952D01*
X99679523Y-80953571D01*
X99584285Y-81001190D01*
X99203333Y-81001190D01*
X100060476Y-80477380D02*
X100393809Y-81477380D01*
X100727142Y-80477380D01*
X101584285Y-81477380D02*
X101012857Y-81477380D01*
X101298571Y-81477380D02*
X101298571Y-80477380D01*
X101203333Y-80620238D01*
X101108095Y-80715476D01*
X101012857Y-80763095D01*
%TO.C,R17*%
X143672380Y-103817857D02*
X143196190Y-104151190D01*
X143672380Y-104389285D02*
X142672380Y-104389285D01*
X142672380Y-104008333D01*
X142720000Y-103913095D01*
X142767619Y-103865476D01*
X142862857Y-103817857D01*
X143005714Y-103817857D01*
X143100952Y-103865476D01*
X143148571Y-103913095D01*
X143196190Y-104008333D01*
X143196190Y-104389285D01*
X143672380Y-102865476D02*
X143672380Y-103436904D01*
X143672380Y-103151190D02*
X142672380Y-103151190D01*
X142815238Y-103246428D01*
X142910476Y-103341666D01*
X142958095Y-103436904D01*
X142672380Y-102532142D02*
X142672380Y-101865476D01*
X143672380Y-102294047D01*
%TO.C,D2*%
X217261904Y-112452380D02*
X217261904Y-111452380D01*
X217500000Y-111452380D01*
X217642857Y-111500000D01*
X217738095Y-111595238D01*
X217785714Y-111690476D01*
X217833333Y-111880952D01*
X217833333Y-112023809D01*
X217785714Y-112214285D01*
X217738095Y-112309523D01*
X217642857Y-112404761D01*
X217500000Y-112452380D01*
X217261904Y-112452380D01*
X218214285Y-111547619D02*
X218261904Y-111500000D01*
X218357142Y-111452380D01*
X218595238Y-111452380D01*
X218690476Y-111500000D01*
X218738095Y-111547619D01*
X218785714Y-111642857D01*
X218785714Y-111738095D01*
X218738095Y-111880952D01*
X218166666Y-112452380D01*
X218785714Y-112452380D01*
%TO.C,R25*%
X158322380Y-91342857D02*
X157846190Y-91676190D01*
X158322380Y-91914285D02*
X157322380Y-91914285D01*
X157322380Y-91533333D01*
X157370000Y-91438095D01*
X157417619Y-91390476D01*
X157512857Y-91342857D01*
X157655714Y-91342857D01*
X157750952Y-91390476D01*
X157798571Y-91438095D01*
X157846190Y-91533333D01*
X157846190Y-91914285D01*
X157417619Y-90961904D02*
X157370000Y-90914285D01*
X157322380Y-90819047D01*
X157322380Y-90580952D01*
X157370000Y-90485714D01*
X157417619Y-90438095D01*
X157512857Y-90390476D01*
X157608095Y-90390476D01*
X157750952Y-90438095D01*
X158322380Y-91009523D01*
X158322380Y-90390476D01*
X157322380Y-89485714D02*
X157322380Y-89961904D01*
X157798571Y-90009523D01*
X157750952Y-89961904D01*
X157703333Y-89866666D01*
X157703333Y-89628571D01*
X157750952Y-89533333D01*
X157798571Y-89485714D01*
X157893809Y-89438095D01*
X158131904Y-89438095D01*
X158227142Y-89485714D01*
X158274761Y-89533333D01*
X158322380Y-89628571D01*
X158322380Y-89866666D01*
X158274761Y-89961904D01*
X158227142Y-90009523D01*
%TO.C,L2*%
X215414880Y-113166666D02*
X215414880Y-113642857D01*
X214414880Y-113642857D01*
X214510119Y-112880952D02*
X214462500Y-112833333D01*
X214414880Y-112738095D01*
X214414880Y-112500000D01*
X214462500Y-112404761D01*
X214510119Y-112357142D01*
X214605357Y-112309523D01*
X214700595Y-112309523D01*
X214843452Y-112357142D01*
X215414880Y-112928571D01*
X215414880Y-112309523D01*
%TO.C,J14*%
X89190476Y-122054380D02*
X89190476Y-122768666D01*
X89142857Y-122911523D01*
X89047619Y-123006761D01*
X88904761Y-123054380D01*
X88809523Y-123054380D01*
X90190476Y-123054380D02*
X89619047Y-123054380D01*
X89904761Y-123054380D02*
X89904761Y-122054380D01*
X89809523Y-122197238D01*
X89714285Y-122292476D01*
X89619047Y-122340095D01*
X91047619Y-122387714D02*
X91047619Y-123054380D01*
X90809523Y-122006761D02*
X90571428Y-122721047D01*
X91190476Y-122721047D01*
%TO.C,J10*%
X124190476Y-124054380D02*
X124190476Y-124768666D01*
X124142857Y-124911523D01*
X124047619Y-125006761D01*
X123904761Y-125054380D01*
X123809523Y-125054380D01*
X125190476Y-125054380D02*
X124619047Y-125054380D01*
X124904761Y-125054380D02*
X124904761Y-124054380D01*
X124809523Y-124197238D01*
X124714285Y-124292476D01*
X124619047Y-124340095D01*
X125809523Y-124054380D02*
X125904761Y-124054380D01*
X126000000Y-124102000D01*
X126047619Y-124149619D01*
X126095238Y-124244857D01*
X126142857Y-124435333D01*
X126142857Y-124673428D01*
X126095238Y-124863904D01*
X126047619Y-124959142D01*
X126000000Y-125006761D01*
X125904761Y-125054380D01*
X125809523Y-125054380D01*
X125714285Y-125006761D01*
X125666666Y-124959142D01*
X125619047Y-124863904D01*
X125571428Y-124673428D01*
X125571428Y-124435333D01*
X125619047Y-124244857D01*
X125666666Y-124149619D01*
X125714285Y-124102000D01*
X125809523Y-124054380D01*
%TO.C,J17*%
X194190476Y-122054380D02*
X194190476Y-122768666D01*
X194142857Y-122911523D01*
X194047619Y-123006761D01*
X193904761Y-123054380D01*
X193809523Y-123054380D01*
X195190476Y-123054380D02*
X194619047Y-123054380D01*
X194904761Y-123054380D02*
X194904761Y-122054380D01*
X194809523Y-122197238D01*
X194714285Y-122292476D01*
X194619047Y-122340095D01*
X195523809Y-122054380D02*
X196190476Y-122054380D01*
X195761904Y-123054380D01*
%TO.C,H1*%
X134238095Y-80952380D02*
X134238095Y-79952380D01*
X134238095Y-80428571D02*
X134809523Y-80428571D01*
X134809523Y-80952380D02*
X134809523Y-79952380D01*
X135809523Y-80952380D02*
X135238095Y-80952380D01*
X135523809Y-80952380D02*
X135523809Y-79952380D01*
X135428571Y-80095238D01*
X135333333Y-80190476D01*
X135238095Y-80238095D01*
%TO.C,C6*%
X62333333Y-123207142D02*
X62285714Y-123254761D01*
X62142857Y-123302380D01*
X62047619Y-123302380D01*
X61904761Y-123254761D01*
X61809523Y-123159523D01*
X61761904Y-123064285D01*
X61714285Y-122873809D01*
X61714285Y-122730952D01*
X61761904Y-122540476D01*
X61809523Y-122445238D01*
X61904761Y-122350000D01*
X62047619Y-122302380D01*
X62142857Y-122302380D01*
X62285714Y-122350000D01*
X62333333Y-122397619D01*
X63190476Y-122302380D02*
X63000000Y-122302380D01*
X62904761Y-122350000D01*
X62857142Y-122397619D01*
X62761904Y-122540476D01*
X62714285Y-122730952D01*
X62714285Y-123111904D01*
X62761904Y-123207142D01*
X62809523Y-123254761D01*
X62904761Y-123302380D01*
X63095238Y-123302380D01*
X63190476Y-123254761D01*
X63238095Y-123207142D01*
X63285714Y-123111904D01*
X63285714Y-122873809D01*
X63238095Y-122778571D01*
X63190476Y-122730952D01*
X63095238Y-122683333D01*
X62904761Y-122683333D01*
X62809523Y-122730952D01*
X62761904Y-122778571D01*
X62714285Y-122873809D01*
%TO.C,C11*%
X211106117Y-88015254D02*
X211106117Y-88082598D01*
X211038773Y-88217285D01*
X210971430Y-88284628D01*
X210836743Y-88351972D01*
X210702056Y-88351972D01*
X210601041Y-88318300D01*
X210432682Y-88217285D01*
X210331667Y-88116270D01*
X210230651Y-87947911D01*
X210196980Y-87846896D01*
X210196980Y-87712209D01*
X210264323Y-87577522D01*
X210331667Y-87510178D01*
X210466354Y-87442835D01*
X210533697Y-87442835D01*
X211846896Y-87409163D02*
X211442835Y-87813224D01*
X211644865Y-87611193D02*
X210937758Y-86904086D01*
X210971430Y-87072445D01*
X210971430Y-87207132D01*
X210937758Y-87308148D01*
X212520331Y-86735728D02*
X212116270Y-87139789D01*
X212318300Y-86937758D02*
X211611193Y-86230651D01*
X211644865Y-86399010D01*
X211644865Y-86533697D01*
X211611193Y-86634712D01*
%TO.C,R21*%
X140904149Y-105613287D02*
X140331730Y-105512272D01*
X140500088Y-106017348D02*
X139792982Y-105310241D01*
X140062356Y-105040867D01*
X140163371Y-105007195D01*
X140230714Y-105007195D01*
X140331730Y-105040867D01*
X140432745Y-105141882D01*
X140466417Y-105242898D01*
X140466417Y-105310241D01*
X140432745Y-105411256D01*
X140163371Y-105680630D01*
X140533760Y-104704149D02*
X140533760Y-104636806D01*
X140567432Y-104535791D01*
X140735791Y-104367432D01*
X140836806Y-104333760D01*
X140904149Y-104333760D01*
X141005165Y-104367432D01*
X141072508Y-104434775D01*
X141139852Y-104569462D01*
X141139852Y-105377585D01*
X141577585Y-104939852D01*
X142251020Y-104266417D02*
X141846959Y-104670478D01*
X142048989Y-104468447D02*
X141341882Y-103761340D01*
X141375554Y-103929699D01*
X141375554Y-104064386D01*
X141341882Y-104165401D01*
%TO.C,H2*%
X134238095Y-120952380D02*
X134238095Y-119952380D01*
X134238095Y-120428571D02*
X134809523Y-120428571D01*
X134809523Y-120952380D02*
X134809523Y-119952380D01*
X135238095Y-120047619D02*
X135285714Y-120000000D01*
X135380952Y-119952380D01*
X135619047Y-119952380D01*
X135714285Y-120000000D01*
X135761904Y-120047619D01*
X135809523Y-120142857D01*
X135809523Y-120238095D01*
X135761904Y-120380952D01*
X135190476Y-120952380D01*
X135809523Y-120952380D01*
%TO.C,R13*%
X90857142Y-112882380D02*
X90523809Y-112406190D01*
X90285714Y-112882380D02*
X90285714Y-111882380D01*
X90666666Y-111882380D01*
X90761904Y-111930000D01*
X90809523Y-111977619D01*
X90857142Y-112072857D01*
X90857142Y-112215714D01*
X90809523Y-112310952D01*
X90761904Y-112358571D01*
X90666666Y-112406190D01*
X90285714Y-112406190D01*
X91809523Y-112882380D02*
X91238095Y-112882380D01*
X91523809Y-112882380D02*
X91523809Y-111882380D01*
X91428571Y-112025238D01*
X91333333Y-112120476D01*
X91238095Y-112168095D01*
X92142857Y-111882380D02*
X92761904Y-111882380D01*
X92428571Y-112263333D01*
X92571428Y-112263333D01*
X92666666Y-112310952D01*
X92714285Y-112358571D01*
X92761904Y-112453809D01*
X92761904Y-112691904D01*
X92714285Y-112787142D01*
X92666666Y-112834761D01*
X92571428Y-112882380D01*
X92285714Y-112882380D01*
X92190476Y-112834761D01*
X92142857Y-112787142D01*
D12*
%TO.C,R11*%
X199750420Y-91289346D02*
X200110654Y-91649580D01*
X200489346Y-90550420D02*
X200849580Y-90910654D01*
%TO.C,R32*%
X196277500Y-91595276D02*
X196277500Y-92104724D01*
X197322500Y-91595276D02*
X197322500Y-92104724D01*
%TO.C,R31*%
X189995276Y-94372500D02*
X190504724Y-94372500D01*
X189995276Y-93327500D02*
X190504724Y-93327500D01*
%TO.C,R30*%
X196327500Y-86145276D02*
X196327500Y-86654724D01*
X197372500Y-86145276D02*
X197372500Y-86654724D01*
%TO.C,R29*%
X189895276Y-88872500D02*
X190404724Y-88872500D01*
X189895276Y-87827500D02*
X190404724Y-87827500D01*
%TO.C,Q3*%
X194710000Y-94430000D02*
X193250000Y-94430000D01*
X194710000Y-91270000D02*
X192550000Y-91270000D01*
X194710000Y-91270000D02*
X194710000Y-92200000D01*
X194710000Y-94430000D02*
X194710000Y-93500000D01*
%TO.C,Q2*%
X194860000Y-88980000D02*
X193400000Y-88980000D01*
X194860000Y-85820000D02*
X192700000Y-85820000D01*
X194860000Y-85820000D02*
X194860000Y-86750000D01*
X194860000Y-88980000D02*
X194860000Y-88050000D01*
%TO.C,R28*%
X139322500Y-95554724D02*
X139322500Y-95045276D01*
X138277500Y-95554724D02*
X138277500Y-95045276D01*
%TO.C,R27*%
X139322500Y-92154724D02*
X139322500Y-91645276D01*
X138277500Y-92154724D02*
X138277500Y-91645276D01*
%TO.C,L3*%
X44700000Y-126300000D02*
X44700000Y-113700000D01*
X47700000Y-126300000D02*
X44700000Y-126300000D01*
X57300000Y-126300000D02*
X54300000Y-126300000D01*
X54300000Y-113700000D02*
X57300000Y-113700000D01*
X57300000Y-113700000D02*
X57300000Y-126300000D01*
X44700000Y-113700000D02*
X47700000Y-113700000D01*
%TO.C,C10*%
X135611252Y-120710000D02*
X134188748Y-120710000D01*
X135611252Y-118890000D02*
X134188748Y-118890000D01*
%TO.C,C3*%
X220211252Y-113910000D02*
X218788748Y-113910000D01*
X220211252Y-112090000D02*
X218788748Y-112090000D01*
%TO.C,C12*%
X174722200Y-121056348D02*
X174722200Y-122478852D01*
X172902200Y-121056348D02*
X172902200Y-122478852D01*
%TO.C,U5*%
X54210000Y-101885000D02*
X51490000Y-101885000D01*
X51490000Y-101885000D02*
X51490000Y-101555000D01*
X54210000Y-101555000D02*
X54210000Y-101885000D01*
X51490000Y-97165000D02*
X51490000Y-97495000D01*
X54210000Y-97165000D02*
X54210000Y-97495000D01*
X51490000Y-97165000D02*
X54210000Y-97165000D01*
X50310000Y-97495000D02*
X51490000Y-97495000D01*
%TO.C,R18*%
X145992224Y-100002500D02*
X145482776Y-100002500D01*
X145992224Y-101047500D02*
X145482776Y-101047500D01*
%TO.C,J1*%
X166750000Y-125000000D02*
G75*
G03*
X166750000Y-125000000I-1750000J0D01*
G01*
%TO.C,U1*%
X210778573Y-91318198D02*
X211305367Y-90791403D01*
X214681802Y-95221427D02*
X215208597Y-94694633D01*
X217269813Y-88730187D02*
X215318198Y-86778573D01*
X214791403Y-87305367D02*
X213596393Y-86110357D01*
X217269813Y-88730187D02*
X219221427Y-90681802D01*
X212730187Y-93269813D02*
X214681802Y-95221427D01*
X219221427Y-90681802D02*
X218694633Y-91208597D01*
X212730187Y-93269813D02*
X210778573Y-91318198D01*
X215318198Y-86778573D02*
X214791403Y-87305367D01*
%TO.C,SW2*%
X89750000Y-95550000D02*
X92470000Y-95550000D01*
X87890000Y-107850000D02*
X84750000Y-107850000D01*
X92470000Y-107850000D02*
X89750000Y-107850000D01*
X80170000Y-107850000D02*
X80170000Y-95550000D01*
X82890000Y-107850000D02*
X80170000Y-107850000D01*
X84750000Y-95550000D02*
X87890000Y-95550000D01*
X80170000Y-95550000D02*
X82890000Y-95550000D01*
X92470000Y-95550000D02*
X92470000Y-107850000D01*
X90939050Y-101600000D02*
G75*
G03*
X90939050Y-101600000I-4579050J0D01*
G01*
%TO.C,SW1*%
X73920000Y-107850000D02*
X70780000Y-107850000D01*
X78500000Y-107850000D02*
X75780000Y-107850000D01*
X78500000Y-95550000D02*
X78500000Y-107850000D01*
X70780000Y-95550000D02*
X73920000Y-95550000D01*
X66200000Y-95550000D02*
X68920000Y-95550000D01*
X66200000Y-107850000D02*
X66200000Y-95550000D01*
X75780000Y-95550000D02*
X78500000Y-95550000D01*
X68920000Y-107850000D02*
X66200000Y-107850000D01*
X76969050Y-101600000D02*
G75*
G03*
X76969050Y-101600000I-4579050J0D01*
G01*
%TO.C,J7*%
X106750000Y-125000000D02*
G75*
G03*
X106750000Y-125000000I-1750000J0D01*
G01*
%TO.C,R8*%
X204349580Y-87410654D02*
X203989346Y-87050420D01*
X203610654Y-88149580D02*
X203250420Y-87789346D01*
%TO.C,J3*%
X206750000Y-125000000D02*
G75*
G03*
X206750000Y-125000000I-1750000J0D01*
G01*
%TO.C,R26*%
X154954724Y-97022500D02*
X154445276Y-97022500D01*
X154954724Y-95977500D02*
X154445276Y-95977500D01*
%TO.C,R22*%
X146152500Y-103479724D02*
X146152500Y-102970276D01*
X147197500Y-103479724D02*
X147197500Y-102970276D01*
%TO.C,L4*%
X46150000Y-96725000D02*
X49150000Y-96725000D01*
X36550000Y-109325000D02*
X36550000Y-96725000D01*
X36550000Y-96725000D02*
X39550000Y-96725000D01*
X49150000Y-96725000D02*
X49150000Y-109325000D01*
X39550000Y-109325000D02*
X36550000Y-109325000D01*
X49150000Y-109325000D02*
X46150000Y-109325000D01*
%TO.C,D4*%
X56750000Y-93675000D02*
X51350000Y-93675000D01*
X56750000Y-90375000D02*
X51350000Y-90375000D01*
X56750000Y-93675000D02*
X56750000Y-90375000D01*
%TO.C,SW3*%
X98720000Y-95550000D02*
X101860000Y-95550000D01*
X103720000Y-95550000D02*
X106440000Y-95550000D01*
X94140000Y-95550000D02*
X96860000Y-95550000D01*
X106440000Y-95550000D02*
X106440000Y-107850000D01*
X96860000Y-107850000D02*
X94140000Y-107850000D01*
X101860000Y-107850000D02*
X98720000Y-107850000D01*
X106440000Y-107850000D02*
X103720000Y-107850000D01*
X94140000Y-107850000D02*
X94140000Y-95550000D01*
X104909050Y-101600000D02*
G75*
G03*
X104909050Y-101600000I-4579050J0D01*
G01*
%TO.C,J20*%
X225640000Y-124965000D02*
X225640000Y-85645000D01*
X224745662Y-114750000D02*
X225178675Y-115000000D01*
X240180000Y-124965000D02*
X225640000Y-124965000D01*
X225178675Y-115000000D02*
X224745662Y-115250000D01*
X224745662Y-115250000D02*
X224745662Y-114750000D01*
X225640000Y-85645000D02*
X240180000Y-85645000D01*
%TO.C,SW5*%
X126660000Y-95550000D02*
X129800000Y-95550000D01*
X129800000Y-107850000D02*
X126660000Y-107850000D01*
X122080000Y-107850000D02*
X122080000Y-95550000D01*
X124800000Y-107850000D02*
X122080000Y-107850000D01*
X131660000Y-95550000D02*
X134380000Y-95550000D01*
X122080000Y-95550000D02*
X124800000Y-95550000D01*
X134380000Y-107850000D02*
X131660000Y-107850000D01*
X134380000Y-95550000D02*
X134380000Y-107850000D01*
X132849050Y-101600000D02*
G75*
G03*
X132849050Y-101600000I-4579050J0D01*
G01*
%TO.C,C13*%
X198611252Y-104810000D02*
X197188748Y-104810000D01*
X198611252Y-102990000D02*
X197188748Y-102990000D01*
%TO.C,U7*%
X183000000Y-112150000D02*
X183000000Y-113650000D01*
X172600000Y-112150000D02*
X172600000Y-113650000D01*
X182050000Y-113650000D02*
X182050000Y-114750000D01*
X173550000Y-113650000D02*
X173550000Y-118775000D01*
X172600000Y-113650000D02*
X173550000Y-113650000D01*
X183000000Y-113650000D02*
X182050000Y-113650000D01*
%TO.C,R19*%
X168754724Y-105122500D02*
X168245276Y-105122500D01*
X168754724Y-104077500D02*
X168245276Y-104077500D01*
%TO.C,R2*%
X221590000Y-116272936D02*
X221590000Y-117727064D01*
X223410000Y-116272936D02*
X223410000Y-117727064D01*
%TO.C,J13*%
X86750000Y-125000000D02*
G75*
G03*
X86750000Y-125000000I-1750000J0D01*
G01*
%TO.C,D3*%
X64900000Y-107350000D02*
X59500000Y-107350000D01*
X64900000Y-110650000D02*
X59500000Y-110650000D01*
X64900000Y-110650000D02*
X64900000Y-107350000D01*
%TO.C,J16*%
X186750000Y-125000000D02*
G75*
G03*
X186750000Y-125000000I-1750000J0D01*
G01*
%TO.C,U8*%
X160135000Y-107200000D02*
X160135000Y-109150000D01*
X151265000Y-107200000D02*
X151265000Y-110650000D01*
X151265000Y-107200000D02*
X151265000Y-105250000D01*
X160135000Y-107200000D02*
X160135000Y-105250000D01*
%TO.C,J19*%
X121750000Y-127000000D02*
G75*
G03*
X121750000Y-127000000I-1750000J0D01*
G01*
%TO.C,J4*%
X211750000Y-125000000D02*
G75*
G03*
X211750000Y-125000000I-1750000J0D01*
G01*
%TO.C,C8*%
X96510000Y-120288748D02*
X96510000Y-121711252D01*
X94690000Y-120288748D02*
X94690000Y-121711252D01*
%TO.C,J6*%
X61750000Y-125000000D02*
G75*
G03*
X61750000Y-125000000I-1750000J0D01*
G01*
%TO.C,C5*%
X63211252Y-113410000D02*
X61788748Y-113410000D01*
X63211252Y-111590000D02*
X61788748Y-111590000D01*
%TO.C,R6*%
X221537230Y-94798303D02*
X221201697Y-94462770D01*
X220798303Y-95537230D02*
X220462770Y-95201697D01*
%TO.C,J18*%
X191750000Y-125000000D02*
G75*
G03*
X191750000Y-125000000I-1750000J0D01*
G01*
%TO.C,J5*%
X66750000Y-125000000D02*
G75*
G03*
X66750000Y-125000000I-1750000J0D01*
G01*
%TO.C,R14*%
X105754724Y-111522500D02*
X105245276Y-111522500D01*
X105754724Y-110477500D02*
X105245276Y-110477500D01*
%TO.C,D5*%
X145237437Y-118970889D02*
X141419060Y-115152513D01*
X145237437Y-118970889D02*
X147570889Y-116637437D01*
X147570889Y-116637437D02*
X143752513Y-112819060D01*
%TO.C,J12*%
X76750000Y-125000000D02*
G75*
G03*
X76750000Y-125000000I-1750000J0D01*
G01*
%TO.C,R5*%
X145770645Y-119242421D02*
X144742421Y-120270645D01*
X147057579Y-120529355D02*
X146029355Y-121557579D01*
%TO.C,R10*%
X199750420Y-87410654D02*
X200110654Y-87050420D01*
X200489346Y-88149580D02*
X200849580Y-87789346D01*
%TO.C,D1*%
X169400000Y-111650000D02*
X164000000Y-111650000D01*
X169400000Y-111650000D02*
X169400000Y-108350000D01*
X169400000Y-108350000D02*
X164000000Y-108350000D01*
%TO.C,R4*%
X56440000Y-98797936D02*
X56440000Y-100252064D01*
X58260000Y-98797936D02*
X58260000Y-100252064D01*
%TO.C,J8*%
X101750000Y-125000000D02*
G75*
G03*
X101750000Y-125000000I-1750000J0D01*
G01*
%TO.C,J23*%
X148560000Y-95960000D02*
X148560000Y-89990000D01*
X148550000Y-95950000D02*
X148550000Y-95200000D01*
X145250000Y-95200000D02*
X144250000Y-95200000D01*
X148550000Y-93700000D02*
X147800000Y-93700000D01*
X142750000Y-95200000D02*
X140950000Y-95200000D01*
X146750000Y-95950000D02*
X148550000Y-95950000D01*
X140950000Y-93700000D02*
X141700000Y-93700000D01*
X140950000Y-95950000D02*
X142750000Y-95950000D01*
X144250000Y-95200000D02*
X144250000Y-95950000D01*
X146750000Y-95200000D02*
X146750000Y-95950000D01*
X140940000Y-89990000D02*
X140940000Y-95960000D01*
X141700000Y-93700000D02*
X141700000Y-90750000D01*
X147800000Y-90750000D02*
X144750000Y-90750000D01*
X145250000Y-95950000D02*
X145250000Y-95200000D01*
X148560000Y-89990000D02*
X140940000Y-89990000D01*
X140950000Y-95200000D02*
X140950000Y-95950000D01*
X141700000Y-90750000D02*
X144750000Y-90750000D01*
X148850000Y-96250000D02*
X148850000Y-95000000D01*
X147600000Y-96250000D02*
X148850000Y-96250000D01*
X147800000Y-93700000D02*
X147800000Y-90750000D01*
X142750000Y-95950000D02*
X142750000Y-95200000D01*
X144250000Y-95950000D02*
X145250000Y-95950000D01*
X140940000Y-95960000D02*
X148560000Y-95960000D01*
X148550000Y-95200000D02*
X146750000Y-95200000D01*
%TO.C,RV2*%
X185375000Y-102570000D02*
X195145000Y-102570000D01*
X185375000Y-107640000D02*
X195145000Y-107640000D01*
X185375000Y-102570000D02*
X185375000Y-107640000D01*
X195145000Y-102570000D02*
X195145000Y-107640000D01*
%TO.C,J9*%
X146750000Y-125000000D02*
G75*
G03*
X146750000Y-125000000I-1750000J0D01*
G01*
%TO.C,U6*%
X143840488Y-118317157D02*
X143607143Y-118550502D01*
X140502944Y-121654701D02*
X138579614Y-119731371D01*
X141917158Y-116393827D02*
X141683813Y-116627172D01*
X141917158Y-116393827D02*
X143840488Y-118317157D01*
X138579614Y-119731371D02*
X138812959Y-119498026D01*
X140736289Y-121421356D02*
X140502944Y-121654701D01*
X140849427Y-115792786D02*
X141683813Y-116627172D01*
%TO.C,C2*%
X168211252Y-112590000D02*
X166788748Y-112590000D01*
X168211252Y-114410000D02*
X166788748Y-114410000D01*
%TO.C,Q1*%
X151190000Y-95000000D02*
X151190000Y-88990000D01*
X158010000Y-88990000D02*
X156750000Y-88990000D01*
X158010000Y-92750000D02*
X158010000Y-88990000D01*
X151190000Y-88990000D02*
X152450000Y-88990000D01*
%TO.C,J11*%
X81750000Y-125000000D02*
G75*
G03*
X81750000Y-125000000I-1750000J0D01*
G01*
%TO.C,R7*%
X218798303Y-97537230D02*
X218462770Y-97201697D01*
X219537230Y-96798303D02*
X219201697Y-96462770D01*
%TO.C,L6*%
X185500000Y-108500000D02*
X188500000Y-108500000D01*
X198100000Y-108500000D02*
X198100000Y-121100000D01*
X188500000Y-121100000D02*
X185500000Y-121100000D01*
X185500000Y-121100000D02*
X185500000Y-108500000D01*
X198100000Y-121100000D02*
X195100000Y-121100000D01*
X195100000Y-108500000D02*
X198100000Y-108500000D01*
%TO.C,U4*%
X59640000Y-114140000D02*
X62360000Y-114140000D01*
X59640000Y-114140000D02*
X59640000Y-114470000D01*
X62360000Y-118860000D02*
X59640000Y-118860000D01*
X58460000Y-114470000D02*
X59640000Y-114470000D01*
X59640000Y-118860000D02*
X59640000Y-118530000D01*
X62360000Y-114140000D02*
X62360000Y-114470000D01*
X62360000Y-118530000D02*
X62360000Y-118860000D01*
%TO.C,D6*%
X175500000Y-119450000D02*
X180900000Y-119450000D01*
X175500000Y-119450000D02*
X175500000Y-122750000D01*
X175500000Y-122750000D02*
X180900000Y-122750000D01*
%TO.C,R1*%
X171410000Y-116772936D02*
X171410000Y-118227064D01*
X169590000Y-116772936D02*
X169590000Y-118227064D01*
%TO.C,J15*%
X181750000Y-125000000D02*
G75*
G03*
X181750000Y-125000000I-1750000J0D01*
G01*
%TO.C,C14*%
X183790000Y-112853733D02*
X183790000Y-113146267D01*
X184810000Y-112853733D02*
X184810000Y-113146267D01*
%TO.C,R20*%
X165154724Y-107922500D02*
X164645276Y-107922500D01*
X165154724Y-106877500D02*
X164645276Y-106877500D01*
%TO.C,R24*%
X168654724Y-107922500D02*
X168145276Y-107922500D01*
X168654724Y-106877500D02*
X168145276Y-106877500D01*
%TO.C,C1*%
X166788748Y-122410000D02*
X168211252Y-122410000D01*
X166788748Y-120590000D02*
X168211252Y-120590000D01*
%TO.C,L1*%
X149700000Y-127800000D02*
X149700000Y-115200000D01*
X162300000Y-127800000D02*
X159300000Y-127800000D01*
X159300000Y-115200000D02*
X162300000Y-115200000D01*
X162300000Y-115200000D02*
X162300000Y-127800000D01*
X152700000Y-127800000D02*
X149700000Y-127800000D01*
X149700000Y-115200000D02*
X152700000Y-115200000D01*
%TO.C,C9*%
X146053602Y-110559464D02*
X147059464Y-109553602D01*
X147340536Y-111846398D02*
X148346398Y-110840536D01*
%TO.C,R12*%
X77754724Y-110477500D02*
X77245276Y-110477500D01*
X77754724Y-111522500D02*
X77245276Y-111522500D01*
%TO.C,R15*%
X108745276Y-110477500D02*
X109254724Y-110477500D01*
X108745276Y-111522500D02*
X109254724Y-111522500D01*
%TO.C,U3*%
X215460000Y-114970000D02*
X216640000Y-114970000D01*
X219360000Y-119360000D02*
X216640000Y-119360000D01*
X216640000Y-119360000D02*
X216640000Y-119030000D01*
X216640000Y-114640000D02*
X216640000Y-114970000D01*
X219360000Y-114640000D02*
X219360000Y-114970000D01*
X219360000Y-119030000D02*
X219360000Y-119360000D01*
X216640000Y-114640000D02*
X219360000Y-114640000D01*
%TO.C,J2*%
X171750000Y-125000000D02*
G75*
G03*
X171750000Y-125000000I-1750000J0D01*
G01*
%TO.C,C15*%
X149535949Y-101357198D02*
X149742802Y-101564051D01*
X150257198Y-100635949D02*
X150464051Y-100842802D01*
%TO.C,J22*%
X201930000Y-99000000D02*
X203260000Y-99000000D01*
X200660000Y-101660000D02*
X152340000Y-101660000D01*
X203260000Y-99000000D02*
X203260000Y-100330000D01*
X200660000Y-99000000D02*
X200660000Y-101660000D01*
X152340000Y-99000000D02*
X152340000Y-101660000D01*
X200660000Y-99000000D02*
X152340000Y-99000000D01*
%TO.C,SW4*%
X115830000Y-107850000D02*
X112690000Y-107850000D01*
X108110000Y-95550000D02*
X110830000Y-95550000D01*
X112690000Y-95550000D02*
X115830000Y-95550000D01*
X108110000Y-107850000D02*
X108110000Y-95550000D01*
X120410000Y-95550000D02*
X120410000Y-107850000D01*
X117690000Y-95550000D02*
X120410000Y-95550000D01*
X120410000Y-107850000D02*
X117690000Y-107850000D01*
X110830000Y-107850000D02*
X108110000Y-107850000D01*
X118879050Y-101600000D02*
G75*
G03*
X118879050Y-101600000I-4579050J0D01*
G01*
%TO.C,R9*%
X204349580Y-91289346D02*
X203989346Y-91649580D01*
X203610654Y-90550420D02*
X203250420Y-90910654D01*
%TO.C,J21*%
X152340000Y-81220000D02*
X152340000Y-83880000D01*
X200660000Y-83880000D02*
X152340000Y-83880000D01*
X200660000Y-81220000D02*
X152340000Y-81220000D01*
X200660000Y-81220000D02*
X200660000Y-83880000D01*
X201930000Y-81220000D02*
X203260000Y-81220000D01*
X203260000Y-81220000D02*
X203260000Y-82550000D01*
%TO.C,R3*%
X64590000Y-115772936D02*
X64590000Y-117227064D01*
X66410000Y-115772936D02*
X66410000Y-117227064D01*
%TO.C,R23*%
X168854724Y-102477500D02*
X168345276Y-102477500D01*
X168854724Y-103522500D02*
X168345276Y-103522500D01*
%TO.C,U2*%
X164640000Y-119860000D02*
X164640000Y-119530000D01*
X167360000Y-119530000D02*
X167360000Y-119860000D01*
X164640000Y-115140000D02*
X167360000Y-115140000D01*
X163460000Y-115470000D02*
X164640000Y-115470000D01*
X167360000Y-115140000D02*
X167360000Y-115470000D01*
X164640000Y-115140000D02*
X164640000Y-115470000D01*
X167360000Y-119860000D02*
X164640000Y-119860000D01*
%TO.C,C7*%
X55061252Y-96435000D02*
X53638748Y-96435000D01*
X55061252Y-94615000D02*
X53638748Y-94615000D01*
%TO.C,C4*%
X206788748Y-122410000D02*
X208211252Y-122410000D01*
X206788748Y-120590000D02*
X208211252Y-120590000D01*
%TO.C,L5*%
X128300000Y-111700000D02*
X128300000Y-114700000D01*
X128300000Y-121300000D02*
X128300000Y-124300000D01*
X115700000Y-124300000D02*
X115700000Y-121300000D01*
X115700000Y-111700000D02*
X128300000Y-111700000D01*
X115700000Y-114700000D02*
X115700000Y-111700000D01*
X128300000Y-124300000D02*
X115700000Y-124300000D01*
%TO.C,R16*%
X132754724Y-110477500D02*
X132245276Y-110477500D01*
X132754724Y-111522500D02*
X132245276Y-111522500D01*
%TO.C,J24*%
X140940000Y-88060000D02*
X148560000Y-88060000D01*
X145250000Y-87300000D02*
X144250000Y-87300000D01*
X140940000Y-82090000D02*
X140940000Y-88060000D01*
X148850000Y-88350000D02*
X148850000Y-87100000D01*
X147800000Y-85800000D02*
X147800000Y-82850000D01*
X148550000Y-87300000D02*
X146750000Y-87300000D01*
X144250000Y-87300000D02*
X144250000Y-88050000D01*
X145250000Y-88050000D02*
X145250000Y-87300000D01*
X146750000Y-87300000D02*
X146750000Y-88050000D01*
X148560000Y-82090000D02*
X140940000Y-82090000D01*
X142750000Y-88050000D02*
X142750000Y-87300000D01*
X141700000Y-85800000D02*
X141700000Y-82850000D01*
X140950000Y-88050000D02*
X142750000Y-88050000D01*
X148550000Y-88050000D02*
X148550000Y-87300000D01*
X148550000Y-85800000D02*
X147800000Y-85800000D01*
X146750000Y-88050000D02*
X148550000Y-88050000D01*
X140950000Y-85800000D02*
X141700000Y-85800000D01*
X147600000Y-88350000D02*
X148850000Y-88350000D01*
X148560000Y-88060000D02*
X148560000Y-82090000D01*
X142750000Y-87300000D02*
X140950000Y-87300000D01*
X141700000Y-82850000D02*
X144750000Y-82850000D01*
X147800000Y-82850000D02*
X144750000Y-82850000D01*
X140950000Y-87300000D02*
X140950000Y-88050000D01*
X144250000Y-88050000D02*
X145250000Y-88050000D01*
%TO.C,RV1*%
X77870000Y-86775000D02*
X122870000Y-86775000D01*
X125906000Y-82155000D02*
X130490000Y-82155000D01*
X70250000Y-89348000D02*
X70250000Y-91395000D01*
X76906000Y-91395000D02*
X123835000Y-91395000D01*
X70250000Y-86200000D02*
X70250000Y-87703000D01*
X122870000Y-86775000D02*
X122120000Y-87525000D01*
X77870000Y-86775000D02*
X78620000Y-87525000D01*
X69945000Y-85025000D02*
X69445000Y-84525000D01*
X122120000Y-86025000D02*
X122870000Y-86775000D01*
X122870000Y-85275000D02*
X122870000Y-88275000D01*
X78620000Y-86025000D02*
X77870000Y-86775000D01*
X70250000Y-91395000D02*
X73635000Y-91395000D01*
X70250000Y-82155000D02*
X74835000Y-82155000D01*
X78106000Y-82155000D02*
X122635000Y-82155000D01*
X70250000Y-82155000D02*
X70250000Y-83850000D01*
X130490000Y-85848000D02*
X130490000Y-91395000D01*
X77870000Y-85275000D02*
X77870000Y-88275000D01*
X130490000Y-82155000D02*
X130490000Y-84202000D01*
X69445000Y-85525000D02*
X69945000Y-85025000D01*
X69445000Y-84525000D02*
X69445000Y-85525000D01*
X127106000Y-91395000D02*
X130490000Y-91395000D01*
%TO.C,R17*%
X144127500Y-103429724D02*
X144127500Y-102920276D01*
X145172500Y-103429724D02*
X145172500Y-102920276D01*
%TO.C,D2*%
X221400000Y-107850000D02*
X216000000Y-107850000D01*
X221400000Y-111150000D02*
X216000000Y-111150000D01*
X221400000Y-111150000D02*
X221400000Y-107850000D01*
%TO.C,R25*%
X159822500Y-90954724D02*
X159822500Y-90445276D01*
X158777500Y-90954724D02*
X158777500Y-90445276D01*
%TO.C,L2*%
X201262500Y-106700000D02*
X204262500Y-106700000D01*
X201262500Y-119300000D02*
X201262500Y-106700000D01*
X213862500Y-106700000D02*
X213862500Y-119300000D01*
X210862500Y-106700000D02*
X213862500Y-106700000D01*
X204262500Y-119300000D02*
X201262500Y-119300000D01*
X213862500Y-119300000D02*
X210862500Y-119300000D01*
%TO.C,J14*%
X91750000Y-125000000D02*
G75*
G03*
X91750000Y-125000000I-1750000J0D01*
G01*
%TO.C,J10*%
X126750000Y-127000000D02*
G75*
G03*
X126750000Y-127000000I-1750000J0D01*
G01*
%TO.C,J17*%
X196750000Y-125000000D02*
G75*
G03*
X196750000Y-125000000I-1750000J0D01*
G01*
%TO.C,C6*%
X63211252Y-121910000D02*
X61788748Y-121910000D01*
X63211252Y-120090000D02*
X61788748Y-120090000D01*
%TO.C,C11*%
X209859464Y-84853602D02*
X208853602Y-85859464D01*
X211146398Y-86140536D02*
X210140536Y-87146398D01*
%TO.C,R21*%
X142239346Y-106399580D02*
X142599580Y-106039346D01*
X141500420Y-105660654D02*
X141860654Y-105300420D01*
%TO.C,R13*%
X91754724Y-110477500D02*
X91245276Y-110477500D01*
X91754724Y-111522500D02*
X91245276Y-111522500D01*
%TD*%
%LPC*%
D13*
%TO.C,R11*%
X199654765Y-90454765D03*
X200945235Y-91745235D03*
%TD*%
D14*
%TO.C,R32*%
X196800000Y-92762500D03*
X196800000Y-90937500D03*
%TD*%
D15*
%TO.C,R31*%
X191162500Y-93850000D03*
X189337500Y-93850000D03*
%TD*%
D14*
%TO.C,R30*%
X196850000Y-87312500D03*
X196850000Y-85487500D03*
%TD*%
D15*
%TO.C,R29*%
X191062500Y-88350000D03*
X189237500Y-88350000D03*
%TD*%
D16*
%TO.C,Q3*%
X194950000Y-92850000D03*
X192950000Y-93800000D03*
X192950000Y-91900000D03*
%TD*%
%TO.C,Q2*%
X195100000Y-87400000D03*
X193100000Y-88350000D03*
X193100000Y-86450000D03*
%TD*%
D17*
%TO.C,R28*%
X138800000Y-94387500D03*
X138800000Y-96212500D03*
%TD*%
%TO.C,R27*%
X138800000Y-90987500D03*
X138800000Y-92812500D03*
%TD*%
D18*
%TO.C,L3*%
X51000000Y-115050000D03*
X51000000Y-124950000D03*
%TD*%
D19*
%TO.C,C10*%
X136462500Y-119800000D03*
X133337500Y-119800000D03*
%TD*%
%TO.C,C3*%
X221062500Y-113000000D03*
X217937500Y-113000000D03*
%TD*%
D20*
%TO.C,C12*%
X173812200Y-120205100D03*
X173812200Y-123330100D03*
%TD*%
D21*
%TO.C,U5*%
X51000000Y-98025000D03*
G36*
X53750000Y-99025000D02*
G01*
X55450000Y-99025000D01*
X55450000Y-100025000D01*
X53750000Y-100025000D01*
X53250000Y-100525000D01*
X52450000Y-100525000D01*
X51950000Y-100025000D01*
X50250000Y-100025000D01*
X50250000Y-99025000D01*
X51950000Y-99025000D01*
X52450000Y-98525000D01*
X53250000Y-98525000D01*
X53750000Y-99025000D01*
G37*
X51000000Y-101025000D03*
X54700000Y-101025000D03*
X54700000Y-98025000D03*
%TD*%
D22*
%TO.C,R18*%
X146650000Y-100525000D03*
X144825000Y-100525000D03*
%TD*%
D23*
%TO.C,J1*%
X165000000Y-125000000D03*
%TD*%
D24*
%TO.C,U1*%
X213872165Y-87178088D03*
X212974139Y-88076113D03*
X212076113Y-88974139D03*
X211178088Y-89872165D03*
X216127835Y-94821912D03*
X217025861Y-93923887D03*
X217923887Y-93025861D03*
X218821912Y-92127835D03*
%TD*%
D25*
%TO.C,SW2*%
X83820000Y-95450000D03*
X83820000Y-107950000D03*
X88820000Y-107950000D03*
X88820000Y-95450000D03*
%TD*%
%TO.C,SW1*%
X69850000Y-95450000D03*
X69850000Y-107950000D03*
X74850000Y-95450000D03*
X74850000Y-107950000D03*
%TD*%
D23*
%TO.C,J7*%
X105000000Y-125000000D03*
%TD*%
D26*
%TO.C,R8*%
X204445235Y-88245235D03*
X203154765Y-86954765D03*
%TD*%
D23*
%TO.C,J3*%
X205000000Y-125000000D03*
%TD*%
D22*
%TO.C,R26*%
X155612500Y-96500000D03*
X153787500Y-96500000D03*
%TD*%
D17*
%TO.C,R22*%
X146675000Y-104137500D03*
X146675000Y-102312500D03*
%TD*%
D18*
%TO.C,L4*%
X42850000Y-98075000D03*
X42850000Y-107975000D03*
%TD*%
D27*
%TO.C,D4*%
X55350000Y-92025000D03*
X51350000Y-92025000D03*
%TD*%
D25*
%TO.C,SW3*%
X97790000Y-107950000D03*
X97790000Y-95450000D03*
X102790000Y-107950000D03*
X102790000Y-95450000D03*
%TD*%
D28*
%TO.C,J20*%
X228920000Y-121955000D03*
X228920000Y-88655000D03*
D29*
X227500000Y-115000000D03*
D30*
X227500000Y-112230000D03*
X227500000Y-109460000D03*
X227500000Y-106690000D03*
X227500000Y-103920000D03*
X227500000Y-101150000D03*
X227500000Y-98380000D03*
X227500000Y-95610000D03*
X230340000Y-113615000D03*
X230340000Y-110845000D03*
X230340000Y-108075000D03*
X230340000Y-105305000D03*
X230340000Y-102535000D03*
X230340000Y-99765000D03*
X230340000Y-96995000D03*
%TD*%
D25*
%TO.C,SW5*%
X125730000Y-107950000D03*
X125730000Y-95450000D03*
X130730000Y-107950000D03*
X130730000Y-95450000D03*
%TD*%
D19*
%TO.C,C13*%
X199462500Y-103900000D03*
X196337500Y-103900000D03*
%TD*%
D31*
%TO.C,U7*%
X174400000Y-116475000D03*
X176100000Y-116475000D03*
X177800000Y-116475000D03*
D32*
X177800000Y-107325000D03*
D31*
X179500000Y-116475000D03*
X181200000Y-116475000D03*
%TD*%
D22*
%TO.C,R19*%
X169412500Y-104600000D03*
X167587500Y-104600000D03*
%TD*%
D33*
%TO.C,R2*%
X222500000Y-115537500D03*
X222500000Y-118462500D03*
%TD*%
D23*
%TO.C,J13*%
X85000000Y-125000000D03*
%TD*%
D27*
%TO.C,D3*%
X63500000Y-109000000D03*
X59500000Y-109000000D03*
%TD*%
D23*
%TO.C,J16*%
X185000000Y-125000000D03*
%TD*%
D34*
%TO.C,U8*%
X151890000Y-109675000D03*
X153160000Y-109675000D03*
X154430000Y-109675000D03*
X155700000Y-109675000D03*
X156970000Y-109675000D03*
X158240000Y-109675000D03*
X159510000Y-109675000D03*
X159510000Y-104725000D03*
X158240000Y-104725000D03*
X156970000Y-104725000D03*
X155700000Y-104725000D03*
X154430000Y-104725000D03*
X153160000Y-104725000D03*
X151890000Y-104725000D03*
%TD*%
D23*
%TO.C,J19*%
X120000000Y-127000000D03*
%TD*%
%TO.C,J4*%
X210000000Y-125000000D03*
%TD*%
D20*
%TO.C,C8*%
X95600000Y-119437500D03*
X95600000Y-122562500D03*
%TD*%
D23*
%TO.C,J6*%
X60000000Y-125000000D03*
%TD*%
D19*
%TO.C,C5*%
X64062500Y-112500000D03*
X60937500Y-112500000D03*
%TD*%
D35*
%TO.C,R6*%
X221583363Y-95583363D03*
X220416637Y-94416637D03*
%TD*%
D23*
%TO.C,J18*%
X190000000Y-125000000D03*
%TD*%
%TO.C,J5*%
X65000000Y-125000000D03*
%TD*%
D22*
%TO.C,R14*%
X106412500Y-111000000D03*
X104587500Y-111000000D03*
%TD*%
D36*
%TO.C,D5*%
X145414214Y-116814214D03*
X142585786Y-113985786D03*
%TD*%
D23*
%TO.C,J12*%
X75000000Y-125000000D03*
%TD*%
D37*
%TO.C,R5*%
X146934144Y-119365856D03*
X144865856Y-121434144D03*
%TD*%
D38*
%TO.C,R10*%
X199654765Y-88245235D03*
X200945235Y-86954765D03*
%TD*%
D27*
%TO.C,D1*%
X168000000Y-110000000D03*
X164000000Y-110000000D03*
%TD*%
D33*
%TO.C,R4*%
X57350000Y-98062500D03*
X57350000Y-100987500D03*
%TD*%
D23*
%TO.C,J8*%
X100000000Y-125000000D03*
%TD*%
D39*
%TO.C,J23*%
X146000000Y-93500000D03*
D40*
X143500000Y-93500000D03*
%TD*%
D41*
%TO.C,H4*%
X40000000Y-85000000D03*
%TD*%
D42*
%TO.C,RV2*%
X192800000Y-105100000D03*
X190260000Y-105100000D03*
X187720000Y-105100000D03*
%TD*%
D23*
%TO.C,J9*%
X145000000Y-125000000D03*
%TD*%
D43*
%TO.C,U6*%
X140962564Y-116655456D03*
G36*
X142200000Y-119307106D02*
G01*
X143402082Y-120509188D01*
X142694975Y-121216295D01*
X141492893Y-120014213D01*
X140785787Y-120014213D01*
X140220102Y-119448528D01*
X140220102Y-118741422D01*
X139018020Y-117539340D01*
X139725127Y-116832233D01*
X140927209Y-118034315D01*
X141634315Y-118034315D01*
X142200000Y-118600000D01*
X142200000Y-119307106D01*
G37*
X138841243Y-118776777D03*
X141457538Y-121393072D03*
X143578859Y-119271751D03*
%TD*%
D41*
%TO.C,H6*%
X220000000Y-125000000D03*
%TD*%
D19*
%TO.C,C2*%
X169062500Y-113500000D03*
X165937500Y-113500000D03*
%TD*%
D44*
%TO.C,Q1*%
X152300000Y-94050000D03*
X154600000Y-94050000D03*
D45*
X154600000Y-87750000D03*
D44*
X156900000Y-94050000D03*
%TD*%
D23*
%TO.C,J11*%
X80000000Y-125000000D03*
%TD*%
D35*
%TO.C,R7*%
X219583363Y-97583363D03*
X218416637Y-96416637D03*
%TD*%
D18*
%TO.C,L6*%
X191800000Y-119750000D03*
X191800000Y-109850000D03*
%TD*%
D21*
%TO.C,U4*%
X59150000Y-115000000D03*
G36*
X61900000Y-116000000D02*
G01*
X63600000Y-116000000D01*
X63600000Y-117000000D01*
X61900000Y-117000000D01*
X61400000Y-117500000D01*
X60600000Y-117500000D01*
X60100000Y-117000000D01*
X58400000Y-117000000D01*
X58400000Y-116000000D01*
X60100000Y-116000000D01*
X60600000Y-115500000D01*
X61400000Y-115500000D01*
X61900000Y-116000000D01*
G37*
X59150000Y-118000000D03*
X62850000Y-118000000D03*
X62850000Y-115000000D03*
%TD*%
D41*
%TO.C,H5*%
X220000000Y-85000000D03*
%TD*%
D27*
%TO.C,D6*%
X176900000Y-121100000D03*
X180900000Y-121100000D03*
%TD*%
D33*
%TO.C,R1*%
X170500000Y-116037500D03*
X170500000Y-118962500D03*
%TD*%
D23*
%TO.C,J15*%
X180000000Y-125000000D03*
%TD*%
D46*
%TO.C,C14*%
X184300000Y-112137500D03*
X184300000Y-113862500D03*
%TD*%
D22*
%TO.C,R20*%
X165812500Y-107400000D03*
X163987500Y-107400000D03*
%TD*%
%TO.C,R24*%
X169312500Y-107400000D03*
X167487500Y-107400000D03*
%TD*%
D47*
%TO.C,C1*%
X165937500Y-121500000D03*
X169062500Y-121500000D03*
%TD*%
D41*
%TO.C,H3*%
X40000000Y-125000000D03*
%TD*%
D18*
%TO.C,L1*%
X156000000Y-116550000D03*
X156000000Y-126450000D03*
%TD*%
D48*
%TO.C,C9*%
X146095146Y-111804854D03*
X148304854Y-109595146D03*
%TD*%
D22*
%TO.C,R12*%
X78412500Y-111000000D03*
X76587500Y-111000000D03*
%TD*%
D15*
%TO.C,R15*%
X108087500Y-111000000D03*
X109912500Y-111000000D03*
%TD*%
D21*
%TO.C,U3*%
X216150000Y-115500000D03*
G36*
X218900000Y-116500000D02*
G01*
X220600000Y-116500000D01*
X220600000Y-117500000D01*
X218900000Y-117500000D01*
X218400000Y-118000000D01*
X217600000Y-118000000D01*
X217100000Y-117500000D01*
X215400000Y-117500000D01*
X215400000Y-116500000D01*
X217100000Y-116500000D01*
X217600000Y-116000000D01*
X218400000Y-116000000D01*
X218900000Y-116500000D01*
G37*
X216150000Y-118500000D03*
X219850000Y-118500000D03*
X219850000Y-115500000D03*
%TD*%
D23*
%TO.C,J2*%
X170000000Y-125000000D03*
%TD*%
D49*
%TO.C,C15*%
X149390120Y-100490120D03*
X150609880Y-101709880D03*
%TD*%
D50*
%TO.C,J22*%
X201930000Y-100330000D03*
D51*
X199390000Y-100330000D03*
X196850000Y-100330000D03*
X194310000Y-100330000D03*
X191770000Y-100330000D03*
X189230000Y-100330000D03*
X186690000Y-100330000D03*
X184150000Y-100330000D03*
X181610000Y-100330000D03*
X179070000Y-100330000D03*
X176530000Y-100330000D03*
X173990000Y-100330000D03*
X171450000Y-100330000D03*
X168910000Y-100330000D03*
X166370000Y-100330000D03*
X163830000Y-100330000D03*
X161290000Y-100330000D03*
X158750000Y-100330000D03*
X156210000Y-100330000D03*
X153670000Y-100330000D03*
%TD*%
D25*
%TO.C,SW4*%
X111760000Y-107950000D03*
X111760000Y-95450000D03*
X116760000Y-107950000D03*
X116760000Y-95450000D03*
%TD*%
D52*
%TO.C,R9*%
X204445235Y-90454765D03*
X203154765Y-91745235D03*
%TD*%
D50*
%TO.C,J21*%
X201930000Y-82550000D03*
D51*
X199390000Y-82550000D03*
X196850000Y-82550000D03*
X194310000Y-82550000D03*
X191770000Y-82550000D03*
X189230000Y-82550000D03*
X186690000Y-82550000D03*
X184150000Y-82550000D03*
X181610000Y-82550000D03*
X179070000Y-82550000D03*
X176530000Y-82550000D03*
X173990000Y-82550000D03*
X171450000Y-82550000D03*
X168910000Y-82550000D03*
X166370000Y-82550000D03*
X163830000Y-82550000D03*
X161290000Y-82550000D03*
X158750000Y-82550000D03*
X156210000Y-82550000D03*
X153670000Y-82550000D03*
%TD*%
D33*
%TO.C,R3*%
X65500000Y-115037500D03*
X65500000Y-117962500D03*
%TD*%
D22*
%TO.C,R23*%
X169512500Y-103000000D03*
X167687500Y-103000000D03*
%TD*%
D21*
%TO.C,U2*%
X164150000Y-116000000D03*
G36*
X166900000Y-117000000D02*
G01*
X168600000Y-117000000D01*
X168600000Y-118000000D01*
X166900000Y-118000000D01*
X166400000Y-118500000D01*
X165600000Y-118500000D01*
X165100000Y-118000000D01*
X163400000Y-118000000D01*
X163400000Y-117000000D01*
X165100000Y-117000000D01*
X165600000Y-116500000D01*
X166400000Y-116500000D01*
X166900000Y-117000000D01*
G37*
X164150000Y-119000000D03*
X167850000Y-119000000D03*
X167850000Y-116000000D03*
%TD*%
D19*
%TO.C,C7*%
X55912500Y-95525000D03*
X52787500Y-95525000D03*
%TD*%
D47*
%TO.C,C4*%
X205937500Y-121500000D03*
X209062500Y-121500000D03*
%TD*%
D53*
%TO.C,L5*%
X126950000Y-118000000D03*
X117050000Y-118000000D03*
%TD*%
D22*
%TO.C,R16*%
X133412500Y-111000000D03*
X131587500Y-111000000D03*
%TD*%
D39*
%TO.C,J24*%
X146000000Y-85600000D03*
D40*
X143500000Y-85600000D03*
%TD*%
D54*
%TO.C,RV1*%
X71120000Y-85025000D03*
D55*
X71120000Y-88525000D03*
X129620000Y-85025000D03*
D56*
X125470000Y-90975000D03*
X124270000Y-82575000D03*
X75270000Y-90975000D03*
X76470000Y-82575000D03*
%TD*%
D17*
%TO.C,R17*%
X144650000Y-104087500D03*
X144650000Y-102262500D03*
%TD*%
D27*
%TO.C,D2*%
X220000000Y-109500000D03*
X216000000Y-109500000D03*
%TD*%
D17*
%TO.C,R25*%
X159300000Y-91612500D03*
X159300000Y-89787500D03*
%TD*%
D18*
%TO.C,L2*%
X207562500Y-108050000D03*
X207562500Y-117950000D03*
%TD*%
D23*
%TO.C,J14*%
X90000000Y-125000000D03*
%TD*%
%TO.C,J10*%
X125000000Y-127000000D03*
%TD*%
%TO.C,J17*%
X195000000Y-125000000D03*
%TD*%
D41*
%TO.C,H1*%
X135000000Y-85000000D03*
%TD*%
D19*
%TO.C,C6*%
X64062500Y-121000000D03*
X60937500Y-121000000D03*
%TD*%
D57*
%TO.C,C11*%
X211104854Y-84895146D03*
X208895146Y-87104854D03*
%TD*%
D38*
%TO.C,R21*%
X141404765Y-106495235D03*
X142695235Y-105204765D03*
%TD*%
D41*
%TO.C,H2*%
X135000000Y-125000000D03*
%TD*%
D22*
%TO.C,R13*%
X92412500Y-111000000D03*
X90587500Y-111000000D03*
%TD*%
M02*
