%TF.GenerationSoftware,KiCad,Pcbnew,(5.99.0-7597-g9f5b12c7f7)*%
%TF.CreationDate,2021-12-15T12:43:45+01:00*%
%TF.ProjectId,controller,636f6e74-726f-46c6-9c65-722e6b696361,rev?*%
%TF.SameCoordinates,Original*%
%TF.FileFunction,Soldermask,Top*%
%TF.FilePolarity,Negative*%
%FSLAX46Y46*%
G04 Gerber Fmt 4.6, Leading zero omitted, Abs format (unit mm)*
G04 Created by KiCad (PCBNEW (5.99.0-7597-g9f5b12c7f7)) date 2021-12-15 12:43:45*
%MOMM*%
%LPD*%
G01*
G04 APERTURE LIST*
G04 Aperture macros list*
%AMRoundRect*
0 Rectangle with rounded corners*
0 $1 Rounding radius*
0 $2 $3 $4 $5 $6 $7 $8 $9 X,Y pos of 4 corners*
0 Add a 4 corners polygon primitive as box body*
4,1,4,$2,$3,$4,$5,$6,$7,$8,$9,$2,$3,0*
0 Add four circle primitives for the rounded corners*
1,1,$1+$1,$2,$3,0*
1,1,$1+$1,$4,$5,0*
1,1,$1+$1,$6,$7,0*
1,1,$1+$1,$8,$9,0*
0 Add four rect primitives between the rounded corners*
20,1,$1+$1,$2,$3,$4,$5,0*
20,1,$1+$1,$4,$5,$6,$7,0*
20,1,$1+$1,$6,$7,$8,$9,0*
20,1,$1+$1,$8,$9,$2,$3,0*%
%AMRotRect*
0 Rectangle, with rotation*
0 The origin of the aperture is its center*
0 $1 length*
0 $2 width*
0 $3 Rotation angle, in degrees counterclockwise*
0 Add horizontal line*
21,1,$1,$2,0,0,$3*%
G04 Aperture macros list end*
%ADD10RoundRect,0.237500X-0.344715X0.008839X0.008839X-0.344715X0.344715X-0.008839X-0.008839X0.344715X0*%
%ADD11RoundRect,0.237500X-0.237500X0.250000X-0.237500X-0.250000X0.237500X-0.250000X0.237500X0.250000X0*%
%ADD12RoundRect,0.237500X-0.250000X-0.237500X0.250000X-0.237500X0.250000X0.237500X-0.250000X0.237500X0*%
%ADD13R,0.900000X0.800000*%
%ADD14RoundRect,0.237500X0.237500X-0.250000X0.237500X0.250000X-0.237500X0.250000X-0.237500X-0.250000X0*%
%ADD15R,5.400000X2.900000*%
%ADD16RoundRect,0.250000X0.412500X0.650000X-0.412500X0.650000X-0.412500X-0.650000X0.412500X-0.650000X0*%
%ADD17RoundRect,0.250000X-0.650000X0.412500X-0.650000X-0.412500X0.650000X-0.412500X0.650000X0.412500X0*%
%ADD18R,1.500000X0.700000*%
%ADD19RoundRect,0.237500X0.250000X0.237500X-0.250000X0.237500X-0.250000X-0.237500X0.250000X-0.237500X0*%
%ADD20C,3.000000*%
%ADD21RoundRect,0.150000X-0.671751X0.459619X0.459619X-0.671751X0.671751X-0.459619X-0.459619X0.671751X0*%
%ADD22O,1.850000X3.048000*%
%ADD23RoundRect,0.237500X0.344715X-0.008839X-0.008839X0.344715X-0.344715X0.008839X0.008839X-0.344715X0*%
%ADD24R,2.500000X1.800000*%
%ADD25C,4.000000*%
%ADD26R,1.600000X1.600000*%
%ADD27C,1.600000*%
%ADD28R,1.100000X4.600000*%
%ADD29R,10.800000X9.400000*%
%ADD30RoundRect,0.250000X-0.625000X0.312500X-0.625000X-0.312500X0.625000X-0.312500X0.625000X0.312500X0*%
%ADD31RoundRect,0.150000X0.150000X-0.825000X0.150000X0.825000X-0.150000X0.825000X-0.150000X-0.825000X0*%
%ADD32RoundRect,0.200000X0.335876X0.053033X0.053033X0.335876X-0.335876X-0.053033X-0.053033X-0.335876X0*%
%ADD33RotRect,2.500000X1.800000X135.000000*%
%ADD34RoundRect,0.250000X-0.220971X0.662913X-0.662913X0.220971X0.220971X-0.662913X0.662913X-0.220971X0*%
%ADD35RoundRect,0.237500X-0.008839X-0.344715X0.344715X0.008839X0.008839X0.344715X-0.344715X-0.008839X0*%
%ADD36RoundRect,0.250000X0.600000X0.750000X-0.600000X0.750000X-0.600000X-0.750000X0.600000X-0.750000X0*%
%ADD37O,1.700000X2.000000*%
%ADD38C,3.500000*%
%ADD39C,1.440000*%
%ADD40RotRect,1.500000X0.700000X315.000000*%
%ADD41R,1.500000X2.000000*%
%ADD42R,3.800000X2.000000*%
%ADD43RoundRect,0.237500X-0.237500X0.300000X-0.237500X-0.300000X0.237500X-0.300000X0.237500X0.300000X0*%
%ADD44RoundRect,0.250000X-0.412500X-0.650000X0.412500X-0.650000X0.412500X0.650000X-0.412500X0.650000X0*%
%ADD45RoundRect,0.250000X0.167938X-0.751301X0.751301X-0.167938X-0.167938X0.751301X-0.751301X0.167938X0*%
%ADD46RoundRect,0.237500X-0.380070X0.044194X0.044194X-0.380070X0.380070X-0.044194X-0.044194X0.380070X0*%
%ADD47R,1.700000X1.700000*%
%ADD48O,1.700000X1.700000*%
%ADD49RoundRect,0.237500X0.008839X0.344715X-0.344715X-0.008839X-0.008839X-0.344715X0.344715X0.008839X0*%
%ADD50R,2.900000X5.400000*%
%ADD51R,1.750000X1.750000*%
%ADD52C,1.750000*%
%ADD53C,2.700000*%
%ADD54RoundRect,0.250000X-0.167938X0.751301X-0.751301X0.167938X0.167938X-0.751301X0.751301X-0.167938X0*%
G04 APERTURE END LIST*
D10*
%TO.C,R11*%
X199654765Y-90454765D03*
X200945235Y-91745235D03*
%TD*%
D11*
%TO.C,R32*%
X196800000Y-92762500D03*
X196800000Y-90937500D03*
%TD*%
D12*
%TO.C,R31*%
X191162500Y-93850000D03*
X189337500Y-93850000D03*
%TD*%
D11*
%TO.C,R30*%
X196850000Y-87312500D03*
X196850000Y-85487500D03*
%TD*%
D12*
%TO.C,R29*%
X191062500Y-88350000D03*
X189237500Y-88350000D03*
%TD*%
D13*
%TO.C,Q3*%
X194950000Y-92850000D03*
X192950000Y-93800000D03*
X192950000Y-91900000D03*
%TD*%
%TO.C,Q2*%
X195100000Y-87400000D03*
X193100000Y-88350000D03*
X193100000Y-86450000D03*
%TD*%
D14*
%TO.C,R28*%
X138800000Y-94387500D03*
X138800000Y-96212500D03*
%TD*%
%TO.C,R27*%
X138800000Y-90987500D03*
X138800000Y-92812500D03*
%TD*%
D15*
%TO.C,L3*%
X51000000Y-115050000D03*
X51000000Y-124950000D03*
%TD*%
D16*
%TO.C,C10*%
X136462500Y-119800000D03*
X133337500Y-119800000D03*
%TD*%
%TO.C,C3*%
X221062500Y-113000000D03*
X217937500Y-113000000D03*
%TD*%
D17*
%TO.C,C12*%
X173812200Y-120205100D03*
X173812200Y-123330100D03*
%TD*%
D18*
%TO.C,U5*%
X51000000Y-98025000D03*
G36*
X53750000Y-99025000D02*
G01*
X55450000Y-99025000D01*
X55450000Y-100025000D01*
X53750000Y-100025000D01*
X53250000Y-100525000D01*
X52450000Y-100525000D01*
X51950000Y-100025000D01*
X50250000Y-100025000D01*
X50250000Y-99025000D01*
X51950000Y-99025000D01*
X52450000Y-98525000D01*
X53250000Y-98525000D01*
X53750000Y-99025000D01*
G37*
X51000000Y-101025000D03*
X54700000Y-101025000D03*
X54700000Y-98025000D03*
%TD*%
D19*
%TO.C,R18*%
X146650000Y-100525000D03*
X144825000Y-100525000D03*
%TD*%
D20*
%TO.C,J1*%
X165000000Y-125000000D03*
%TD*%
D21*
%TO.C,U1*%
X213872165Y-87178088D03*
X212974139Y-88076113D03*
X212076113Y-88974139D03*
X211178088Y-89872165D03*
X216127835Y-94821912D03*
X217025861Y-93923887D03*
X217923887Y-93025861D03*
X218821912Y-92127835D03*
%TD*%
D22*
%TO.C,SW2*%
X83820000Y-95450000D03*
X83820000Y-107950000D03*
X88820000Y-107950000D03*
X88820000Y-95450000D03*
%TD*%
%TO.C,SW1*%
X69850000Y-95450000D03*
X69850000Y-107950000D03*
X74850000Y-95450000D03*
X74850000Y-107950000D03*
%TD*%
D20*
%TO.C,J7*%
X105000000Y-125000000D03*
%TD*%
D23*
%TO.C,R8*%
X204445235Y-88245235D03*
X203154765Y-86954765D03*
%TD*%
D20*
%TO.C,J3*%
X205000000Y-125000000D03*
%TD*%
D19*
%TO.C,R26*%
X155612500Y-96500000D03*
X153787500Y-96500000D03*
%TD*%
D14*
%TO.C,R22*%
X146675000Y-104137500D03*
X146675000Y-102312500D03*
%TD*%
D15*
%TO.C,L4*%
X42850000Y-98075000D03*
X42850000Y-107975000D03*
%TD*%
D24*
%TO.C,D4*%
X55350000Y-92025000D03*
X51350000Y-92025000D03*
%TD*%
D22*
%TO.C,SW3*%
X97790000Y-107950000D03*
X97790000Y-95450000D03*
X102790000Y-107950000D03*
X102790000Y-95450000D03*
%TD*%
D25*
%TO.C,J20*%
X228920000Y-121955000D03*
X228920000Y-88655000D03*
D26*
X227500000Y-115000000D03*
D27*
X227500000Y-112230000D03*
X227500000Y-109460000D03*
X227500000Y-106690000D03*
X227500000Y-103920000D03*
X227500000Y-101150000D03*
X227500000Y-98380000D03*
X227500000Y-95610000D03*
X230340000Y-113615000D03*
X230340000Y-110845000D03*
X230340000Y-108075000D03*
X230340000Y-105305000D03*
X230340000Y-102535000D03*
X230340000Y-99765000D03*
X230340000Y-96995000D03*
%TD*%
D22*
%TO.C,SW5*%
X125730000Y-107950000D03*
X125730000Y-95450000D03*
X130730000Y-107950000D03*
X130730000Y-95450000D03*
%TD*%
D16*
%TO.C,C13*%
X199462500Y-103900000D03*
X196337500Y-103900000D03*
%TD*%
D28*
%TO.C,U7*%
X174400000Y-116475000D03*
X176100000Y-116475000D03*
X177800000Y-116475000D03*
D29*
X177800000Y-107325000D03*
D28*
X179500000Y-116475000D03*
X181200000Y-116475000D03*
%TD*%
D19*
%TO.C,R19*%
X169412500Y-104600000D03*
X167587500Y-104600000D03*
%TD*%
D30*
%TO.C,R2*%
X222500000Y-115537500D03*
X222500000Y-118462500D03*
%TD*%
D20*
%TO.C,J13*%
X85000000Y-125000000D03*
%TD*%
D24*
%TO.C,D3*%
X63500000Y-109000000D03*
X59500000Y-109000000D03*
%TD*%
D20*
%TO.C,J16*%
X185000000Y-125000000D03*
%TD*%
D31*
%TO.C,U8*%
X151890000Y-109675000D03*
X153160000Y-109675000D03*
X154430000Y-109675000D03*
X155700000Y-109675000D03*
X156970000Y-109675000D03*
X158240000Y-109675000D03*
X159510000Y-109675000D03*
X159510000Y-104725000D03*
X158240000Y-104725000D03*
X156970000Y-104725000D03*
X155700000Y-104725000D03*
X154430000Y-104725000D03*
X153160000Y-104725000D03*
X151890000Y-104725000D03*
%TD*%
D20*
%TO.C,J19*%
X120000000Y-127000000D03*
%TD*%
%TO.C,J4*%
X210000000Y-125000000D03*
%TD*%
D17*
%TO.C,C8*%
X95600000Y-119437500D03*
X95600000Y-122562500D03*
%TD*%
D20*
%TO.C,J6*%
X60000000Y-125000000D03*
%TD*%
D16*
%TO.C,C5*%
X64062500Y-112500000D03*
X60937500Y-112500000D03*
%TD*%
D32*
%TO.C,R6*%
X221583363Y-95583363D03*
X220416637Y-94416637D03*
%TD*%
D20*
%TO.C,J18*%
X190000000Y-125000000D03*
%TD*%
%TO.C,J5*%
X65000000Y-125000000D03*
%TD*%
D19*
%TO.C,R14*%
X106412500Y-111000000D03*
X104587500Y-111000000D03*
%TD*%
D33*
%TO.C,D5*%
X145414214Y-116814214D03*
X142585786Y-113985786D03*
%TD*%
D20*
%TO.C,J12*%
X75000000Y-125000000D03*
%TD*%
D34*
%TO.C,R5*%
X146934144Y-119365856D03*
X144865856Y-121434144D03*
%TD*%
D35*
%TO.C,R10*%
X199654765Y-88245235D03*
X200945235Y-86954765D03*
%TD*%
D24*
%TO.C,D1*%
X168000000Y-110000000D03*
X164000000Y-110000000D03*
%TD*%
D30*
%TO.C,R4*%
X57350000Y-98062500D03*
X57350000Y-100987500D03*
%TD*%
D20*
%TO.C,J8*%
X100000000Y-125000000D03*
%TD*%
D36*
%TO.C,J23*%
X146000000Y-93500000D03*
D37*
X143500000Y-93500000D03*
%TD*%
D38*
%TO.C,H4*%
X40000000Y-85000000D03*
%TD*%
D39*
%TO.C,RV2*%
X192800000Y-105100000D03*
X190260000Y-105100000D03*
X187720000Y-105100000D03*
%TD*%
D20*
%TO.C,J9*%
X145000000Y-125000000D03*
%TD*%
D40*
%TO.C,U6*%
X140962564Y-116655456D03*
G36*
X142200000Y-119307106D02*
G01*
X143402082Y-120509188D01*
X142694975Y-121216295D01*
X141492893Y-120014213D01*
X140785787Y-120014213D01*
X140220102Y-119448528D01*
X140220102Y-118741422D01*
X139018020Y-117539340D01*
X139725127Y-116832233D01*
X140927209Y-118034315D01*
X141634315Y-118034315D01*
X142200000Y-118600000D01*
X142200000Y-119307106D01*
G37*
X138841243Y-118776777D03*
X141457538Y-121393072D03*
X143578859Y-119271751D03*
%TD*%
D38*
%TO.C,H6*%
X220000000Y-125000000D03*
%TD*%
D16*
%TO.C,C2*%
X169062500Y-113500000D03*
X165937500Y-113500000D03*
%TD*%
D41*
%TO.C,Q1*%
X152300000Y-94050000D03*
X154600000Y-94050000D03*
D42*
X154600000Y-87750000D03*
D41*
X156900000Y-94050000D03*
%TD*%
D20*
%TO.C,J11*%
X80000000Y-125000000D03*
%TD*%
D32*
%TO.C,R7*%
X219583363Y-97583363D03*
X218416637Y-96416637D03*
%TD*%
D15*
%TO.C,L6*%
X191800000Y-119750000D03*
X191800000Y-109850000D03*
%TD*%
D18*
%TO.C,U4*%
X59150000Y-115000000D03*
G36*
X61900000Y-116000000D02*
G01*
X63600000Y-116000000D01*
X63600000Y-117000000D01*
X61900000Y-117000000D01*
X61400000Y-117500000D01*
X60600000Y-117500000D01*
X60100000Y-117000000D01*
X58400000Y-117000000D01*
X58400000Y-116000000D01*
X60100000Y-116000000D01*
X60600000Y-115500000D01*
X61400000Y-115500000D01*
X61900000Y-116000000D01*
G37*
X59150000Y-118000000D03*
X62850000Y-118000000D03*
X62850000Y-115000000D03*
%TD*%
D38*
%TO.C,H5*%
X220000000Y-85000000D03*
%TD*%
D24*
%TO.C,D6*%
X176900000Y-121100000D03*
X180900000Y-121100000D03*
%TD*%
D30*
%TO.C,R1*%
X170500000Y-116037500D03*
X170500000Y-118962500D03*
%TD*%
D20*
%TO.C,J15*%
X180000000Y-125000000D03*
%TD*%
D43*
%TO.C,C14*%
X184300000Y-112137500D03*
X184300000Y-113862500D03*
%TD*%
D19*
%TO.C,R20*%
X165812500Y-107400000D03*
X163987500Y-107400000D03*
%TD*%
%TO.C,R24*%
X169312500Y-107400000D03*
X167487500Y-107400000D03*
%TD*%
D44*
%TO.C,C1*%
X165937500Y-121500000D03*
X169062500Y-121500000D03*
%TD*%
D38*
%TO.C,H3*%
X40000000Y-125000000D03*
%TD*%
D15*
%TO.C,L1*%
X156000000Y-116550000D03*
X156000000Y-126450000D03*
%TD*%
D45*
%TO.C,C9*%
X146095146Y-111804854D03*
X148304854Y-109595146D03*
%TD*%
D19*
%TO.C,R12*%
X78412500Y-111000000D03*
X76587500Y-111000000D03*
%TD*%
D12*
%TO.C,R15*%
X108087500Y-111000000D03*
X109912500Y-111000000D03*
%TD*%
D18*
%TO.C,U3*%
X216150000Y-115500000D03*
G36*
X218900000Y-116500000D02*
G01*
X220600000Y-116500000D01*
X220600000Y-117500000D01*
X218900000Y-117500000D01*
X218400000Y-118000000D01*
X217600000Y-118000000D01*
X217100000Y-117500000D01*
X215400000Y-117500000D01*
X215400000Y-116500000D01*
X217100000Y-116500000D01*
X217600000Y-116000000D01*
X218400000Y-116000000D01*
X218900000Y-116500000D01*
G37*
X216150000Y-118500000D03*
X219850000Y-118500000D03*
X219850000Y-115500000D03*
%TD*%
D20*
%TO.C,J2*%
X170000000Y-125000000D03*
%TD*%
D46*
%TO.C,C15*%
X149390120Y-100490120D03*
X150609880Y-101709880D03*
%TD*%
D47*
%TO.C,J22*%
X201930000Y-100330000D03*
D48*
X199390000Y-100330000D03*
X196850000Y-100330000D03*
X194310000Y-100330000D03*
X191770000Y-100330000D03*
X189230000Y-100330000D03*
X186690000Y-100330000D03*
X184150000Y-100330000D03*
X181610000Y-100330000D03*
X179070000Y-100330000D03*
X176530000Y-100330000D03*
X173990000Y-100330000D03*
X171450000Y-100330000D03*
X168910000Y-100330000D03*
X166370000Y-100330000D03*
X163830000Y-100330000D03*
X161290000Y-100330000D03*
X158750000Y-100330000D03*
X156210000Y-100330000D03*
X153670000Y-100330000D03*
%TD*%
D22*
%TO.C,SW4*%
X111760000Y-107950000D03*
X111760000Y-95450000D03*
X116760000Y-107950000D03*
X116760000Y-95450000D03*
%TD*%
D49*
%TO.C,R9*%
X204445235Y-90454765D03*
X203154765Y-91745235D03*
%TD*%
D47*
%TO.C,J21*%
X201930000Y-82550000D03*
D48*
X199390000Y-82550000D03*
X196850000Y-82550000D03*
X194310000Y-82550000D03*
X191770000Y-82550000D03*
X189230000Y-82550000D03*
X186690000Y-82550000D03*
X184150000Y-82550000D03*
X181610000Y-82550000D03*
X179070000Y-82550000D03*
X176530000Y-82550000D03*
X173990000Y-82550000D03*
X171450000Y-82550000D03*
X168910000Y-82550000D03*
X166370000Y-82550000D03*
X163830000Y-82550000D03*
X161290000Y-82550000D03*
X158750000Y-82550000D03*
X156210000Y-82550000D03*
X153670000Y-82550000D03*
%TD*%
D30*
%TO.C,R3*%
X65500000Y-115037500D03*
X65500000Y-117962500D03*
%TD*%
D19*
%TO.C,R23*%
X169512500Y-103000000D03*
X167687500Y-103000000D03*
%TD*%
D18*
%TO.C,U2*%
X164150000Y-116000000D03*
G36*
X166900000Y-117000000D02*
G01*
X168600000Y-117000000D01*
X168600000Y-118000000D01*
X166900000Y-118000000D01*
X166400000Y-118500000D01*
X165600000Y-118500000D01*
X165100000Y-118000000D01*
X163400000Y-118000000D01*
X163400000Y-117000000D01*
X165100000Y-117000000D01*
X165600000Y-116500000D01*
X166400000Y-116500000D01*
X166900000Y-117000000D01*
G37*
X164150000Y-119000000D03*
X167850000Y-119000000D03*
X167850000Y-116000000D03*
%TD*%
D16*
%TO.C,C7*%
X55912500Y-95525000D03*
X52787500Y-95525000D03*
%TD*%
D44*
%TO.C,C4*%
X205937500Y-121500000D03*
X209062500Y-121500000D03*
%TD*%
D50*
%TO.C,L5*%
X126950000Y-118000000D03*
X117050000Y-118000000D03*
%TD*%
D19*
%TO.C,R16*%
X133412500Y-111000000D03*
X131587500Y-111000000D03*
%TD*%
D36*
%TO.C,J24*%
X146000000Y-85600000D03*
D37*
X143500000Y-85600000D03*
%TD*%
D51*
%TO.C,RV1*%
X71120000Y-85025000D03*
D52*
X71120000Y-88525000D03*
X129620000Y-85025000D03*
D53*
X125470000Y-90975000D03*
X124270000Y-82575000D03*
X75270000Y-90975000D03*
X76470000Y-82575000D03*
%TD*%
D14*
%TO.C,R17*%
X144650000Y-104087500D03*
X144650000Y-102262500D03*
%TD*%
D24*
%TO.C,D2*%
X220000000Y-109500000D03*
X216000000Y-109500000D03*
%TD*%
D14*
%TO.C,R25*%
X159300000Y-91612500D03*
X159300000Y-89787500D03*
%TD*%
D15*
%TO.C,L2*%
X207562500Y-108050000D03*
X207562500Y-117950000D03*
%TD*%
D20*
%TO.C,J14*%
X90000000Y-125000000D03*
%TD*%
%TO.C,J10*%
X125000000Y-127000000D03*
%TD*%
%TO.C,J17*%
X195000000Y-125000000D03*
%TD*%
D38*
%TO.C,H1*%
X135000000Y-85000000D03*
%TD*%
D16*
%TO.C,C6*%
X64062500Y-121000000D03*
X60937500Y-121000000D03*
%TD*%
D54*
%TO.C,C11*%
X211104854Y-84895146D03*
X208895146Y-87104854D03*
%TD*%
D35*
%TO.C,R21*%
X141404765Y-106495235D03*
X142695235Y-105204765D03*
%TD*%
D38*
%TO.C,H2*%
X135000000Y-125000000D03*
%TD*%
D19*
%TO.C,R13*%
X92412500Y-111000000D03*
X90587500Y-111000000D03*
%TD*%
M02*
