M48
; DRILL file {KiCad (5.99.0-7597-g9f5b12c7f7)} date Wed Dec 15 12:43:48 2021
; FORMAT={-:-/ absolute / inch / decimal}
; #@! TF.CreationDate,2021-12-15T12:43:48+01:00
; #@! TF.GenerationSoftware,Kicad,Pcbnew,(5.99.0-7597-g9f5b12c7f7)
; #@! TF.FileFunction,Plated,1,2,PTH
FMAT,2
INCH
T1C0.0157
T2C0.0197
T3C0.0315
T4C0.0394
T5C0.0472
T6C0.0512
T7C0.0669
T8C0.1260
%
G90
G05
T1
X2.2185Y-3.623
X2.2185Y-3.6624
X2.2185Y-3.7018
X2.2185Y-3.7411
X2.2185Y-3.7805
X2.2185Y-3.8199
X2.2185Y-3.8593
X2.2579Y-3.623
X2.2579Y-3.6624
X2.2579Y-3.7018
X2.2579Y-3.7411
X2.2579Y-3.7805
X2.2579Y-3.8199
X2.2579Y-3.8593
X2.5394Y-4.2913
X2.5394Y-4.3307
X2.5394Y-4.3701
X2.5394Y-4.4094
X2.5394Y-4.4488
X2.5394Y-4.4882
X2.5394Y-4.5276
X2.578Y-4.5283
X2.5787Y-4.4488
X2.5787Y-4.4882
X5.4783Y-4.6161
X5.5079Y-4.7323
X5.563Y-4.685
X5.5945Y-4.6535
X5.6319Y-4.7598
X5.6614Y-4.3386
X5.6893Y-4.3107
X5.6893Y-4.3664
X5.7171Y-4.3386
X5.7171Y-4.3943
X5.7244Y-4.7244
X5.7449Y-4.3664
X5.7449Y-4.4221
X5.7638Y-4.7539
X5.7728Y-4.3943
X5.7728Y-4.4499
X5.8006Y-4.4231
X6.4291Y-4.626
X6.435Y-4.7776
X6.439Y-4.7323
X6.4803Y-4.7343
X6.5354Y-4.626
X6.6339Y-4.3307
X6.6339Y-4.3701
X6.6339Y-4.4094
X6.6339Y-4.4488
X6.6339Y-4.4882
X6.6339Y-4.5276
X6.6339Y-4.5669
X6.6929Y-4.3307
X6.6929Y-4.3701
X6.6929Y-4.4094
X6.6929Y-4.4488
X6.6929Y-4.4882
X6.6929Y-4.5276
X6.6929Y-4.5669
T2
X1.9449Y-4.0236
X2.0807Y-3.8337
X2.0807Y-3.874
X2.0807Y-3.9183
X2.0807Y-3.9587
X2.1211Y-3.9173
X2.1575Y-3.9183
X2.2992Y-4.6693
X2.4016Y-4.5069
X2.4016Y-4.5463
X2.4016Y-4.5866
X2.4016Y-4.627
X2.4016Y-4.6663
X2.4409Y-4.5866
X2.4803Y-4.5906
X2.6772Y-4.9469
X2.6988Y-4.5984
X2.7323Y-4.4134
X2.7815Y-5.0472
X2.7874Y-4.8248
X2.8228Y-4.7087
X2.8543Y-4.5197
X2.8661Y-4.9567
X2.9094Y-3.8661
X2.9803Y-4.6673
X2.9941Y-3.8681
X3.0492Y-4.872
X3.1732Y-4.4685
X3.2323Y-4.8858
X3.25Y-4.9744
X3.4587Y-3.8642
X3.5433Y-3.8622
X3.6644Y-4.9222
X3.9114Y-4.8169
X4.0079Y-3.8563
X4.0354Y-4.9567
X4.0827Y-3.8622
X4.437Y-5.0748
X4.4506Y-4.422
X4.4803Y-4.626
X4.4911Y-4.4232
X4.4941Y-4.8563
X4.5531Y-3.8465
X4.6417Y-3.8524
X4.7628Y-4.1742
X4.7805Y-4.1329
X4.8061Y-3.4478
X5.0266Y-3.8504
X5.0728Y-3.8514
X5.1181Y-3.4646
X5.1181Y-3.5827
X5.1437Y-4.4921
X5.1476Y-5.065
X5.1496Y-4.6791
X5.1614Y-3.4803
X5.1969Y-4.1535
X5.252Y-4.4882
X5.2559Y-3.8189
X5.2638Y-3.7677
X5.3406Y-3.7638
X5.3543Y-3.6398
X5.374Y-3.7008
X5.3937Y-4.502
X5.4094Y-3.5846
X5.4094Y-3.8091
X5.4252Y-4.6654
X5.4311Y-3.5374
X5.4528Y-4.0945
X5.4626Y-5.063
X5.5197Y-3.7579
X5.5276Y-4.0827
X5.5846Y-3.7972
X5.6407Y-4.0039
X5.6437Y-3.9577
X5.6456Y-3.8013
X5.6969Y-4.1693
X5.8091Y-5.0787
X5.813Y-4.8386
X5.8858Y-3.4646
X5.9055Y-3.7008
X5.9173Y-4.0827
X6.0984Y-4.0433
X6.1575Y-3.5512
X6.1575Y-3.6142
X6.2087Y-3.4803
X6.2087Y-3.5512
X6.2087Y-3.6142
X6.2283Y-4.0492
X6.2756Y-3.4803
X6.3563Y-4.1476
X6.3799Y-4.4783
X6.3799Y-4.6102
X6.4449Y-4.122
X6.4744Y-5.0768
X6.4764Y-4.626
X6.5118Y-4.1181
X6.5354Y-4.5669
X6.8602Y-4.3209
X6.9291Y-4.2264
X7.0197Y-5.0787
X7.0492Y-4.315
X7.0531Y-3.8406
X7.1358Y-4.2126
X7.4902Y-3.6043
X7.4941Y-3.5354
X7.5512Y-3.6476
X7.5984Y-3.5472
X7.6478Y-3.4746
X7.689Y-3.5531
X7.7657Y-5.0846
X7.7815Y-3.5157
X7.7963Y-3.4454
X7.8093Y-3.6161
X7.8169Y-3.7854
X7.8357Y-4.2778
X7.8445Y-3.8504
X7.8562Y-4.242
X7.8786Y-4.205
X7.9331Y-3.4744
X7.9409Y-4.8248
X8.0138Y-3.7854
X8.065Y-3.7264
X8.0846Y-3.9094
X8.1457Y-3.8445
X8.1949Y-3.6929
X8.248Y-3.8287
X8.3228Y-4.748
X8.3583Y-3.815
X8.3642Y-3.9429
X8.374Y-4.0394
X8.378Y-4.748
X8.4055Y-4.1181
X8.4567Y-4.4046
X8.4587Y-4.1437
X8.4606Y-3.8327
X8.4783Y-3.9469
X8.5039Y-4.0256
X8.5197Y-4.1043
X8.5295Y-5.0748
X8.8878Y-5.0709
T3
X7.3906Y-4.1378
X7.4906Y-4.1378
X7.5906Y-4.1378
T4
X5.6496Y-3.3701
X5.6496Y-3.6811
X5.748Y-3.3701
X5.748Y-3.6811
X6.05Y-3.25
X6.05Y-3.95
X6.15Y-3.25
X6.15Y-3.95
X6.25Y-3.25
X6.25Y-3.95
X6.35Y-3.25
X6.35Y-3.95
X6.45Y-3.25
X6.45Y-3.95
X6.55Y-3.25
X6.55Y-3.95
X6.65Y-3.25
X6.65Y-3.95
X6.75Y-3.25
X6.75Y-3.95
X6.85Y-3.25
X6.85Y-3.95
X6.95Y-3.25
X6.95Y-3.95
X7.05Y-3.25
X7.05Y-3.95
X7.15Y-3.25
X7.15Y-3.95
X7.25Y-3.25
X7.25Y-3.95
X7.35Y-3.25
X7.35Y-3.95
X7.45Y-3.25
X7.45Y-3.95
X7.55Y-3.25
X7.55Y-3.95
X7.65Y-3.25
X7.65Y-3.95
X7.75Y-3.25
X7.75Y-3.95
X7.85Y-3.25
X7.85Y-3.95
X7.95Y-3.25
X7.95Y-3.95
X8.9567Y-3.7642
X8.9567Y-3.8732
X8.9567Y-3.9823
X8.9567Y-4.0913
X8.9567Y-4.2004
X8.9567Y-4.3094
X8.9567Y-4.4185
X8.9567Y-4.5276
X9.0685Y-3.8187
X9.0685Y-3.9278
X9.0685Y-4.0368
X9.0685Y-4.1459
X9.0685Y-4.2549
X9.0685Y-4.364
X9.0685Y-4.473
T5
X2.8Y-3.3474
X2.8Y-3.4852
X5.1031Y-3.3474
T6
X2.75Y-3.7579
X2.75Y-4.25
X2.9469Y-3.7579
X2.9469Y-4.25
X3.3Y-3.7579
X3.3Y-4.25
X3.4969Y-3.7579
X3.4969Y-4.25
X3.85Y-3.7579
X3.85Y-4.25
X4.0469Y-3.7579
X4.0469Y-4.25
X4.4Y-3.7579
X4.4Y-4.25
X4.5969Y-3.7579
X4.5969Y-4.25
X4.95Y-3.7579
X4.95Y-4.25
X5.1469Y-3.7579
X5.1469Y-4.25
T7
X2.9634Y-3.5817
X3.0106Y-3.251
X4.8925Y-3.251
X4.9398Y-3.5817
T8
X9.0126Y-3.4904
X9.0126Y-4.8014
T0
M30
