%TF.GenerationSoftware,KiCad,Pcbnew,(5.99.0-7597-g9f5b12c7f7)*%
%TF.CreationDate,2021-12-15T12:42:07+01:00*%
%TF.ProjectId,reflector,7265666c-6563-4746-9f72-2e6b69636164,rev?*%
%TF.SameCoordinates,Original*%
%TF.FileFunction,Paste,Top*%
%TF.FilePolarity,Positive*%
%FSLAX46Y46*%
G04 Gerber Fmt 4.6, Leading zero omitted, Abs format (unit mm)*
G04 Created by KiCad (PCBNEW (5.99.0-7597-g9f5b12c7f7)) date 2021-12-15 12:42:07*
%MOMM*%
%LPD*%
G01*
G04 APERTURE LIST*
G04 Aperture macros list*
%AMRoundRect*
0 Rectangle with rounded corners*
0 $1 Rounding radius*
0 $2 $3 $4 $5 $6 $7 $8 $9 X,Y pos of 4 corners*
0 Add a 4 corners polygon primitive as box body*
4,1,4,$2,$3,$4,$5,$6,$7,$8,$9,$2,$3,0*
0 Add four circle primitives for the rounded corners*
1,1,$1+$1,$2,$3,0*
1,1,$1+$1,$4,$5,0*
1,1,$1+$1,$6,$7,0*
1,1,$1+$1,$8,$9,0*
0 Add four rect primitives between the rounded corners*
20,1,$1+$1,$2,$3,$4,$5,0*
20,1,$1+$1,$4,$5,$6,$7,0*
20,1,$1+$1,$6,$7,$8,$9,0*
20,1,$1+$1,$8,$9,$2,$3,0*%
G04 Aperture macros list end*
%ADD10R,3.500000X2.700000*%
%ADD11C,5.700000*%
%ADD12RoundRect,0.150000X-0.825000X-0.150000X0.825000X-0.150000X0.825000X0.150000X-0.825000X0.150000X0*%
%ADD13RoundRect,0.250000X0.412500X0.650000X-0.412500X0.650000X-0.412500X-0.650000X0.412500X-0.650000X0*%
%ADD14RoundRect,0.237500X0.237500X-0.250000X0.237500X0.250000X-0.237500X0.250000X-0.237500X-0.250000X0*%
G04 APERTURE END LIST*
D10*
%TO.C,D22*%
X106350000Y-78650000D03*
X93650000Y-81350000D03*
D11*
X100000000Y-80000000D03*
%TD*%
D12*
%TO.C,U2*%
X197525000Y-203095000D03*
X197525000Y-204365000D03*
X197525000Y-205635000D03*
X197525000Y-206905000D03*
X202475000Y-206905000D03*
X202475000Y-205635000D03*
X202475000Y-204365000D03*
X202475000Y-203095000D03*
%TD*%
%TO.C,U4*%
X97525000Y-103095000D03*
X97525000Y-104365000D03*
X97525000Y-105635000D03*
X97525000Y-106905000D03*
X102475000Y-106905000D03*
X102475000Y-105635000D03*
X102475000Y-104365000D03*
X102475000Y-103095000D03*
%TD*%
D10*
%TO.C,D23*%
X193650000Y-81350000D03*
X206350000Y-78650000D03*
D11*
X200000000Y-80000000D03*
%TD*%
D10*
%TO.C,D13*%
X231350000Y-53650000D03*
X218650000Y-56350000D03*
D11*
X225000000Y-55000000D03*
%TD*%
D10*
%TO.C,D17*%
X81350000Y-103650000D03*
X68650000Y-106350000D03*
D11*
X75000000Y-105000000D03*
%TD*%
D10*
%TO.C,D20*%
X193650000Y-131350000D03*
X206350000Y-128650000D03*
D11*
X200000000Y-130000000D03*
%TD*%
D10*
%TO.C,D4*%
X168650000Y-206350000D03*
X181350000Y-203650000D03*
D11*
X175000000Y-205000000D03*
%TD*%
D13*
%TO.C,C1*%
X201562500Y-110000000D03*
X198437500Y-110000000D03*
%TD*%
%TO.C,C3*%
X101562500Y-110000000D03*
X98437500Y-110000000D03*
%TD*%
D10*
%TO.C,D10*%
X106350000Y-128650000D03*
X93650000Y-131350000D03*
D11*
X100000000Y-130000000D03*
%TD*%
D10*
%TO.C,D6*%
X118650000Y-156350000D03*
X131350000Y-153650000D03*
D11*
X125000000Y-155000000D03*
%TD*%
D10*
%TO.C,D1*%
X131350000Y-203650000D03*
X118650000Y-206350000D03*
D11*
X125000000Y-205000000D03*
%TD*%
D10*
%TO.C,D8*%
X181350000Y-53650000D03*
X168650000Y-56350000D03*
D11*
X175000000Y-55000000D03*
%TD*%
D10*
%TO.C,D14*%
X231350000Y-153650000D03*
X218650000Y-156350000D03*
D11*
X225000000Y-155000000D03*
%TD*%
D10*
%TO.C,D25*%
X143650000Y-131350000D03*
X156350000Y-128650000D03*
D11*
X150000000Y-130000000D03*
%TD*%
D13*
%TO.C,C4*%
X101512500Y-210100000D03*
X98387500Y-210100000D03*
%TD*%
D12*
%TO.C,U1*%
X197525000Y-103095000D03*
X197525000Y-104365000D03*
X197525000Y-105635000D03*
X197525000Y-106905000D03*
X202475000Y-106905000D03*
X202475000Y-105635000D03*
X202475000Y-104365000D03*
X202475000Y-103095000D03*
%TD*%
D10*
%TO.C,D21*%
X106350000Y-178650000D03*
X93650000Y-181350000D03*
D11*
X100000000Y-180000000D03*
%TD*%
D10*
%TO.C,D24*%
X193650000Y-181350000D03*
X206350000Y-178650000D03*
D11*
X200000000Y-180000000D03*
%TD*%
D10*
%TO.C,D3*%
X168650000Y-106350000D03*
X181350000Y-103650000D03*
D11*
X175000000Y-105000000D03*
%TD*%
D10*
%TO.C,D15*%
X156350000Y-78650000D03*
X143650000Y-81350000D03*
D11*
X150000000Y-80000000D03*
%TD*%
D10*
%TO.C,D11*%
X68650000Y-156350000D03*
X81350000Y-153650000D03*
D11*
X75000000Y-155000000D03*
%TD*%
D10*
%TO.C,D19*%
X218650000Y-206350000D03*
X231350000Y-203650000D03*
D11*
X225000000Y-205000000D03*
%TD*%
D13*
%TO.C,C2*%
X201512500Y-210050000D03*
X198387500Y-210050000D03*
%TD*%
D10*
%TO.C,D18*%
X218650000Y-106350000D03*
X231350000Y-103650000D03*
D11*
X225000000Y-105000000D03*
%TD*%
D10*
%TO.C,D7*%
X118650000Y-56350000D03*
X131350000Y-53650000D03*
D11*
X125000000Y-55000000D03*
%TD*%
D12*
%TO.C,U3*%
X97525000Y-203095000D03*
X97525000Y-204365000D03*
X97525000Y-205635000D03*
X97525000Y-206905000D03*
X102475000Y-206905000D03*
X102475000Y-205635000D03*
X102475000Y-204365000D03*
X102475000Y-203095000D03*
%TD*%
D10*
%TO.C,D9*%
X181350000Y-153650000D03*
X168650000Y-156350000D03*
D11*
X175000000Y-155000000D03*
%TD*%
D10*
%TO.C,D5*%
X143650000Y-181350000D03*
X156350000Y-178650000D03*
D11*
X150000000Y-180000000D03*
%TD*%
D10*
%TO.C,D2*%
X131350000Y-103650000D03*
X118650000Y-106350000D03*
D11*
X125000000Y-105000000D03*
%TD*%
D14*
%TO.C,R1*%
X165000000Y-221912500D03*
X165000000Y-220087500D03*
%TD*%
D10*
%TO.C,D16*%
X81350000Y-203650000D03*
X68650000Y-206350000D03*
D11*
X75000000Y-205000000D03*
%TD*%
D10*
%TO.C,D12*%
X68650000Y-56350000D03*
X81350000Y-53650000D03*
D11*
X75000000Y-55000000D03*
%TD*%
M02*
